/* XPM */
static char *cdb13e5f9ac8459fb8e387bdb77c6c1dm2vUfFlxO9F3Iksn[] = {
/* columns rows colors chars-per-pixel */
"64 64 250 2 ",
"   c #4F552E",
".  c #78783A",
"X  c #6C6D36",
"o  c #5D6031",
"O  c #2B3F5C",
"+  c #344A4A",
"@  c #2C4355",
"#  c #2D455B",
"$  c #2E495D",
"%  c #2A4757",
"&  c #314654",
"*  c #334B55",
"=  c #32465D",
"-  c #334B5D",
";  c #394D59",
":  c #3B5353",
">  c #35515E",
",  c #3C545A",
"<  c #334B4D",
"1  c #2C4561",
"2  c #2F4A62",
"3  c #324762",
"4  c #344C63",
"5  c #394E64",
"6  c #354D6A",
"7  c #3A4E6B",
"8  c #32466B",
"9  c #365165",
"0  c #3A5265",
"q  c #36526A",
"w  c #3B536B",
"e  c #3E596D",
"r  c #3E5A65",
"t  c #3B5472",
"y  c #3E5A72",
"u  c #385475",
"i  c #334F6B",
"p  c #42594D",
"a  c #425B53",
"s  c #43595A",
"d  c #585954",
"f  c #496359",
"g  c #546C5B",
"h  c #59765B",
"j  c #4B644D",
"k  c #796C49",
"l  c #627A59",
"z  c #6B6C50",
"x  c #435C64",
"c  c #41566C",
"v  c #435B6D",
"b  c #495E6D",
"n  c #435562",
"m  c #445D73",
"M  c #495E74",
"N  c #435D7A",
"B  c #495E7B",
"V  c #405570",
"C  c #535D66",
"Z  c #496468",
"A  c #536C67",
"S  c #5B736D",
"D  c #587567",
"F  c #466175",
"G  c #4A6275",
"H  c #45627B",
"J  c #4B647B",
"K  c #4D697D",
"L  c #4E6A77",
"P  c #516A75",
"I  c #51677D",
"U  c #526B7C",
"Y  c #586F7F",
"T  c #58737A",
"R  c #637A67",
"E  c #637C77",
"W  c #71776C",
"Q  c #877636",
"!  c #826D2E",
"~  c #867652",
"^  c #8C7E64",
"/  c #7A843D",
"(  c #798749",
")  c #77945A",
"_  c #738E53",
"`  c #6A856A",
"'  c #728C69",
"]  c #7A9669",
"[  c #6A8676",
"{  c #748B76",
"}  c #7E9C73",
"|  c #789478",
" . c #7CA26C",
".. c #7DA14A",
"X. c #87863C",
"o. c #978E3F",
"O. c #88A73E",
"+. c #92A53D",
"@. c #A7A639",
"#. c #888747",
"$. c #88985A",
"%. c #90954F",
"&. c #85A545",
"*. c #8CA543",
"=. c #8AAA43",
"-. c #8BA54B",
";. c #86A94B",
":. c #8AAB4B",
">. c #84A846",
",. c #94A943",
"<. c #98B54C",
"1. c #8BAC5D",
"2. c #89A859",
"3. c #95AD58",
"4. c #8FB159",
"5. c #9CBE55",
"6. c #93B45C",
"7. c #9BBC5B",
"8. c #96B658",
"9. c #8FB54E",
"0. c #A8B54C",
"q. c #B4B74B",
"w. c #A3BD55",
"e. c #A3BD5B",
"r. c #ABBC55",
"t. c #B9BB53",
"y. c #ACAC48",
"u. c #849A69",
"i. c #859C75",
"p. c #83866B",
"a. c #85A364",
"s. c #8CAB63",
"d. c #85A46A",
"f. c #89A66B",
"g. c #8DAC6A",
"h. c #89A764",
"j. c #92AA67",
"k. c #93B464",
"l. c #9CBC63",
"z. c #94B26C",
"x. c #98B766",
"c. c #85A473",
"v. c #8BA774",
"b. c #95B472",
"n. c #A5BC66",
"m. c #B7B56A",
"M. c #A9B96F",
"N. c #A59B5D",
"B. c #9EC255",
"V. c #9EC25A",
"C. c #9AC14C",
"Z. c #A2C155",
"A. c #AAC256",
"S. c #A3C35B",
"D. c #ACC45C",
"F. c #A2C95A",
"G. c #B4C85B",
"H. c #9EC262",
"J. c #9FC069",
"K. c #9FC372",
"L. c #A5C364",
"P. c #A5C46B",
"I. c #AAC66B",
"U. c #ADCA6C",
"Y. c #ABC564",
"T. c #BDCD64",
"R. c #BDCD6B",
"E. c #B5C965",
"W. c #BCD067",
"Q. c #ABC776",
"!. c #B3CE75",
"~. c #B6CE7A",
"^. c #B4D375",
"/. c #B4D37B",
"(. c #BAD67C",
"). c #BAD97D",
"_. c #AFD068",
"`. c #C4C85B",
"'. c #C8CA66",
"]. c #C2D46D",
"[. c #CAD669",
"{. c #D5D46B",
"}. c #DAD46D",
"|. c #D4DA6C",
" X c #D4D567",
".X c #CCDB73",
"XX c #C9D573",
"oX c #D5D373",
"OX c #DAD473",
"+X c #D4DB73",
"@X c #DAD97A",
"#X c #C9CA72",
"$X c #E2DC7C",
"%X c #D9E27A",
"&X c #E2E07C",
"*X c #4A5E82",
"=X c #4C6582",
"-X c #4D6A84",
";X c #4A6985",
":X c #526C84",
">X c #536C8A",
",X c #516787",
"<X c #4D718B",
"1X c #547185",
"2X c #54728C",
"3X c #5B748C",
"4X c #597186",
"5X c #5A7793",
"6X c #556D91",
"7X c #617B95",
"8X c #687585",
"9X c #657FA0",
"0X c #7D9786",
"qX c #7A93AB",
"wX c #7A96AC",
"eX c #778EA9",
"rX c #849C84",
"tX c #82949E",
"yX c #8DA78A",
"uX c #829BB4",
"iX c #879FBA",
"pX c #859CAB",
"aX c #8AA4BD",
"sX c #8AA6BA",
"dX c #92A9B8",
"fX c #A5BDA5",
"gX c #B4CC85",
"hX c #BBD582",
"jX c #BDDA83",
"kX c #BCDA8A",
"lX c #BCD692",
"zX c #BFE085",
"xX c #C2DD86",
"cX c #C4DD8C",
"vX c #D7D981",
"bX c #C7DC97",
"nX c #C8D08D",
"mX c #E5DC80",
"MX c #C5E28C",
"NX c #C9E48E",
"BX c #C3E181",
"VX c #DAE383",
"CX c #C6E492",
"ZX c #CAE493",
"AX c #CCE49A",
"SX c #CBE994",
"DX c #D0E998",
"FX c #E1E482",
"GX c #8CA6C4",
"HX c #93ACC4",
/* pixels */
"G F F G J G F F 9 4 $ 4 4 4 4 w =X=XH 9 % $ 4 = $ 6 w 7 q 3 2 - $ * * $ # q H =XH ;XH N u ;X<X=X,XB q i 9 9 , S A   k ~ ^ ^ 8X=X",
"4 4 4 9 4 4 4 4 4 $ 4 w m K :X4X,X<XK w 4 9 0 5 V J =XB 4 % # 2 $ > > 9 2 4 q 2 i % 2 N y u t u t 5XeXK G S 0XyXrXi.p.Q ~ ^ S n ",
"- 4 - @ $ 4 4 9 :X:X:XK m 4 $ $ 2 4 w F K :X:X-XB t w e 4 9 w 9 6 6 y =XJ L K T L > m qXGXsXaXaXHXwXeXr g ] b.b.b.j.%.Q ! X k W ",
"$ - - 9 w m F J G J K G m w 4 4 9 $ 4 w w 4 4 w 7 w m U :XU U U =X*X6XuXHXsXsXsXsX1Xe J H q 0 e r > T wXyXg.x.Q.lXQ.N.o.Q ! ~ ~ ",
"F H J F e 0 4 4 - 4 4 4 w V m H G F F G V 5 7 I :XI V 5 4 4 w K 7X*X6 u t y >X5X7XJ r > $ @ 4 G <XL S i.v.3.x.P.lXbXgXN.Q Q X ~ ",
"4 4 4 4 4 9 9 - 4 9 4 - = 4 5 4 - - 4 w 7 3 8 7 5 5 = @ 4 - = 5 1 w =X>XH 8 6 6 2 9 > $ - - - 0 > a ' f.2.$.;.k.gXnXnXgXN.Q k ~ ",
"4 9 4 $ q m F m F H H y 9 4 4 4 ; - - 3 8 3 4 4 & - 5 5 4 3 3 4 5 - - w w 3 q 6 4 - * $ - ; 4 = > ` u.j.$.$.$...v.M.lXbXm.$.W d ",
"4 F G q $ 9 q 9 9 9 4 q m :X:X:Xb G I V 7 6 = - 5 3 4 3 3 w I :XI 0 - v m v F J m 0 - 4 - ; ; ; [  .u.#.$.u.....-.b.gXnXgXf.W C ",
"$ q 9 4 4 e K 1X:X1XH 4 4 4 4 9 ; - 7 7 4 5 5 5 Y I ,Xc O V 8 5 > & ; n > r Z G K M M M Z x S 0Xc.g.. o p.u.( ..-.-.n.gXK. .[ 9 ",
"q F K 1X:X-X1X4X:XK e 2 4 4 2 $ - K ,X-X,X,XU P P Y 8XB 7 O c ; < Z E 0X0X{ S Z v M V ; + f ' v.k.4..   z p.) ..&.-.x.P.b. .T 0 ",
"9 0 e F J F J F =X:Xm m F y H F m 0 3 6 w 7 0 > ; ; c B M M Z A { u.h.1.s.s.) ` a : & s g ' g.6.H.V.%.o   z p.$.$.$.s.z.] R s < ",
"F F e q 9 $ 2 4 4 e m F y 4 4 $ # 2 q i 1 3 0 % 0 = O n O n + R v.b.n.P._.H.4.u.] W R {  .g.7.V.B.H.n./     ( $.$.j.v.] h p + ; ",
"q q $ $ 4 w w $ $ w q 3 # $ w e 0 w q u t 2 # - = 4 3 3 s + l u.g.Q.kXZXZXkXP.x.1.2.2.1.4.7.Z.B.C.B.H.8._ X ( -.u.v.{ D Z Z b n ",
"% 9 9 w J =XJ q 4 e H K =X7XwXsXdXsXaXGXwX=X4 5 5 4 3 * + j ] j.gXbXAXZXAXSXkXP.l.7.5.5.B.F.B.5.V.B.B.L.J.d. . .u.[ A F J I C b ",
"e K K J y 9 9 4 $ B qXHXsXwXeXK 1X3X5X5X9XiXuX3X,X=Xc ; a ] g.Q.bXAXAXbXZXDXCX!.L.S.B.B.B.C.Z.F.C.Z.B.V.H.k.} [ S G G U F q 3 w ",
"F L J J m m B B 4 # e e e e 2 $ 4 4 1 8 ;X5X3X:X4 4XP S rXc.Q.MXZXZXAXZXcXCXMX).e.S.V.B.B.B.B.V.Z.V.V.H. . .[ Z M J =X1XJ u i 1 ",
"U L 9 4 4 5 7 4 = 3 & - 5 3 9 2 $ 9 1 $ 7 0 - 5 4 @ A c.c.K.bXbXAXMXhXU.I.U._.Y.V.V.B.B.V.V.V.V.S.e.x.h.] A > 2 2 > 9 4 9 4 6 4 ",
"> > = 4 6 3 3 5 5 > 5 5 c B v 9 - * 0 5 @ = b P Z A ' d.z./.AXAXNX^.P.S.7.5.Z.Z.B.B.B.B.V.V.5.S.5.6.h.] f * % u 9 2 # - 4 2 w K ",
"$ 4 4 V B M M G M m M 0 4 9 - - ; > - - 4 ; = * S | f.k./.MXZXZX).I.L.!.^.D.w.w.Z.B.B.B.V.V.5.L.7.s.} D P L 1XK H e q w 9 4 e K ",
"4 4 3 w c n ; = x c v M F v ; % & & * 4 4 = - s ' d.x.P.xXSXCXcXU.e._.VXvX].E.Y.w.Z.B.V.Z.V.5.S.6.f.g : % r > 9 1X-XK =X=X=XK T ",
"# 6 c M I G 0 - > 5 - > 9 - 9 9 ; 0 > $ q # : ' f.6.P.(.NXSXNX).r.E.XXVXVXoX].R.D.w.B.B.V.V.B.7.2.' s 7 7 4 % % 2 4 6 4 0 w 9 ; ",
",X>XJ w 5 5 - = 4 v b F F m U =XI v 0 > % f [ d.k.n.hXZXZXCXzXY.E.XXVXFX$XOXoXXXE.A.Z.B.B.F.F.7.1.l s N >X=Xy $ 4 4 4 - = $ % $ ",
"8 8 5 - - ; @ 4 1 4 9 ; > 9 w 6 7 m L P [ } b.k.P.^.AXAXAXcXU.S.].%XFX&XOXOX{..XW.A.Z.V.B._.^.J.1.' < w t >X>X=X6 2 - - 4 w 0 - ",
"7 6 - $ ; 0 4 4 6 t K :X:X:X=X,X,XM r Z | g.x.H.^.CXAXbXAXgXL.G.+XFX&X}.OX}.{.+X[.A.Z.V.V./..XU.j.] a 4 H =XH =X2 9 ; > m =Xm 4 ",
"I I U :X1X:X:X:X,X-Xm 4 4 6 6 7 4 x [ c.g.6.I.^.NXZXAXAXhXM.E.XXVXvXOXOX}.}.}. X[.A.Z.Z.V.!.zXjXH. .{ v 9 2 ;XH H F Z F 0 1 6 4 ",
"5 n b H B m w 4 :X4XM 3 $ 4 4 v A ` } g.x.Y.(.MXMXZXZXjXQ.n.].VXFX$XoX}.}.}. X X[.G.Z.Z.l./.NXMXH.s.| r K ;X<XH F > * < $ 3 2 6 ",
"& * 4 7 6 6 4 - 4 5 7 5 $ % : p |  .z.l.Q.hXcXDXDXNX/.n.n.XX%X&X@XOXOX}.{. X[.|..XD.e.e.I.kXZXMXF.1.| % w q > q 9 r L 1X=X=X6 1 ",
"* - - $ $ $ $ > @ 5 4 - : : j ' f.k.V.I.XXcXNXDXxX~.Y.n.].%X%X|.oXOXoXoX{.[..X.X].D.e.U.kXCXDXkXU.s.| r e y y F m F F v = w 1 2 ",
"2 2 - 9 > * * * > = @ @ a l ] 6.6.H.!.jXNXSXcXcX~.e.n.].vXVX|.}.}.oX{.{.+X.XR.W.Y.Y.R.xXCXZXCXhXz.c.[ P q u 2 $ $ q 9 q # 4 9 q ",
"6 2 $ - $ * * - ; 5 ; a ' d.1.6.U.).MXCXSXNXhXQ.n.n.~.VX@X@X{.}.}.{..X.X].R.Y.L.E.~.cXDXZXkXgXb.f.` : > e N 9 q m e e L H J U K ",
"t 4 $ - - 4 4 4 G S { i.h.k.l./.xXZXAXCXzX).U.x.. %.#XVX+X{.{.{.{. X[.T.G.L.L.U.cXNXDXbXhXQ.x.a.| R + Y qXGXGXGXwX1XJ F F e J L ",
"w - 4 m K H B G S | v.h.x.P.hXNXZXAXAXMX^.P.7.7./ o #.m.oX@XoX{.|.'.G.D.Z.I./.MXNXZXcXgXb.g.$.' S tXdXpXH q u t y e wXHXqXe $ > ",
"J e 2 2 ;X1XP [ i.j.k.l.U.jXCXCXNXxX/.U.l.5.Y.XX#XQ ! #.m.@X+X[.G.F.S.7.U.MXCXCXZXhXP.z.v.} f p ; n ; 5 3 = - 3 = 4 w w 4 4 3 4 ",
"2 q 9 r r Z [ c.s.8.7.Y.).SXCXxX!.I.L.n.S.E..XVXvXm.#.~ %.#XXXG.S.S.L.!.zXCXMXCXQ.x.f.yXfXtXn 3 O ; = ; - - 5 > 4 - - 4 2 w m =X",
"K -XT T {  . .6.l.5.V.L.^.).^.I.D.w.w.D.T..X|.+X@XvXN.#.~ m.E.w.S.P.~.CXZXCX/.l.3.u.R p s n & = 3 3 = = = ; b G G M G m m J =X-X",
"L T [ 0Xv.z.H.7.7.V.B.V.L.L.S.e.w.A.G.]..X%X|.'.oXvXm.. / ,.S.S.U.cXCXZXCXU.6.s.] g s 0 0 0 5 6 3 n 5 ; - > w w - 3 5 w 6 4 7 5 ",
": A } s.3.7.5.S.B.B.B.F.5.5.w.A.G.]..X|.{. X X}.OX@Xm.X.%.3.J.!.xXAXZXhXP.k.d.` p x G 0 O 3 4 - n V w 5 - 5 5 = 5 = = @ = 5 M -X",
"h  .g.6.w.S.S.w.Z.B.B.Z.D.Y.G.'.+X+X+X|. X X X}.oX#X].3.7././.zXDXxX~.P.h.] R a % 9 0 w t 7 4 # & c c 4 3 c G G m v c 0 - 4 7 c ",
" .1.7.9.=.5.e.e.A.Z.S.E.]..XoX@X+X+X{.{.}.}.{.oX#XR.D.e.U.zXCXSXjX!.k.h.} A , K :X-Xm y K b 4 - 4 m m e 0 0 w $ - 0 c M M m v c ",
"..8.O...=.-.:.5.A.D.W..XVX%XoXOXoXoXOX}.{. X X{.].r.e.!.MXCXSXkXQ.k.a._ f r F =X;Xy 6 9 4 - ; ; 5 7 4 0 b G m - - 4 5 c 7 n 5 5 ",
";.7.;.;.;.&.O.,.<.r.q.'.@X@XOXOX@XoXoX{.{. X[.].D.L.L.).ZXMXhXP.g.c.` s r y q i i 2 > % - - - m G m 3 $ - 9 9 4 4 4 4 aXaXpX5 = ",
"4.4.6.;.>.>.O.O.,.q.q.t.'.@XmXOXoXoX{. X X[.T.D.V.B.7.^.).!.M.b.c.| [ H N H ;X;XH y r q > 9 = 4 # q m K J H G F F m 0 v w w = 3 ",
"2.1.6.>.O.>.&.=.+.q.G.@.q.'.$XOXoXoX}. X[.T.D.e.H.L.B.B.L.x.j.i.[ T ;X<X;X<X<X<X<X<XeXy K G m 4 e m K K H m H =X:XJ :XB H 3 5 0 ",
"h f.1.:...O.&.*.+.@.q.q.@.y.OX$XOX}. X X[.A.7.l.V.C.B.B.6.g.i.R ;X-X<X-X<X<X5X<X<X<XH 2 - w M =X=XK H m e m J :X-X5 4 3 w # 4 $ ",
": ' 1.9.O...>.=.*.+.0.@.@.@. X&X X X[.'.G.Z.5.L.H.F.<.8.2.] g 0 q =X,X=XH H y ;Xu u q i 2 2 0 0 4 2 9 4 3 2 2 6 6 2 4 4 $ 4 w 9 ",
", g a.4.9.O.:.>.*.+.0.0.@.@.`.'.`. X[.G.C.Z.V.V.S.5.H.1.c.g x H *X,X:XK H u 6 t y H H H <XH G m 4 $ 2 4 q q 6 i 2 3 2 q 3 =X:X-X",
"M : ` h.2.=.=.O.&.*.-.0.y.y.t.q.t.'.T.r.B.B.B.B.F.4.f.i.f x q 2 9 9 4 4 e H :X:X2 y F H ;XF ;X=XF w 4 q m :X2X>X,X2X2X=Xq 3 y =X",
"I 0 a | g.9.>.>.O.O.*.0.0.q.q.q.`.G.Y.e.Z.B.C.B.8.j.' p x K H q $ ; 4 - 3 B U m H y > q H <X<X-X:X:X=X=X:X>X:X:X2X>X>X>X>X-X:X1X",
":XU U E | g.4.&.O.O.+.+.<.r.r.q.A.A.Z.S.Z.B.S.9.h.] D < - 9 $ 4 3 3 - 3 3 3 4 4 7 3 4 5 3 3 5 5 F K B B H 5 4 4 7 B K J N i =X;X",
"- 4 4 c [ v.1.:.O.O.O.O.+.,.0.A.Z.B.S.Z.V.e.9.h.' j < ; 3 6 q $ 5 & = 4 - 4 4 q 4 5 5 - = 3 4 4 4 4 4 4 4 @ 4 4 4 4 2 $ q q N y ",
"4 ; 4 - x [ v.6.=.O.+.=.-.*.,.<.5.S.B.B.Z.7.g.} A s @ 0 u y H K 4 w 4 9 5 3 9 m B K F q w 4 $ $ 4 - $ $ 4 4 0 4 - $ 9 4 y N y q ",
"w c G G M E i.u.9.9.&.=.-.-.*.O.<.V.B.H.7.h.] f dXpXK J =X>XN K F F F H ;XH J <X<X2X2X2X=Xv 9 2 4 4 9 4 0 v I G J m F J K K m y ",
"J 4XI c 5 ; f ' g.4.:...-.-.*.*.C.V.V.7.k.] D r G =X<XaXGXwX3XN H H ;XJ =X;X<X;X<X;X;X;X;XH -X<XF v G v e v L U L v - - 2 9 9 9 ",
"- 0 5 - - @ & Z ' h.k.4.-.&.O.O.9.V.V.4. .` r y t 6 i H y y K >X6 q % 1 K 2X<X>X=Xy y H y K H w 9 $ 9 4 9 - - 9 e m 0 0 $ % $ $ ",
"5 O O ; > 5 3 + f ' f.7.4.;.=.O.9.H.4. .[ x q i H =XH y y y F =X:X:XN =XqXHXaXGXaXaXsXGXiXeX=X@ e e e $ $ 9 4 - - e G M > 9 - 9 ",
"= - ; * ; ; 3 5 v S ] h.k.7.7.5.H.4.d.` s y ;XH H m H 2 q 2 2 q sXaXGXqXB 6 w 4 7 w q q V 7 3 7 uXsXwXm # - 4 % - # 0 4 = ; - F ",
"& 5 5 = > c 9 - > < : ` h.1.s.k.h.c.[ , % w H H 2 q > > 9 4 $ 2 w c c 5 3 3 3 3 3 = 3 3 c 5 c 5 w w t $ # w v 4 4 4 3 4 $ 4 5 3 ",
"0 c b M b v 4 ; 9 - ; : h ) } } } ` A =X3X;Xi i r K L F $ 2 6 6 3 3 # = = = 3 ; = 3 ; V eXHXqXV 4 w H ,X5XqXiXaX4 4 4 3 4 w m I ",
"m 5 c M G m e m w 4 - + + : s : , U -X=X3X2X=XK H H q q q F =X=XM c 4 5 5 5 5 5 - - - 5 b m c 4 uXuXaXaXwX7X=X=Xq 6 w m m B J M ",
"V O & = > 0 w w w 6 0 0 $ $ # % O 7 7 u ,X2X1X-XeX<XH H e w 6 6 K H m m m m M G 4 4 0 c c c m J 2X>X5X7X5X=Xt K =XH t e m J M 3 ",
"B V 4 = - F U ,X1 @ 0 b e 5 8 u N ,X6X;Xt 1 4 4 H ;Xi i w 9 1 i 4 4 c M U G M G M M c c w w 4 $ 6 2 4 m 2X>X=X<XH u 4 9 N ,XK 4 ",
",X,XJ w - 0 w 8 6 0 b G H B *X,X,X<X*Xm J H H 6 i <X6X<X=XB t m H m m B K M 0 = 5 3 5 m m m w 4 4 2 4 y =Xy i q 4 i 2 q w w 5 3 ",
"3 w H I :XK B G m v 5 3 3 ; = 5 $ e - > - # w N B =X*X;X=X=XF 0 4 = = 5 7 n 3 - O n 5 3 = w V I K F m y q 9 q H <X-X-XH q # 4 4 ",
"4 $ 4 5 u 3 # 9 0 4 = c M n & & 0 F > $ , % 8 6 6 3 # u N =XF 4 - 3 5 3 O 3 3 ; n = = 5 4 4 4 4 2 4 6 4 2 2 q H H K =XK F H H K "
};
