/* XPM */
static char *d668e35812d8493eadcefd7273edfb5229GzSTsddAwjpeYQ[] = {
/* columns rows colors chars-per-pixel */
"64 64 237 2 ",
"   c #4F322F",
".  c #52312E",
"X  c #4B3739",
"o  c #563533",
"O  c #5B3535",
"+  c #5D3B36",
"@  c #5C3C3A",
"#  c #553B3A",
"$  c #4C2E2D",
"%  c #643C3C",
"&  c #66393A",
"*  c #5E423D",
"=  c #63423E",
"-  c #69403D",
";  c #2E3F4F",
":  c #5C3F41",
">  c #443E42",
",  c #6D3E41",
"<  c #653D41",
"1  c #2C4355",
"2  c #2D455C",
"3  c #2D4A5D",
"4  c #2A4657",
"5  c #344455",
"6  c #32465C",
"7  c #3A465C",
"8  c #334A5D",
"9  c #3B4B5C",
"0  c #394855",
"q  c #3B525E",
"w  c #354953",
"e  c #2D4562",
"r  c #2E4B62",
"t  c #324662",
"y  c #344C63",
"u  c #394D64",
"i  c #344D69",
"p  c #394E6A",
"a  c #2E5169",
"s  c #365165",
"d  c #3B5166",
"f  c #35526B",
"g  c #3B536B",
"h  c #3D586D",
"j  c #3C5571",
"k  c #3E5972",
"l  c #355670",
"z  c #4D4449",
"x  c #5C4343",
"c  c #5C494B",
"v  c #57454A",
"b  c #434A55",
"n  c #434D5B",
"m  c #484853",
"M  c #5B4E54",
"N  c #5B4F59",
"B  c #4B525D",
"V  c #435059",
"C  c #5C545C",
"Z  c #644443",
"A  c #6A4444",
"S  c #654A45",
"D  c #6B4945",
"F  c #634649",
"G  c #654B4C",
"H  c #6C4C4A",
"J  c #6B444A",
"K  c #714444",
"L  c #724649",
"P  c #734C4B",
"I  c #7A4C4D",
"U  c #734947",
"Y  c #6D524D",
"T  c #64504F",
"R  c #73524E",
"E  c #79514E",
"W  c #684C53",
"Q  c #7B4D52",
"!  c #744E51",
"~  c #645254",
"^  c #6B5353",
"/  c #6B555C",
"(  c #69585B",
")  c #745453",
"_  c #7B5453",
"`  c #755A56",
"'  c #7A5A56",
"]  c #745C5C",
"[  c #7B5C5B",
"{  c #77565A",
"}  c #7C625D",
"|  c #75615C",
" . c #424F65",
".. c #445363",
"X. c #41556B",
"o. c #435A6D",
"O. c #4B5B6D",
"+. c #4B5765",
"@. c #555A66",
"#. c #425572",
"$. c #445C73",
"%. c #495E74",
"&. c #445F79",
"*. c #4C5E7B",
"=. c #535F77",
"-. c #645C65",
";. c #6B5D63",
":. c #735E61",
">. c #7B5F61",
",. c #4B616F",
"<. c #5C626D",
"1. c #466176",
"2. c #4B6176",
"3. c #46617B",
"4. c #4B647B",
"5. c #4D697E",
"6. c #4F6B77",
"7. c #526372",
"8. c #52657C",
"9. c #596A79",
"0. c #65626A",
"q. c #6B656B",
"w. c #686166",
"e. c #756263",
"r. c #7C6463",
"t. c #7C6965",
"y. c #71636A",
"u. c #7D6C6C",
"i. c #79676A",
"p. c #646673",
"a. c #656973",
"s. c #6D6C74",
"d. c #616C7D",
"f. c #6D6D79",
"g. c #766B74",
"h. c #6B727C",
"j. c #74747C",
"k. c #79747A",
"l. c #825B5C",
"z. c #825557",
"x. c #83645D",
"c. c #836563",
"v. c #846A65",
"b. c #846C6B",
"n. c #8A6C6A",
"m. c #886865",
"M. c #926F6A",
"N. c #8C726C",
"B. c #86736D",
"V. c #92746D",
"C. c #957A6C",
"Z. c #856E71",
"A. c #857373",
"S. c #8A7473",
"D. c #8D7975",
"F. c #837679",
"G. c #8B7679",
"H. c #857A7B",
"J. c #8C7B7B",
"K. c #877876",
"L. c #927472",
"P. c #947975",
"I. c #997B74",
"U. c #937D7B",
"Y. c #9B7D7B",
"T. c #967776",
"R. c #905F63",
"E. c #95827C",
"W. c #9C837C",
"Q. c #998377",
"!. c #8C827F",
"~. c #A1847D",
"^. c #AA8B7F",
"/. c #466580",
"(. c #4C6681",
"). c #4D6A83",
"_. c #4C6C87",
"`. c #536B83",
"'. c #546D8A",
"]. c #586B84",
"[. c #54728C",
"{. c #5B748B",
"}. c #587186",
"|. c #5B7993",
" X c #4F718C",
".X c #697587",
"XX c #777A85",
"oX c #627B95",
"OX c #686F81",
"+X c #887B83",
"@X c #977E81",
"#X c #7B818E",
"$X c #738295",
"%X c #7A93AC",
"&X c #7894AC",
"*X c #7993AC",
"=X c #878388",
"-X c #948482",
";X c #9C8482",
":X c #9C8B84",
">X c #9B8B8A",
",X c #94878C",
"<X c #848892",
"1X c #948E98",
"2X c #989298",
"3X c #8E929B",
"4X c #A38682",
"5X c #A38C84",
"6X c #AA8B85",
"7X c #A28D8B",
"8X c #AB8E89",
"9X c #A5938C",
"0X c #AB928C",
"qX c #A79388",
"wX c #B1938C",
"eX c #A39292",
"rX c #AB9692",
"tX c #AB9994",
"yX c #AA9D9A",
"uX c #B39A95",
"iX c #B29D99",
"pX c #B49793",
"aX c #B3A19B",
"sX c #BAA29D",
"dX c #AFA09D",
"fX c #8895A7",
"gX c #839DB5",
"hX c #959DAF",
"jX c #8AA4BD",
"kX c #87A4BC",
"lX c #99A6B7",
"zX c #A9A4A9",
"xX c #A39AAB",
"cX c #C6A9A3",
"vX c #8BA6C1",
"bX c #93ABC3",
"nX c #98B0C8",
/* pixels */
"2.1.1.2.4.2.1.1.s y 3 8 s y s s 1.(.1.y 2 r y y 2 f d s p y 6 t 6 9 6 6 6 y 2.4.1.3.3.k k /.'.(.'.k l l l a l l l e y s g 5.}.).",
"y y q s y y y y y 3 y g 1.4.`.}.`.'.4.k i y s p #.2.`.*.t 2 6 y 6 y y u 8 y s 3 a 4 s 1.$.j j g f |.|././._./._.3.].{.`.1.h a 2 ",
"y 8 2 4 3 8 s s `.`.`.4.$.y 8 3 y y d &.`.`.`.(.&.h g g u u g u y p #.)._.3._.}._.r &.&XvXvXvXvXvXbX*X/.j j j $.1.`.#.y s y 3 y ",
"3 8 8 s g $.1.4.2.4.5.4.$.g u y y y y g g y y s p p %.`.`.`.`.`.(.&.[.gXbXvXvXkXkX Xl 5.3.f f k i p `.*XgXkXkXgXjX%X2.3 y y s y ",
"1.2.2.1.h f y y y y 3 y g #.$.1.2.%.*.2.X.y g 4.`.2.#.y y y g (.|./.f l l k _.$X|.5.g y 3 2 s 2.`.8.`.].2.k h s h #.8 y y 6 t 1 ",
"y y y y s s s 3 y s s y 3 y y i 6 y u g p t y s f p 3 2 y y 6 f r l 4.}.3.a a r 3 s y 8 t 8 8 d u d u 3 2 2 2 y 3 6 y y u 6 u 8 ",
"y s r 3 s $.1.$.1.1.4.h f y y y y y 6 y y y y 6 2 y y y y y y y i y y f s s a 8 y 8 6 6 8 9 6 6 y y 8 y u s s s y p y y 8 9 7 9 ",
"s 1.1.g 3 s d s s s y f $.`.`.`.*.2.2.$.u t y t y y y t 3 s 2._.5.s y o.1.o.1.2.o.u 8 u y 8 q y y y #.4.$.4.].).`.).4.2.2.2.O.%.",
"s s s r r g 5.}.`.}.1.y r y f y y y d d y y u p `.`.5.g 3 y d s y 8 6 u u X.%.2.2.2.%.$.2.2.1.1.&.$.s y d s 3 f y s h 1.2...8 w ",
"s 1.5.}.}.).}.}.).5.k r y y y 3 y 8.].8.`.].`.`.`.`.{.4.y 8 6 4 8 8 u o.%.%.2.%.2.2.h y y 3 y f i s y 6 8 6 2 y 2 r a s s d u 9 ",
"s s h 1.4.1.4.1.5.`.1.$.$.$.1.3.$.s y s g y p p u u 1.2.o.2.2.2.%.$.2.5.2.$.d u y y y y y y 3 s y 6 5 7 9 w 8 3 r r r 2 8 u 9 0 ",
"1.1.h s s 3 r y 3 #.$.1.h y y r 3 3 y r 2 t p y s y 8 8 6 9 9 1 s 8 2 6 u u t 6 7 6 6 6 u 8 2 w 7 n ..@.7.@.+.9 8 r r 3 y s 9 6 ",
"s s 3 3 y g g r 3 g f y 2 2 f h g f f g k i 2 p t 6 t u u 9 9 9 9 u 9 8 w 5 0 7 n 7 9 9 n n w q m N s.XX=XXXXX7.u i f j $.1.$.X.",
"3 r y h 2.`.4.f r h 4.4.(.oX%XjXbXkXkXbX&X3.t p u u 6 6 8 5 5 5 5 0 9 0 n n B @.<.p.a.a.f.XX=X3X2X+Xu.y.;.q.f.XXO.%.$.*.4.4.%.%.",
"h 5.5.4.k s f r 3 2.%XbXjX%X$X[.}.{.|.{.oXgX%X|.8.`.X.7 d 0 9 d 0 V B @.h.XXXXk.q.H.2XyXdXzXdXyX;X:./ W ^ ( -.XXd.8.4.(./.#.p p ",
"1.6.5.4.1.$.$.3.s 2 h X.o.o.8 3 8 8 6  .9.oX.Xd.X.d.OXOXXXXX#X<X3X2X2X1X,XF.;.~ i.K.:X-X-XE.E.Q.} J H ) t.S.y.q.p.8.(.'.).g t y ",
"9.2.s 3 y y s y 3 3 w 0 n n b n n m @.p.j.j.XX<X<X1X2X+Xy.g.+X=X+X+XF.@XZ./ # c t.k.K.!.+X-XU.v._ P # r.U.+XA.N s.n s a s i s y ",
"q d y s f y y y g 9 9 B f.XXXXXX=X+X+Xq.;.;.g.F.F.F.G./ :.b.H.H.U.U.G.L.m.) F ] u.K.!.!.H.J.S.) _ U G E.eX7XJ.( k.0 4 3 s r g 4.",
"6 8 y X.&.%.2.7.O.O.p.p.-.g.,X=X+Xi.~ ~ ;.A.H.k.F.Z.] / Z.J.J.H.J.S.G.n.[ ! { b.b.!.=X!.K.A.b.) E - | :XyXyX7XH.q.@.s a s u h 5.",
"y y t y #.p u 7 @.p.-.-.i.+XG.F.i./ ~ :.G.S.G.D.G.u.v e.G.A.u.u.A.Z.n.r.) H c.S.K.!.-X!.K.A.b.' - = v.rXdXdXeX,Xq.j.6.1.`.5.`.`.",
"2 i $.3.`.=.u b +.-.g.;.Z.G.S.b.W / u.A.G.G.S.G.G.r.^ A.K.S.u.A.J.U.b.[ ) [ ;X:X-X!.!.!.J.S.t.{ - - P.aXdXtXeX>Xe.a.q 3 X.u p u ",
"_.'./.g u y 7 n -.M :.u.u.b.N.' < ) b.P.J.J.@X@XS.( i.u.u.k.A.G.U.U.r.[ ' b.tXtX>XK.k.A.S.Z.[ H D R W.aXiXtXrX>Xk.h.q 3 y 6 6 3 ",
"r a y 2 y 9 9 @.-.( | e.v.r.m.c.! c.U.-X@XD.U.U.b.[ t.i.t.u.S.A.Z.n.] Y ) n.4X7X:XK.B.D.S.n.{ D - R ^.sXsXiXtX9XA.s.V 3 u p s y ",
"a r y y s q b w.M ~ } } t.v.m.[ l.n.S.B.A.S.Z.l.| | ( t.u.u.G.Z.t.r.) S S v.P.W.E.K.E.E.L.n.l.E E } 6XiXaXiXsXiX:Xq.9 d #.2.o.u ",
"/.).}.6.9.d.XXN c ) c.v.u.} x.I { n.N.b.B.v.) H ' ) ) ^ ] r.n.c.c.c._ Z = c.n.n.N.S.T.Y.l.[ l._ D _ L.;XqXtXuXiXeXg.7.,.s 3 d 6 ",
"f g %.2.=.@.q.c W [ ' ` } [ ) P I ' ` [ | ) H { l._ { ) _ [ [ L ! l.{ J % P { ) { r.c.c.P ! _ I E D Y Y ` } P.4X7Xy.+.q 8 3 6 y ",
"t 6 9 9 m @.;.W A I P D ^ ) Q L P U R ' ' P P _ L I I I _ l.z.L ! l._ P D U P R ! l.m.m.l.' z._ P = Z H Y S S ` { -.h.9.2.8.t y ",
"9 7 0 5 5 -.;.J & L L D H J Q Q A P E E z.l.z.z.I Q I K K z.R.z.{ l.Q P I U E _ z.l.l.m._ I z.z.) Z Z S Y * * D F W h.7.3 g 3 6 ",
"7 7 q q b -.W , , % E z.- - Q Q K I _ K A I _ L K z.z., , z.z._ Q ' U L U A E _ I D P Q - - U R Z @ < J Y D D H ! / a.o.1 s y i ",
"p t 3 w 0 ( W < & & - ' - - , L - A L & & , A % & & & , & O % + O % + O - - K & - % % % . O = & + O : @ @ + = = < ] h.,.#.).`.`.",
"X.i 2 4 q w.W & & & - - - O & A , % < % A A P H I R _ I & & - S % O + % U U E U z.z.P K & & D - = J { J S Z D D < W j.6.1.j 2.`.",
"X.t a 1.7.C v % & - - - = o + ' ` R A A L ) Y H H ' c.m.R.z.R S @ o O % D A R z.z.c.l.x.R - = = x J [ W F D H ) F v fXlX*Xg t y ",
"4.h a s ,.<.v F G ^ ] [ ` ^ Z ^ :.:.>.c.>.>.) # F :.u.b.S.u.e.b.r.' D Z { e.] b.v.>.b.v.c.R Z < S t.u.i.r.v.c.v.;.m <...q 8 i y ",
"q f a a 2.h.v H | u.Z.A.t.] H ^ A.Z.Z.G.U.G.>.W ^ A.D.J.@XJ.@XD.P.v.H H u.J.+X-XE.S.S.U.Y.^ o @ ] K.+X+Xi.b.T.U.k.w.q 4 3 g %.*.",
"$.].[. X{.XX~ G u.S.J.B.} T F [ A.U.T.@X@X@XZ.:.] A.@X-XU.-X@XA.N.[ D H b.-X>X>X7XE.D.E.Y.J + H t.S.G.e.z x N.:Xg.XX,.2.%.*.(.].",
"`.{.[. X9.<.N G t.u.b.b.} Y H ' S.A.:.:.:.G.D.:.] G.J.u.e.e.i.@XS.' A J t.+X-XD.S.S.E.qXP.S @ H b.D.G.;.$ # r.-Xw.a.q q u u p p ",
"8 8 r r ..B g.| b.( G ` v.} R ) r.e.^ ~ # e.D.] ~ e.u.] ] ] F L.W.c._ ' b.U.b.~ G S u.4XL.P P ) W.>X-X( X G } E.q.+.5 1 6 u $.4.",
"u s r 2 w 0 g.( S.] * S m.[ P ) >.] ] ] * / S.G T ] e.t.Z.b.F N.~.c.! ) b.-X>XU.r.G N.7XP.{ ) R Q.rX9XK.~ r.t.K.a.B +.d 8 y d #.",
"3 y s r 9 n w.;.U.W.R S L.x.P l.G.n.[ ^ @ | P.G ^ A.D.S.c.F < T.T.' J P ] b.D.D.` Z N.;Xn.R J H U.:X>XH.r.u.D.k.s.B X.%.%.%.&.#.",
"8 s 3 8 8 b m y.b.;XR = Y.n.P c.@X7XP.) < b.rXb.t.8XiXuXN.F < Y.~.} I [ b.A.S.S.x Z P.I.} H D ' 4X9XeXyXrX9XtXi.h.V 8 h ..d p y ",
"s s s 3 w n m -./ L.P + C.V.A _ ~.T.c.Y.' n.pXS.v.tXqXv.T.c.& L.6Xx.) I } D.E.n.x ` qX5Xm.' A [ tXtXtXdXaXiXyXw.a.X.u gXlXgXd y ",
"bXvX*X,.8 9 b -.v V.R * M.M.% A Y.[ H Y.r.m.wXL.c.pXY.* c.m.& M.6Xc.H % H D.;Xb.= m.uX6Xc.[ ) } tXaXdXaXtXiXeXw.h.2.u $.d d 2 y ",
"{.{.%.1 5 5 ..f.c V.x.D M.M.% D 4XM.J ) H n.pXL.| 4X~.` P H D 4X6Xc.A + S D.D.` = W.uX6Xm.Y D v.qXtX9XtXaXtX!.j.OX2.`.4.%.y y i ",
"y y 6 6 u 7  .p.c m.Q.C.^.C.A % I.wXL.m.L.wXpXn.* Q.wXW.n.n.6XwX6X} % O Y B.B.` ' 6X0X^.[ o o P.tX:XQ.5XtXqXg.j.8.i p y d 6 r e ",
"y 3 9 q 6 6  .@.M ` C.C.C.M.S * } Q.I.Q.6X6X~.V.Y Q.^.tXtXaXcXsX0Xx.= O H D.W.:X~.wXsX~.- + = I.qXE.E.:XE.Q.w.s.p t i t 6 u j i ",
"f r 8 6 5 u 8 5 ( ` C.^.~.L.`   ` N.n.v.m.n.T.N.Y B.Q.Q.~.^.W.qXqXC.U + S B.W.6XwX6X0XI.= * H I.qX:X!.E.0XE.v 9.u i t p y 8._._.",
"&.i 8 6 8 y 6 @.y.H x.C.M.m.H   | E.W.D.V.Q.~.N.S B.qXqX~.qX~.E.Q.V.D . * t.Q.P.~.~.Q.M.Y   = N.B.Q.B.Q.;X| > XX].'.{.(.u y j _.",
"'.p y u u 2 p fXk.x * S S H = * Y N.V.N.T.I.P.V.Y Q.E.qXqXE.qX^.5XW.R . * Q.7XqX4X~.~.V.= $ Y v.Q.!.| T ^ v m XX].'.'.'.].`._.'.",
"_.).(.&.g y s +.XXN z c S J P Z D D = + Z _ _ ! A } C.~.Q.Q.C.Q.~.I.=   = ~.0XwXwXwX6XN.H Z W b.B.| * X z z @...u $.3.5.3.y 3.).",
"i i i k 4.4.5.9.$X#XXXg.;./ ^ v F x : : F F : : Z Z D R [ x.R R ` ) Z * - I.6XwX6X6X6Xx.Z Z ^ ) S X X z C <.9.0 u y r r a f 1.k ",
"t t y i f g $.5.5.6.X.9 +.@.p.s.<XXXf.s.g.;.W W / / ^ ) Q J O O o D D D - R ' ' R.x.x.R + % % o X * M q.a.B V d 8 y s s h 1.k a ",
"g %.5.3.5._.3.f f $.2.5..X{.5.8.7  . .X.O.=.p.OXxX1X+X+Xg.-.: > F G Y x * * S S - D = * * # # v z q.s.B B +.7.1.2.$.$.4.).5.1.$.",
"8.`.4.g p g p e t /.'.*.f i p p y g #.%.X. .u X.=.].OXhXlXhX#XXXXXk.k.-.M v C N ( ~ * X # : : / h.<.6.,.V +.6.9.6.o.r y r 8 s s ",
"u p d u 6 e t p t p #.p e e p #.%.%.2.`.`.&.#.$.t u t &.$.&.2.{...+.n n OXXX=X+X<XH.s.-.;.g.k.-.q w w q q w 3 8 h $.g f 3 3 y 8 ",
"8 2 2 y y u t t p t 7 p  .u t u 4.*.%.$.#.X.i i (./.*.%.$.$.k (.].].$.8.fXnXlXlXhXlXlXlXlX3Xh.5 q ,.q 4 s s 3 s 3 h 4.1.s u 6 y ",
"y y 6 6 t p u 7 %.=.%.O.=.O.9 7 6 y u t i %.4.4.%.*./.i y r i i vXvXbX%X%.y p u p ..u +.X.u 6 u kXkX%X6.4 2 s 4 8 2 s y 6 u y $.",
"3 d u 8 s X.u 8 6 9 q q w q w 4 r r a r e f 3.3.y g f s y y 6 8 p j g d u 6 t y 6 6 6 6 f s p y i j j t 2 g #.p s y y y 3 y y y ",
"d g $.%.%.X.u 9 u 8 8 8 3 3 3 3 &.&./. X[./.f a h ).5.1.8 8 y s t 2 2 6 t 6 6 6 y t y #.*XnX%Xj i l /.(.oX%XgXjXy 8 y y y s $.5.",
"o.s g 2.2.%.o.$.o.s 8 3 4 4 3 3 a /._._. X[._.3.3.3.l a s 3.(.4.%.g s 8 u u u u u 6 y u #.%.#.i gXgXvXjX*XoX(.(.f i g $.$.1.2.3.",
"d 1 1 8 y d s p y y y f a 3 3 3 3 a a l /. X X X|. X3.&.k l i i 5.2.o.1.%.%.%.2.y p d #.o.X.%.(.'.'.{.|.oX(.j /.(.2.k d k 4.$.y ",
"$.g s 3 y &.`.`.2 t #.%.h 3 s s #.5.`.5.j i i i _._.f i j p e i u y d %.8.5.%.&.$.&.$.$.l f s r i e i &.{.'.(.'./.j y i 3.`.4.s ",
"`.`.5.s y p d u y p #.*.6.1.8.`.*.`.5.2.&.&.&.f f '.'.'.`.3.#.#.%.%.%.*.8.$.d t u y y #.1.k s y e y i j /.k i l i e i p f g s r ",
"y g 2.(.).(.2.2.%.#.d d p 6 1 u p #.t y i y g 1.&.(./.*.4.5.1.s y 3 3 y s u u t 6 p u y 6 d o.2.4.1.$.h l a l /. X_._./.f e y y ",
"t e i f g i 2 p s y 6 u %.X.5 6 p *.p t p e e i y y e k o.4.1.y 3 y y y y 6 6 y u 6 6 u 9 9 8 d 3 r s s e e i /./.(.).(.&.2.5.3."
};
