/* XPM */
static char *_577c3e1a7004887f964290013b4fbc9RREFXzoDbaLZcjHo[] = {
/* columns rows colors chars-per-pixel */
"64 64 256 2 ",
"   c #2D140A",
".  c #32170D",
"X  c #371B13",
"o  c #2D170C",
"O  c #382617",
"+  c #3C210E",
"@  c #3B2B29",
"#  c #393334",
"$  c #471E0D",
"%  c #491E0D",
"&  c #472619",
"*  c #562918",
"=  c #4A2913",
"-  c #652817",
";  c #762C1A",
":  c #76351D",
">  c #4C2C24",
",  c #472A26",
"<  c #562D29",
"1  c #4B332A",
"2  c #52332D",
"3  c #59342A",
"4  c #493636",
"5  c #543532",
"6  c #5B3533",
"7  c #563A35",
"8  c #5B3B34",
"9  c #543D3B",
"0  c #5C3D3A",
"q  c #54363A",
"w  c #582E32",
"e  c #692D24",
"r  c #66322A",
"t  c #623D35",
"y  c #633D3A",
"u  c #6A3835",
"i  c #753028",
"p  c #5E423D",
"a  c #59433A",
"s  c #4D4135",
"d  c #64423D",
"f  c #6A443D",
"g  c #66463B",
"h  c #724232",
"j  c #293E55",
"k  c #583E42",
"l  c #4A3D43",
"z  c #603D43",
"x  c #2D455C",
"c  c #2E4A5E",
"v  c #2C4455",
"b  c #334554",
"n  c #32465C",
"m  c #344A5C",
"M  c #3A4C5C",
"N  c #394857",
"B  c #3B505D",
"V  c #3B434C",
"C  c #2D4A63",
"Z  c #2E4763",
"A  c #344C63",
"S  c #3A4D64",
"D  c #344D69",
"F  c #354A65",
"G  c #2E5169",
"H  c #365165",
"J  c #3A5165",
"K  c #35526A",
"L  c #3B536B",
"P  c #3E596D",
"I  c #3C5571",
"U  c #3E5A72",
"Y  c #345571",
"T  c #2F5370",
"R  c #3C6078",
"E  c #4D4446",
"W  c #5A4444",
"Q  c #59474A",
"!  c #424A56",
"~  c #434D5B",
"^  c #474A57",
"/  c #554C52",
"(  c #43515D",
")  c #4C535C",
"_  c #58545A",
"`  c #644542",
"'  c #6B4543",
"]  c #654A44",
"[  c #6B4B45",
"{  c #654B49",
"}  c #6C4C49",
"|  c #6A4549",
" . c #744E4B",
".. c #754A46",
"X. c #6C524C",
"o. c #66524C",
"O. c #72534D",
"+. c #79564D",
"@. c #624C53",
"#. c #6D5552",
"$. c #6E5A54",
"%. c #665759",
"&. c #735551",
"*. c #745A55",
"=. c #7B5C55",
"-. c #745E5A",
";. c #7B5D5A",
":. c #795452",
">. c #724B50",
",. c #75635C",
"<. c #7B635D",
"1. c #776156",
"2. c #71615A",
"3. c #445463",
"4. c #4B5462",
"5. c #42566B",
"6. c #435A6D",
"7. c #4A5C6D",
"8. c #495864",
"9. c #5C5B63",
"0. c #535D6B",
"q. c #555A65",
"w. c #445C73",
"e. c #4A5E74",
"r. c #455E7A",
"t. c #495D78",
"y. c #495469",
"u. c #625B63",
"i. c #675B65",
"p. c #745E61",
"a. c #5C626C",
"s. c #56626C",
"d. c #466176",
"f. c #4B6175",
"g. c #45627B",
"h. c #4B647B",
"j. c #4C6A7E",
"k. c #526373",
"l. c #5A6B7B",
"z. c #566678",
"x. c #4C606E",
"c. c #64646C",
"v. c #696367",
"b. c #7C6561",
"n. c #7D6A64",
"m. c #776868",
"M. c #7D716C",
"N. c #656C74",
"B. c #6D6C75",
"V. c #676977",
"C. c #746C76",
"Z. c #6D727A",
"A. c #77747A",
"S. c #872C19",
"D. c #88321B",
"F. c #973519",
"G. c #992D1B",
"H. c #AA2C1C",
"J. c #BB291D",
"K. c #A5361B",
"L. c #B83D1C",
"P. c #972E23",
"I. c #883222",
"U. c #993422",
"Y. c #832D21",
"T. c #BB2C22",
"R. c #AA3121",
"E. c #B73122",
"W. c #A82F24",
"Q. c #CB3928",
"!. c #C1291E",
"~. c #8E4C2B",
"^. c #B24B26",
"/. c #A9633B",
"(. c #B4401B",
"). c #CF4A30",
"_. c #815E5B",
"`. c #82635D",
"'. c #86695C",
"]. c #957151",
"[. c #AD6D49",
"{. c #836663",
"}. c #846A64",
"|. c #8B6B64",
" X c #836D6A",
".X c #8B6D6B",
"XX c #8B6663",
"oX c #926E68",
"OX c #85726C",
"+X c #8B746C",
"@X c #8A7367",
"#X c #92746C",
"$X c #95776D",
"%X c #8D7B74",
"&X c #877674",
"*X c #937C74",
"=X c #997C75",
"-X c #997B76",
";X c #836F70",
":X c #A27E7B",
">X c #A27F63",
",X c #CF6E4B",
"<X c #E3664E",
"1X c #95837B",
"2X c #9C837B",
"3X c #998276",
"4X c #8D807A",
"5X c #A4847C",
"6X c #AF8E73",
"7X c #F1876C",
"8X c #CC886C",
"9X c #4B6582",
"0X c #4D6A83",
"qX c #476783",
"wX c #536B83",
"eX c #536E8B",
"rX c #566984",
"tX c #55718B",
"yX c #5A7388",
"uX c #5A7693",
"iX c #4A7182",
"pX c #7A7984",
"aX c #65788E",
"sX c #475F81",
"dX c #867F87",
"fX c #788894",
"gX c #7A93AB",
"hX c #7A93AE",
"jX c #898485",
"kX c #919096",
"lX c #A58882",
"zX c #B08F89",
"xX c #859CB6",
"cX c #8A97A8",
"vX c #8AA4BC",
"bX c #9DA5B4",
"nX c #B5ADA4",
"mX c #CAAC97",
"MX c #EBAF92",
"NX c #D9BCB4",
"BX c #CFB9AC",
"VX c #DCAE9E",
"CX c #D9C3B6",
"ZX c #F6CAB6",
"AX c #88A6C1",
"SX c #92ADC4",
"DX c #A0B2C8",
"FX c #EAD3C6",
"GX c #F9D9CB",
"HX c #F7DBD3",
"JX c #EBCEC5",
"KX c #FEE4D3",
"LX c #FCE8DB",
"PX c #F6E4CC",
"IX c #FFECE3",
"UX c #FFF0E8",
/* pixels */
"h.d.e.h.h.f.f.d.A m c A H H D K g.j.t.F Z F S F x D I D K A Z A Z m m c x H g.h.r.g.g.w.w.d.9X0XiXR Y T T T T Y Y K A D I 9XtXrX",
"A A A H H m m H A c A L w.9XwXtXwXwXh.5.F F D K w.t.wXt.A x x A n A A D C A H c C j F r.w.L U K K uXfXqXqXqXqXqXqXeXtXwXt.5.A F ",
"C A c x c m H H wXl.l.h.w.A c c A A L d.rXwXwXj.g.L L L A H L H A D U 0XqXqX0XeX0XD r.hXAXAXAXAXvXAXhXR I L I U r.j.6.S J m Z A ",
"c A A A J 6.d.f.f.h.h.h.w.L S F A C A L L A A K L K d.0X0XwX0XwX9Xr.tXxXSXAXAXvXAXeXU 9XqXT K I L D 9XhXxXvXvXxXvXgXd.n m n H m ",
"d.h.g.d.P K m H A m m A J 6.e.e.e.w.d.g.P A L h.j.h.w.A A A L j.aXh.K L U U wXuXuXj.L F Z x K t.rXz.rXrXd.5.L P P 6.c n H m m v ",
"A A H m H H H c A H A m n F S S A A A L H m m H H H c v m C Z S Z L h.rXw.A A H m A F A A Z m L D L D Z v c x A c c m A m n m m ",
"A A A c H 6.d.6.d.f.h.P A A A A F A F Z A A F Z n A A A A F A A A A A L S S J S S m m n m M N n A C C C D L A H A A F A n S m B ",
"m d.h.K c H K K H H A K r.wXrX0Xt.h.t.w.D F F Z S A F A n L h.rXj.K A w.e.w.f.d.e.H A S n M S S H G U h.e.g.rXwXwXwXh.t.h.h.e.d.",
"m H H c c K j.tX0XtXqXK C A G D D D D L D S S L rXrXrXJ x S L A A c Z C L 5.t.j.h.f.d.f.d.e.f.e.t.5.H M m M B B m D w.h.e.5.S n ",
"B x.j.yXyX0XtXtXtXqXG x C A D A n j.rXj.wXwXj.rXwXrXyXj.S A n m c A L e.e.e.e.f.e.6.J m m M S N ~ ~ ~ ~ ) ) 8.( b N A A L L F S ",
"m J P x.j.d.g.g.g.0X9Xg.r.e.h.w.d.J N m S J J m m M 7.7.7.7.x.h.x.f.x.s.k.0.4.! B s.l.s.y.4.0.9.c.B.C.C.C.u._ c.4.N n v m M N m ",
"f.d.P K C c C C G U U f.5.n n N b N M M b N ( N ( M M M ~ 8.0.z.N.a.9.q.c.B.B.N.9.9.N.fXkXkXkXkXdXm.o.E a Q / _ N.! b b m J A v ",
"K K c c A L L c c 5.L S b M 4.~ ^ ) ) q.a.N.V.V.N.Z.Z.fXpXN.N.Z.jXjXjXjX%Xm.@./ %.M.&X4XjX4X%XM.>.{ 0 0 [ *.o.E 9.0.M 3.6.e.e.J ",
"c m A L g.0Xj.H n 5.k.0.0.pXjXdXpXdXdXA.v._ v.A.&XjXA.2.%.i.M.M.M.M.OX X*.W { -.n.M.4XOX4XOX{.} 0 6 y =.oX@X<.%./ V.k.e.wXd.d.e.",
"U 9X0Xj.U K H A n 0.cXbXdXB.V.A.dXm.%.Q %.m.&Xm.;X;X$.Q #.m.;Xm.M.OX}.-.| ` *.&XOX4XM.OXn.n.1.] a 2 ] .X5X#Xn.i.^ Z.l.t.sXI D F ",
"g.9X9Xg.g.w.d.e.N M u.9./ i.m.m.p.#.` {  X.X{..X.X;.| &.b.;.;.b.,.n.1.] ` *.+X-X@Xn.1.n.n.$.[ 8 5 d '.2X3X*X%XM._ q.V.yXsXw.S Z ",
"rXz.D F D G H m ^ 9.E Q $.#.-.*.>.{ #.-.b.,.;.;. . .} X.#.$.b.-.,.&.' 6 0 #.n. Xn.;.'.<.*.O.y ` 0 [ $X2XlX4X4X%X%.E s.B m H K A ",
"S F Z Z K C N ( c.Q W  .&.*.*.} d 0 { #.&.>.| | ' f ` ] o.#.-.:.X. .' 6 0 #.,.*.=.<.`.+.[ } ' y W <.2X2X%XlXjX4XM.Q _ B c C L h.",
"F S 5.5.f.8.s.A.%.k d ..' ' y ` 0 y d } [ ' ' ' f d d a ] [ ' f ..g t 3 7 d ' ' [ +.+.f g [ ' u ` <.2X2X1X1XjX%XM./ a.8.L H I rX",
"F n n N 8.( v.v.{ 0 y y y y y ` t t y d d ' ' ' f g 8 8 [ +.' u ..f g d d d z ....+...[ ..' f 6 0 [ {.2XlX-X*X%XOX%.Z.s.h.0Xj.rX",
"G G L x.l.a.A.@.k 7 y ..f t d t t u d d d g g t f f t r u ..h ....f g y z >.>.| ' >...` f +...< 5 7 g {.2X2X*X%X+X%.v.( H L L J ",
"j.j.d.P M ~ V.u./ a 2 8 t > * < e r 3 & > 1 < > < e e * e e i i i u r u u i i u e u < < t g y 3 2 2 8 ] {.1XlX2X4X,.9.N n c v n ",
"G c K C v n 5.4.a._ 4 @ & = $ * * = = + + + $ = * - ; i ; ; i Y.Y.S.P.P.S.S.; S.; ; - - * 1 > > 2 7 2 8 d <.-X2X*X,._ ( S K A A ",
"H c A C D I x D B ) Z.u.1 , & * * = $ = = $ % - i i ; I.I.Y.I.G.P.W.E.H.H.H.K.K.G.S.; ; * 3 = > 2 5 6 d 2 a b.-X1Xn._ ( 6.g.e.M ",
"j.j.j.yXeXeXrX9Xj.l.8.^ u.%.9 2 = % * * = - - ; D.S.S.F.F.G.H.H.E.E.J.J.J.J.E.H.H.G.G.S.; - * = > > 6 8 7 1 p ;.-XOXu.0.L x H x ",
"B P d.h.h.e.I I eXyXe.N ! ) 9.m.g < = 3 * - ; D.F.D.F.K.K.K.H.E.E.T.!.!.!.!.J.H.H.K.F.S.; : - * & X O 3 8 5 7 ` ;.n.i.V j c H m ",
"x A S J S A c c c H D F n n M ( 9.A.%.a a h : ~.F.F.K.(.(.L.L.!.).).).).).Q.Q.Q.L.K.F.D.D.; * % $ X . X , 7 q 6 a { v.V.h.j.x m ",
"S m n v b n M B A A A A H H n b N ~ ) Z.OX1.~.~.~.^.^.^.).).).,X<X<X7X7X<X<X).).).^.F.~.: - % $ X X .   . , w z 2 4 9.0.A P x m ",
"n N M M m m v v v v x N N ~ B ! N ~ q.N.v.n.3X[./.,X8X,X,X,X7X7XMXZXZXZXJX<X<X).^.^.~.~.: = = O O X o X   X , w q q u.y.x A D H ",
"F F m n b m N M ( ( ~ ^ ^ ) _ a.B.pXkXbXnXCXBX6X6X7XMX7X7XMXMXZXGXLXIXKXGXMX8X,X/./.~.h h a 1 O O o o o       X 1 k u.0.h.g.wXj.",
"y.F c N B 8.s.V.pXpXC.i.@.W 4 s p 1.BXLXLXLXPXmXZXPXPXPXPXPXPXKXIXLXIXKXGXCXNXMXmX6X].6X6X].s = O o               4 i.z.e.I j.rX",
"D A A d.l.N._ / Q @.k w w , & , 3 1.mXZXPXPXZXNXFXLXUXLXLXFXPXUXIXGXIXHXKXHXGXLXPXmX6XBXZXmX$.1 O o           X X , A.bXgXI Z A ",
"g.R A J z.N.l q q 0 q 0 , < d 7 3 g  .`.XX$X5XlXmXBXNXCXZXNXJXHXKXJXIXLXLXLXFXLXLXBXnXFXJX2Xg 1 O O o X , & , 5 1 @ N.3.H A S F ",
"A L C H k.V.Q 9 ` } { { z w d [ d 3 6 y y f ..} ' X...X.:._.XXXX$XlXBXBXBXCXCXFXHXCXBXGXBX|.a 1 , 1 7 7 6 y ' W 9 l ( b m D t.h.",
"d.wXwXwXyXpX%.{ ;.<.<.-.>.y d X.+.X.} } [ y a ` &.>.| d 0 6 w > < ' =.;.=.} %.b.#X.X:XzXoXf 8 8 a 7 7 9 k } &.;.%.v.s.f.t.9X9XrX",
"wXtXtXrXl.N.%.Q *.<. Xb.>.` ] *.<.,.b.}.*.0 7 { -.*.*.*.} k q < < u 0 0 ` | } } 0 < y y u 6 t d ] 7 W { #.b.{.;X_ _ B m A D L S ",
"K H H A B ) v.@.,.<.n.,.] 0 { ,.OXn.M.OXn.{ W -. XOX X Xb._.p.z u ` X.g { >.#.} } 0 y 6 t 6 g ] o.#.$.o.%. X&X X/ ! N x x D r.9X",
"c n m n N ^ C.o.OX<.1.,.;.] ] ,.n.,.M.n.M.-.o.b. Xn. X X X.XXX| 0 [ b.n. X{.;.;.-.#.` 6 w 0 X.1.,.2.W 1 4 -.&Xm._ ~ 3.S C G I I ",
"A A A A N M _ %.m.$.a ] ;.] W #.,.m.m.n.OX-.Q -.n.&X&X X X.X;.` k } n.%X*XOXn.n.OX}.{ 5 7 ` -.,.,.Q @ @ 9 -.&Xv.a.( 6.e.w.U t.t.",
"A n c m N N ^ B.m.%Xo.] ;.[ ` ;.2.$.$.#.m.$.a X.m. Xn.{..X;X{.` 0 X.n.M.&X&XOX XOX X7 2 0 #.n.,.m.o.1 a o.m.M._ _ N N 5.U L F Z ",
"H H P c m M ^ Z.%. X&.d |.O.| XX}.#.b.*.` &.9 X.-.,.-.}.&.,..X&.{ #.n.n.<.OX X+X*X{.q 0 d ;.&XOX%X<.] #.2.m.;X_ N B 3.xXAXxXS n ",
"vXvXfXP m N ! c.E p.} t '.} ' XX2X3X.X>.} {.} |.+X;.-.b.] X.{.O.0 }  XOX-.X.X.,.-X{.0 d ' {.*X%XOX<.$.1.M.%Xm._ s.x.S 5.5.L n F ",
"yXyXd.c x n M q./ b.:.f XX+.u  .:XlX.X .`.-X&.+XlX2X3X<.p &.{.' ' &.,.{.n.#.[ O.#X{.' ` ' {.@X%X4X4X*X@X3X4Xv.Z.z.k.l.h.e.A S S ",
"B c c B S N N ! u.p.:.u '._.< :.:X#XoXXX_.$X:.XXlXzX2X:.8 ;.=XO.' &.,.n.}.;.} =..X*.' 0 ] }.@X%X4X3X2X2X3X4X%.A.l.J A A S x F n ",
"A v m S n n S ~ B.@.:.+.'.`.6 &.|.[ ;.`....X:.|.5X=X}.`.` ..oXO.z ` <.OXOX*.] `.+XO.d 7 } 3X1X4X1X3X3X3X3Xn.^ M F Z D Z F S L F ",
"K A A A n A A b Z.k .X:X@X{.z k {.[ [ } ' |.} } -X:.] {.} [ oX:.d 7 *.OX+X*.g #X$X;.[ 8 X.=X3X4X4X4X3X3X@Xv./ N F T Z T F 9XwXwX",
"w.A M m F F c 3.c.l =.#XoX1.p 5 }.;.X.] :.#X&.O.-X<.` &.' O.#X .6 2 &.{.'.[ ] 5X$X=.[ 8 O.#X%XOXn.M.@X@X{.o.i.rXrXeXeXeXD F I 0X",
"rXL A Z S c K cXZ._ 9 p #.[ q q <.+X@X`.@X+X:.[ |.+X+. .=.-X:X .< 6 -.{.`.[ +.5X$X+.t t =.-X%Xn.n.<.OX@X<.E q.rXrXeXeXeXeX0XeXeX",
"j.0X0Xd.K D K J z.c.E k k k z k X.<.{.}.@X@X1.g #X3X@X$X3X*X*X;.6 6 :.#X`.[ |.6X$Xf > 6 <.-X*X,.'.1.<.$.E # s.3.F r.g.qXR G g.j.",
"H A H U g.qX0XwXrXaXaXC.v.@.k k W q 7 p O.+.X.[ '.2X2X3X@X%X%X;.` > X.@X*X$X-X3XoXt 6 3 {.}.1.OXO.g a 4 # V ~ M A A C Z K K d.U ",
"Z F G D K Y R qXj.h.5.B ( q.V.C.i.k 9 9 W 0 0 | _.|.#X#X#X$X3X<.6 & O.@X@X@X@X@X'.p 7 a *.-.,.$.a 1 # s _ q.( J A A A A U d.P K ",
"L t.9X9X0X0XqXY D w.j.j.l.rXl.k.! 9.Z.C.%.Q k k 0 d O.=.=.=.'._.8 & 1.3X3X1X*X@X1.a & a X.$.2.s @ # / N.) ) z.6.j.w.r.h.j.j.d.6.",
"rXrXh.5.D I D Z D r.eX9XL A H J J 8.x.s.N.B.B.v.%.@.} { 6 6 y t 6 2 +.*X2X3X1X=X=.8 < p { p , @ V a.N.9.8.8.z.yXh.6.Z A A A S S ",
"F S L S x x A D C F L F c j F e.6.e.d.f.h.f.k.0.c.B.C.%.k 4 0 k d 8 7 O.`.|.@X$X+.g 8 7 q @ 4 E a.V ( B B b m m 5.e.L S n x F n ",
"F x v m A S m m S S S ~ y.F F S k.d.e.e.6.P H H j.k.z.l.pXA.N.u.Q Q q W 0 0 '  .y 6 2 5 4 l u.9.) B 6.v m B B H A 6.h.e.S S n S ",
"n N b n m M M N 7.k.e.y.t.0.S N m A A c H w.g.r.r.h.6.J m m ( a.bXjXi./ Q ` d 6 5 6 q 4 / i.^ 4.cXSXgXP c c c c A c L D n S A t.",
"c M J n B 6.B m N m B B m m m c A c C C c K sXsXZ I F F A m m N ~ y.q.c.C.C.#.k 9 4 l 9.i.y.( D L K U C x K U A A A H A c C H A ",
"L L e.e.x.3.m n B m m m c c c c U r.h.tXtX9XI D I rXeXr.A A A A n N N N ^ ) i.c.c.N.V.z.cXDXgXI K I r.0XuXhXvXvXA C c H A J w.h.",
"w.D L t.d.e.5.e.P m m c c c c c D 9XeXrXeXuXsXsXsXsXI I L r.wXh.t.L A m S ( S ( 3.3.J S L w.I C xXhXAXAXhXuX9Xh.K A L U U d.d.g.",
"L Z Z F A H H L H A H K c c c c Z D D I 0XeXeXuXuXeXr.r.5.L S A t.t.w.d.h.t.t.g.m n A P w.U t.h.uXtXuXaXuX0XU 9X0Xg.P K U j.d.m ",
"r.I D Z F r.rXwXn Z L t.P c B H w.0XwX9XI G G C eX0XY D L A n A L K L h.h.h.e.g.d.d.d.L A F F n F Z D r.eXeXqXeXg.K A D d.wXj.m ",
"9XrX9XK A L L F F S 6.e.d.d.h.wXh.tXqXg.sXqXU G T 0XwXeX9Xr.I w.e.5.w.h.h.t.H x H H H P e.e.S S A Z D U 9XU D Y T C D K K L K c ",
"m P h.h.j.j.g.d.t.6.L L J n v A H K c A D C L e.t.9Xg.h.9X0Xr.D C A A F S M M m b m m M A L 6.e.h.d.w.I T D K qXeX0XrXt.D n m H ",
"c v m K L A x L A F n S e.L m m H d.H m A x n S S S Z I U qXqXG C C A c m m m N m B n m n A F S A A K A C C K g.qXqX0X0Xt.f.h.h."
};
