/* XPM */
static char *_a6300a65ad14322f8c200aa07f51c02kwJA05VWyHFYATYx[] = {
/* columns rows colors chars-per-pixel */
"64 64 235 2 ",
"   c #0C170C",
".  c #141B0D",
"X  c #191D0E",
"o  c #151A09",
"O  c #0D1916",
"+  c #141B15",
"@  c #131D1B",
"#  c #1B1C1C",
"$  c #161915",
"%  c #1D2508",
"&  c #1A2414",
"*  c #14221B",
"=  c #1B241C",
"-  c #1B2716",
";  c #23290C",
":  c #222B14",
">  c #23231D",
",  c #232B1B",
"<  c #262814",
"1  c #2A331A",
"2  c #2A3519",
"3  c #323B1C",
"4  c #373A18",
"5  c #30350F",
"6  c #141D23",
"7  c #1A1D23",
"8  c #191E2A",
"9  c #0F1A20",
"0  c #162224",
"q  c #1B2424",
"w  c #152229",
"e  c #1B242B",
"r  c #1E2B2D",
"t  c #1C2A23",
"y  c #1D2934",
"u  c #222421",
"i  c #222B23",
"p  c #232B2D",
"a  c #282A29",
"s  c #2C3725",
"d  c #343C24",
"f  c #373C2B",
"g  c #222C34",
"h  c #292B33",
"j  c #222C3B",
"k  c #252732",
"l  c #26323B",
"z  c #29343B",
"x  c #283536",
"c  c #343B36",
"v  c #2F491C",
"b  c #3B431C",
"n  c #3B471A",
"m  c #3D4B15",
"M  c #2D4A26",
"N  c #344323",
"B  c #3B4324",
"V  c #3B4B23",
"C  c #3C452C",
"Z  c #3C4D29",
"A  c #344B26",
"S  c #3A5229",
"D  c #3B4535",
"F  c #3B5234",
"G  c #2D4A34",
"H  c #444D1C",
"J  c #434A19",
"K  c #46521B",
"L  c #4B551C",
"P  c #4B561A",
"I  c #535F1D",
"U  c #59661A",
"Y  c #65751D",
"T  c #434C22",
"R  c #484E2B",
"E  c #464D29",
"W  c #4A5323",
"Q  c #4B532B",
"!  c #465527",
"~  c #525B28",
"^  c #434A36",
"/  c #455533",
"(  c #4A5434",
")  c #495736",
"_  c #525B36",
"`  c #5B642B",
"'  c #5C6826",
"]  c #5B6333",
"[  c #586937",
"{  c #49653F",
"}  c #6A7728",
"|  c #737C2F",
" . c #626C34",
".. c #646C3D",
"X. c #6A7433",
"o. c #6B7838",
"O. c #737D33",
"+. c #727C3B",
"@. c #7A7D36",
"#. c #606B27",
"$. c #242E41",
"%. c #2A3542",
"&. c #2D3A44",
"*. c #2D3B4B",
"=. c #263241",
"-. c #313D4B",
";. c #303945",
":. c #313E53",
">. c #2F454D",
",. c #32424D",
"<. c #39444C",
"1. c #3A4647",
"2. c #2C4455",
"3. c #2D455C",
"4. c #2E485D",
"5. c #2C4657",
"6. c #344454",
"7. c #394554",
"8. c #334A55",
"9. c #3A4B55",
"0. c #32465C",
"q. c #39455B",
"w. c #334A5D",
"e. c #3A4C5C",
"r. c #3D505B",
"t. c #35505D",
"y. c #385841",
"u. c #2E4762",
"i. c #2E4961",
"p. c #344C63",
"a. c #394E63",
"s. c #344E69",
"d. c #3B4E69",
"f. c #364764",
"g. c #365065",
"h. c #3B5265",
"j. c #36516A",
"k. c #3B546B",
"l. c #3E586D",
"z. c #3F5B67",
"x. c #3C5471",
"c. c #3E5A71",
"v. c #3B5476",
"b. c #444A43",
"n. c #434A53",
"m. c #41535F",
"M. c #525F43",
"N. c #496848",
"B. c #5E6741",
"V. c #577657",
"C. c #697743",
"Z. c #727D41",
"A. c #435464",
"S. c #42556B",
"D. c #435A6D",
"F. c #4A5C6C",
"G. c #475867",
"H. c #445C73",
"J. c #495E74",
"K. c #445E79",
"L. c #4C5C7D",
"P. c #414F6A",
"I. c #50626E",
"U. c #5A7B67",
"Y. c #466076",
"T. c #4B6275",
"R. c #46627B",
"E. c #4B647B",
"W. c #4E687E",
"Q. c #536475",
"!. c #596B75",
"~. c #52657C",
"^. c #536A7D",
"/. c #5A6C7C",
"(. c #56687B",
"). c #5B707E",
"_. c #4A606D",
"`. c #61717F",
"'. c #75822C",
"]. c #79822F",
"[. c #79843B",
"{. c #798737",
"}. c #7C8944",
"|. c #788448",
" X c #67896E",
".X c #88963B",
"XX c #818D48",
"oX c #8A9748",
"OX c #939E57",
"+X c #909E49",
"@X c #99A74C",
"#X c #95A253",
"$X c #445C80",
"%X c #4B6581",
"&X c #4E6982",
"*X c #496583",
"=X c #516681",
"-X c #536C83",
";X c #5B6E84",
":X c #546E8A",
">X c #5D6F89",
",X c #557185",
"<X c #5C7284",
"1X c #55718A",
"2X c #5B738A",
"3X c #5C798B",
"4X c #5E7992",
"5X c #5A7590",
"6X c #627484",
"7X c #62758C",
"8X c #647A8C",
"9X c #6A7D8D",
"0X c #667986",
"qX c #637B93",
"wX c #6A7D92",
"eX c #677B98",
"rX c #717FA2",
"tX c #6B839B",
"yX c #6A8495",
"uX c #73889B",
"iX c #748AA5",
"pX c #7A94AC",
"aX c #7993AA",
"sX c #8298AD",
"dX c #829CB3",
"fX c #879EB6",
"gX c #808FB0",
"hX c #8AA4BC",
"jX c #8EAABE",
"kX c #87A3B6",
"lX c #92A8BC",
"zX c #8EA7C2",
"xX c #92ABC4",
"cX c #97AAC4",
"vX c #97B0C6",
/* pixels */
"T.Y.Y.T.E.E.Y.Y.g.0.4.p.g.g.p.j.W.*X$Xs.3.5.8.8.2.h.t.g.j.j.u.i.t.z.l.w.4.l.3XE.Y.H.%XK.v.:X*X&X:XK.j.s.s.s.j.j.c.i.g.j.k.W.,X-X",
"p.p.t.g.p.p.p.p.p.4.w.k.Y.E.-X<XW.&X$XH.j.p.a.h.l.Y.,X^.i.:.u.i.h.&X^.T.,X,X,Xg.j.2.s.K.v.v.x.v.k.5XeX*X*X&X*X*XR.1X1X&XY.j.s.4.",
"w.w.0.5.4.w.g.j.,X-X^.E.c.a.4.5.0.j.k.R.-X&XW.*XE.D.t.h.g.p.A.h.g.j.J.^.,X9XyXW.&Xs.c.aXhXzXxXhXzXxXiX*Xk.x.x.c.K.&Xc.j.j.p.0.p.",
"4.4.p.a.k.D.Y.Y.R.E.W.E.H.j.a.a.g.3.p.k.S.a.s.d.x.j.^.^.^.-X^.=X&XH.<XsXlXjXkXkXkX3Xc.W.K.s.d.x.j.j.&XaXhXhXhXfXhXpXR.4.p.4.a.a.",
"Y.E.E.Y.l.h.p.p.p.4.0.j.k.H.H.H.T.D.Y._.z.w.x.*X%XtX<XA.T.^.7XqXrXrX7XT.A.D.^.uXaX,Xt.t.0.5.a.J.-XW.-X:XE.k.k.k.k.c.4.f.p.0.p.:.",
"g.p.i.t.g.j.g.4.p.g.j.0.i.i.a.g.w.w.h.z.w.0.k.E.:X2XD.F./.S.S.H.L.P.J.<X8XW.h.h.T.W.z.8.w.9.a.d.a.k.a.3.3.3.3.p.3.0.p.p.e.0.a.p.",
"i.g.4.4.j.Y.Y.Y.Y.Y.Y.c.j.p.s.p.p.i.i.w.8.g.T.-Xf.p.<XF.*.q.&.y k j ,.:.a.J.W.g.k.-X<Xt.8.8.f.0.p.0.p.p.a.k.a.a.d.a.a.e.0.e.e.p.",
"g.Y.R.k.4.p.g.g.g.g.p.j.H.-X-X&XL.W.E.D.g.t.k.g.D.<XG.6.*.y t f s s g j 6.9.W.,XD.l._.w.r.w.f.d.p.e.S.E.H.E.-X=X^.-XE.J.T.J.F.J.",
"i.j.g.t.p.l.W.,X&X,XE.s.4.p.g.g.j.s.k.s.s.W.k.H.wXe.e.*.%.x N ! K T D z =.q.0.8X/.-X8X2XJ.J.L.=XJ.D.a.p.a.p.p.j.p.d.H.J.F.S.e.0.",
"g.Y.W.,X-XW.,X,X-XW.l.i.i.p.i.3.5.&X:XR.2X-XE.uXT.e.*.%.1.c C.}.XX|.^ 1.*.$.6.r.).9X-X-Xa.p.d.f.f.p.e.p.e.0.5.p.3.0.p.a.g.h.a.e.",
"g.k.l.R.E.R.E.R.W.&XY.H.Y.c.R.R.R.g.i.g.S.g./.G.9.l y -.n.D C.[.{.}.( b.n.$.y z 7.Q.J.(.h.e.g.4.e.0.0.0.a.a.i.0.p.p.0.0.q.p.a.0.",
"Y.Y.l.g.t.4.i.p.p.c.H.Y.l.p.p.4.5.5.g.4.:.e.6X,.r O p <.n.b.W ' } U ^ b.n.&.O 0 z m.(.m.8.8.w.8.p.a.s.D.J.H.k.a.p.p.3.0.p.a.e.0.",
"g.j.i.4.a.k.k.4.4.k.j.i.3.4.k.l.z.t.z.g.A.F.F.z   & D c 1.^ 4 |.XXU B ^ c c x   @ *./.m.9.9.8.8.5.0.p.s.k.H.K.H.a.j.a.j.H.H.H.D.",
"5.i.i.z.Y.-XR.j.i.k.E.W.&XqXpXjXjXpXjXxXsXuXG.k   - C s D B L XX#X' T C c f C o 6 6.I.A.,.>.8.0.a.a.0.4.a.k.R.E.Y.H.H.K.E.E.J.H.",
"z.W.&XW.l.j.j.p.4.R.pXxXjXpXqX1X1XyX4X:XeXgXP.l   ; b V / ! } {..X'.] E E 4 4 o @ 7.G.>Xh.e.p.4.H.H.R.E.K.T.H.j.%XW.&XW.R.k.d.p.",
"H.W.W.E.Y.D.Y.Y.j.3.l.l.k.l.g.i.i.i.u.d.:XrXP.=.O 3 n ~ ` ' '..X{.{.o.] _ J T & O ;.P.wXQ.D.s.3.p.k.H.E.H.R.W.K.R.R.-X-XW.x.p.3.",
"&XW.h.w.t.w.h.t.0.w.5.e.p.w.p.0.s.4.8.8.F./.q.j + d T P ' {.Y .X@X'.X.+.' J W & + z P.6Xr.w.a.d.a.p.e.p.w.j.g.w.i.g.g.s.s.g.s.i.",
"t.g.0.w.e.w.p.e.a.e.e.h.D.Y.D.j.a.p.r.8.A._.:.y # 2 H P } '.Y {..X| X.@.U J T % + g q.wX_.G.K.$XJ.k.h.p.j.p.4.g.j.4.4.i.4.t.l.E.",
"4.i.g.l.T.T.T.T.J.H.J.a.e.j.0.p.f.3.w.9.F.F.-.@ $ d E ' oX{.U #.} U #.oX[.I J > @ g q.wXT.E.K.s.p.D.^.-XW.-XW.&XE.k.g.g.j.p.l.W.",
"p.p.4.j.S.h.e.0.D.S.H.J.H.c.s.4.p.p.w.8.S.m.*.6 * B W X.oX+X'.X.} Y .X@XoXI W , @ l a.9Xa.j.x.u.0.h.Y.h.0.j.j.k.,X&XW.W.E.W.^.,X",
"3.s.c.K.W.E.k.f.s.a.p.s.s.p.s.s.g.w.4.0.T.G.7.6 = 3 W '..X+X+X| Y .X@X@X.XU Q - q l e.7Xp.5.a.j.a.p.j.j.g.g.4.4.4.s.a.a.h.g.h.a.",
"-X-XE.k.s.a.0.3.0.H.H.J.H.H.&XW.W.Y.k.k.-XA.,.6 i 4 P {.@X.X.X@.].{.{.+X.XU H i g l e.^.D.w.w.5.3.3.k.H.W.E.k.p.p.i.p.4.4.5.0.0.",
"u.f.a.u.u.p.3.p.f.p.a.p.a.s.k.a.w.l.E.-XtXA.,.w & d K XXXXJ % % ; % 5  .oXU b i 0 %.A.Q.^.k.D.l.g.4.i.p.H.-X-X-Xi.s.p.p.p.h.a.w.",
"a.p.p.u.a.d.p.s.s.k.W.-X-X-XE.-X-X&Xv.c.9XA.,.w > d L +.J o < $ o & X ;  .' _ , t y 9._.yX,XyXuXW.j.4.j.H.E.Y.R.i.p.a.g.D.~.D.p.",
"W.E.^.,X,X,X^.-X^.^.H.p.j.w.g.h.k.x.*X:XyX9.>.w t 2 L  .% > 7 k k # u X T ` T < e &.0.J.iX=XtXuXW.W.W.c.g.g.W.W.Y.Y.Y.Y.h.3.p.0.",
"j.k.D.T.Y.H.j.p.,X-XY.p.w.4.g.l.c.K.v.v.).A.9.y = 3 K ..> # k k k h 7   Q ~ b < p y w.~.=Xk.qX3X-XW.j.j.&XW.W.R.R.g.p.4.4.w.w.p.",
"8.w.g.g.g.w.p.w.t.g.p.0.w.w.0.p.c.*X*XK.<XI.:.8 q B P  .X # > a a p 7 $ W ` W : 7 y q.L.=XJ.3X3Xg.g.i.3.g.i.i.j.g.k.W.,XW.E.p.w.",
"w.w.w.5.4.4.0.p.4.p.w.w.g.t.0.3.3.f.d.x.6X/.q.y i 3 ~  .; > > s a i a $ E ] R : i ;.a.J.9XQ.(.^.k.i.j.z.j.c.R.Y.H.R.R.H.4.k.4.0.",
"0.w.a.p.p.0.4.p.p.4.5.0.0.p.e.p.0.d.=X-X0XG.:.w i 1 W ..< X > $ # 7 $ o _ _ J < = l A.(.yX(.2X1XE.H.Y.Y.l.g.t.i.i.j.g.k.3.g.g.j.",
"e.w.0.0.0.p.i.i.p.j.g.a.a.p.e.a.s.f.H.k./.r.7.6 > d W Z...5 o X X X X T Z.] E , q k e.Q./.h.h.d.g.g.5.g.c.j.i.j.c.c.c.E.R.E.&XE.",
"D.a.0.0.p.p.p.a.W.-X;X-XJ.a.q.0.6.w.G.A.).9.-.6 = C W |.OX' J W W K I XXOX` R , i l q.S.6XG.u.f.0.h.j.,XaXjXjXjXpX1X&XR.Y.l.W.W.",
"g.p.a.H.E.E.J.E.W.W.E.K.k.p.a.p.g.w.0.h.0Xe.*.e i s W X.oX.X{.O.[.| | .X+XU b , # %.7.a.;X-XS.H.-XpXlXdXR.g.l.j.c.c.pXzXaXl.4.s.",
"R.c.i.s.W.:X&X-XW.&X&X-XE.&X:X-X&X-X-X4XaXw.:.8 p , 5 Z.].} '.| O.| '.} XXL % s q l 7.F.7X>XS.a.g.a.a.h.a.5.0.0.4.p.j.k.a.p.p.p.",
"s.j.g.k.c.c.s.s.j.s.i.s.j.*X*XR.j.&X:XeX7XT.*.6 p - 3 o.O.} O.'.@.O.| | [.W : = 0 l 9.;XcXqXE.q.0.e.0.e.w.w.e.p.p.e.p.4.i.d.K.%X",
"Y.&X-X-X2X-XW.=Xa.i.i.p.p.K.W.%XR.&XE.>X~.9X7.e p i < ~ +.{.'.o.X.O.| O.X.5 - s 6 &.6./.;X6XA.0.0.a.0.0.0.e.G.T.T.H.Y.Y.H.E.&X%X",
",X1X1X-X,XE.S.j.-X-XW.c.s.s.u.u.i.i.s.H.J.wXq.l 7 s 5 5 X.}.o. .' O.[.+.L ; - h 8 %.I.).J.(.Q.m.6.h.a.e.w.t.l.l.p.e.a.j.s.a.d.s.",
"p.p.p.p.g.g.e.3.a.a.j.a.f.p.3.p.0.k.p.k.H.8X6.j 7 > 4 4 P [.|.|.[.}.}.` 4 4 a 7 8 7.A./.e./.6X9.h.D.S.p.w.a.g.0.a.0.0.2.3.a.J.=X",
"p.p.i.5.4.e.0.p.p.f.p.p.0.p.d.E./.E.p.s.:X2Xm.j 7 > 4 J K ` [ { { [ [ ~ 4 B u 8 j A.(.D.a.6X6XG.0.S.S.p.p.S.T.T.H.D.S.d.0.p.j.S.",
"0.w.p.p.g.w.e.0.e.e.e.p.p.p.0.d.h.0.3.u.&XJ.F.:.7 > 1 R ! V v M v v n W E f > 8 %.e.yX_.Q.0X`.!.a.H.Y.D.h.h.h.4.w.g.D.J.J.J.H.D.",
"w.0.0.0.0.0.0.0.3.0.a.~.<X-Xa.a.8.a.a.i.f.J.S.n.k > > R n V { V.N.N.Z T B f u 7 -.A.<Xj.s.7X9XG.w.g.w.j.D.T.Y.w.w.w.a.k.h.h.a.a.",
"g.h.h.e.0.w.e.a.q.a.p.S.H.J.~.^.Q.h.4.j.c.c.yX8.l u , ( V A N. X X XF v ( 1 = e 9.F.E.4.j.<X<X0XT.l.j.4.0.j.a.p.p.j.a.fXjXsXh.q.",
"lXlXuXH.e.0.0.0.A.F.D.D.d.a.k.S.(.D.z.R.yXW.3X8.;.7 > d / S M N. XG G S / 1 > e 7.(.&Xi.c.W.T.G.5.g.Y.E.E.Y.R.Y.Y.H.j.D.k.k.3.p.",
"<X7XD.3.5.e.e.a.5.a.a.a.q.p.H.E.D.T.,X&XyXyXyX>.q.6 = s / A M V. XG S M N - * g r.0XyX*XtX4XT.0.l.c.E.W.R.Y.R.&X^.W.&XK.H.s.p.a.",
"a.p.0.e.p.e.w.e.0.e.e.0.0.p.a.k.D.Y.-XyXyX<X8X_.9.y * , / N F N.N.F F S N - + -.r.3XW.j.2X4X^.-X-XE.R.Y.l.H.E.:X-Xa.p.f.j.3.p.3.",
"p.5.e.j.p.3.p.p.e.p.s.p.p.p.u.3.p.a.a.E.^.z.z.<X:.=.@ & C Z / A s F Z / 2 = e 9.G.8XD.l.-XR.j.a.g.g.s.g.s.u.i.i.s.u.p.i.u.p.j.a.",
"a.p.p.0.0.e.q.2.g.S.H.S.a.p.i.p.f.j.0.a.W.Q.!.uXq.-.w & s ! Z B._ _ V / & * =.e.G.8XD.^.,XR.R.H.4.4.4.i.j.j.s.s.i.s.i.s.s.W.-X&X",
"H.p.p.5.0.p.f.l.p.a.k.a.f.3.u.f.a.f.0.p.G._.Q.yXQ.q.g * 2 ~ J ] [ W K Z = w :.q.h.6X/.wX<XH.&X&XH.k.i.j.K.&X:X:X&X1X1X&Xs.i.c.&X",
"-Xj.j.p.j.p.j.aX-X&X-XW.&X%Xj.p.p.d.j.e.e.8.5.G.7XF.&.* % ) R ~ ` J ! 2 * 6 :.P.Q.~.6X6X<X-X:X&X,X-X&X&X&X-X:X:X:X:X:X:X:X&X:X-X",
"-X&X&XR.j.s.j.x.*X*XR.K.*X1X1X&X-X&XE.E.G.e.a.J.eXA.9.w - A ! n L W R & 7 %.:.A.).T.^.T.j.a.g.p.H.E.E.Y.J.a.a.p.j.H.R.W.K.s.*X*X",
"s.s.s.c.R.W.&X&X1X1X&X*X*XR.R.*XW.T.H.k.a.3.i.a.;Xk.6.&.. - R Q J ] d - w 7.A.e.8X3X-Xk.u.p.e.0.i.s.p.p.p.3.i.s.p.s.i.4.j.j.K.K.",
"i.i.i.s.s.x.K.%X*XR.c.j.j.j.j.j.-X-XW.D.k.g.p.a.J.E.6.9.= . E B.] _ : O z 7.D.7XyXqXW.s.p.a.j.g.p.0.4.0.g.w.h.w.w.p.g.g.c.Y.c.j.",
"k.Y.R.W.W.&XE.k.k.H.W.*X&X&X*X*X4.j.j.j.g.p.0.s.zXhX(.<.p + s _ B.( - 0 &.a.J.wX3X3X-X-X:Xk.4.4.g.p.j.p.g.D.^.T.E.D.Y.Y.W.W.Y.c.",
"=X-XE.S.s.d.a.0.f.H.-XE.c.j.g.j.s.k.c.Y.D.j.p.j.=X>X<Xe.;.+ & ^ M.N   z m.7XiX:X-X-XE.&X&X*X&X,XY.l.Y.D.z.D.W.^.T.D.w.0.i.i.g.j.",
"a.k.k.a.0.6.f.a.p.a.k.a.i.3.s.Y.H.R.E.W.W.H.c.v.s.s.H.(.9.x   G D = 0 <.6XwX>X&X&XE.Y.H.c.R.R.j.g.4.j.t.g.t.t.g.z.H.k.h.5.5.t.i.",
"e.3.2.p.f.e.p.0.a.e.e.p.h.a.0.w.R.R.H.c.c.l.j.x.$X%X=XwXr.<.* t s * x w.fXcXhXvXjXpXhXzXhXaXW.3.l.l.l.5.4.p.p.w.t.z.T.J.h.t.4.t.",
"0.0.q.0.p.a.p.e.J.J.J.J.T.J.g.4.i.g.s.p.j.H.R.*X%X$XL.H._.r.&.0 * t 9./.-Xp.c.1X3Xc.i.j.l.j.5.l.dXjXpXH.3.i.p.5.i.4.g.a.5.g.t.H.",
"0.w.p.8.t.D.h.w.e.0.t.t.a.w.w.w.i.i.g.i.4.j.R.*Xv.v.u.H.~.Q.A.-.r 8.!.Q.d.0.S.;XE.h.p.3.j.j.h.w.j.k.x.u.3.j.c.t.j.p.p.i.3.e.s.p.",
"h.D.D.T.J.D.w.w.h.p.w.w.0.w.t.w.K.K.R.,X1XW.j.s.v.:X:XK.f.F.0X0X!.!.G.e.a.L.~.p.t.4.4.l.aXvXpXD.j.j.R.*X4XaXkXjXa.4.f.p.s.k.J.T.",
"D.h.l.Y.T.D.D.H.l.g.0.w.5.4.w.4.g.W.&X*X1X1X&XR.*XR.x.j.k.J.;X!.!.G.r.A.~.6X-XA.e.0.e.j.H.D.S.g.pXhXzXzXpX4X*X*Xj.s.k.H.K.J.J.E.",
"l.5.3.w.p.h.g.g.g.w.g.g.w.4.4.4.4.j.g.z.W.-X1X1X5X&XK.:X&XS.d.h.3XyXyX6X>X2X;XG.e.p.a.S.S.S.D.E.1X:X5X4X4X&Xv.*X*XR.c.k.H.E.H.f.",
"c.h.a.4.p.J.-X&X3.0.k.H.k.p.p.p.c.&X&XW.c.i.i.i.:X&Xj.R.5XqXJ.d.G.;XqX>X:X7X2XT.D._.H.S.j.a.p.w.a.i.s.H.1X1X*X1XR.v.i.j.K.:XJ.s.",
"-X-XW.j.p.d.j.a.p.a.D.E.E.J.E.-XR.,XW.R.R.R.R.t.i.:X1X5X4XeX>XJ.T.H.H.E.L.J.S.8.e.t.g.H.J.H.j.4.i.i.s.c.*Xc.i.j.s.i.g.j.k.k.s.u.",
"p.x.E.E.=X^.J.E.K.H.j.a.d.0.:.s.j.j.4.i.g.4.j.R.R.&Xc.R.K.-XK.a.p.p.u.i.s.a.h.5.5.t.p.f.f.c.H.Y.E.Y.H.k.j.j.j.R.1X&X&XR.g.4.p.a.",
"f.u.p.s.d.s.0.d.g.f.f.d.J.P.0.p.j.R.g.i.g.4.i.t.j.i.i.c.H.&XE.p.3.p.p.s.u.i.t.8.4.p.u.p.u.p.p.g.p.i.g.s.i.i.j.W.R.R.&XR.Y.R.E.R."
};
