/* XPM */
static char *_6749c650a0848dcc5559aada3467929NHpNu2FtGTNN04Wq[] = {
/* columns rows colors chars-per-pixel */
"64 64 140 2 ",
"   c #1E3E54",
".  c #253E55",
"X  c #2A3F54",
"o  c #233E59",
"O  c #274156",
"+  c #2C4256",
"@  c #26425A",
"#  c #2D455C",
"$  c #2E485E",
"%  c #334556",
"&  c #31465B",
"*  c #344A5E",
"=  c #394B5D",
"-  c #274560",
";  c #2C4661",
":  c #2E4A63",
">  c #2F4D69",
",  c #334C63",
"<  c #394E63",
"1  c #334E69",
"2  c #394E69",
"3  c #365066",
"4  c #3B5165",
"5  c #35516B",
"6  c #3B536B",
"7  c #3E596E",
"8  c #365471",
"9  c #3B5671",
"0  c #3D5A73",
"q  c #3F5E7B",
"w  c #415367",
"e  c #40566B",
"r  c #435A6D",
"t  c #495E6F",
"y  c #435C73",
"u  c #495E74",
"i  c #425E79",
"p  c #466176",
"a  c #4A6176",
"s  c #45627B",
"d  c #4B647B",
"f  c #4D697E",
"g  c #526576",
"h  c #51667B",
"j  c #51697E",
"k  c #466481",
"l  c #4B6681",
"z  c #476886",
"x  c #4F6A85",
"c  c #4D6A83",
"v  c #4E6D8A",
"b  c #506B64",
"n  c #526B81",
"m  c #516B82",
"M  c #536B83",
"N  c #526D82",
"B  c #526C83",
"V  c #546D83",
"C  c #516B84",
"Z  c #526A84",
"A  c #516D85",
"S  c #536D84",
"D  c #536D86",
"F  c #536F87",
"G  c #536C84",
"H  c #586E85",
"J  c #596F85",
"K  c #516F89",
"L  c #506E8A",
"P  c #556F88",
"I  c #526E8A",
"U  c #4E708E",
"Y  c #557086",
"T  c #587187",
"R  c #587187",
"E  c #557189",
"W  c #577189",
"Q  c #567288",
"!  c #57718A",
"~  c #55738D",
"^  c #54728E",
"/  c #55738F",
"(  c #55718C",
")  c #58728B",
"_  c #5A728A",
"`  c #58748A",
"'  c #59738C",
"]  c #5A738B",
"[  c #5F788E",
"{  c #557491",
"}  c #5A7590",
"|  c #5A7591",
" . c #5D7991",
".. c #5E7891",
"X. c #5A7894",
"o. c #5D7994",
"O. c #617B92",
"+. c #607A95",
"@. c #617B94",
"#. c #617F9B",
"$. c #67829D",
"%. c #7590AB",
"&. c #7D96AC",
"*. c #7E98AF",
"=. c #7E9AB2",
"-. c #8499AE",
";. c #819DB5",
":. c #839DB5",
">. c #87A0B6",
",. c #85A3BD",
"<. c #87A3BC",
"1. c #8AA5BA",
"2. c #8CA4BA",
"3. c #8CA8BE",
"4. c #92A8BD",
"5. c #8EACC4",
"6. c #8BA9C1",
"7. c #91ADC5",
"8. c #90AEC6",
"9. c #92ADC5",
"0. c #93AEC9",
"q. c #94B0C8",
"w. c #97B3CB",
"e. c #96B4CE",
"r. c #96B6CF",
"t. c #95B1CA",
"y. c #98B2C9",
"u. c #98B4CC",
"i. c #99B4CF",
"p. c #9BB7CF",
"a. c #9BB5CC",
"s. c #9FB8CC",
"d. c #9DB7D2",
"f. c #9BB5D0",
"g. c #9CBAD4",
"h. c #9DBAD2",
"j. c #A0B6CD",
"k. c #A4BACF",
"l. c #A1BBD2",
"z. c #AFC5DA",
/* pixels */
"d p p d d d a d < * * , , , : : d l u 1 # ; , & # , < * < < & , = = & * + , d d s f f s q z ~ U X.q 5 > > > > > 5 - : , 2 C ' D ",
", , 3 3 * * * * * & * 6 s b ) [ I C d 6 , , , 4 e f R b 6 @ # , & , , < , , 3 $ >   $ 8 5 > > ; @ ~ $.l l ^ { v c | o.Q s 6 , ; ",
", * $ @ $ * < , R R j f 9 , # # , , 9 l J Q C c f 6 , , ; , 6 1 ; 1 y l s 0 d l f $ p =.8.w.p.u.i.h.%.q : , 1 5 6 d 4 , 6 , & & ",
"$ * $ 3 6 r a a a f j d y 5 , , , - ; 6 4 , : , , 3 i ' ' I D Z l i { <.g.r.r.8.5.Q 7 p 7 3 # : # @ f =.w.w.7.3.y.<.d # * & 4 2 ",
"a d f a r 4 , , , ; & , 6 u u u l d d u 6 , e b b f y , # ; 2 C $.s : > > > f ` $.p 3 3 * + 4 j [ c S b 6 : , 3 & 2 # & 4 & * X ",
"* * & & , 3 , $ , , , ; & & , 2 & & , 6 2 & ; < 4 < # # , , & , @ 6 c [ a 3 3 , + $ * * < % = = + 3 , # ; $ # , , , < < , % 4 * ",
"* 3 * $ 3 p f y i l h y 2 , , , , & & & < * & & # , < < , , & , 3 , $ 3 3 $ 3 $ 4 < % $ * = % $ 4 < # # , < , , , ; , & & & = * ",
"* a f 4 # * 3 : , , ; 2 y H J M u h j u 2 & , < , * , & & 6 M H j 4 & p a u a a r < , < * $ < < * , d j d f J I J H M u d g u g ",
"$ 3 3 $ $ 6 c ` D ' c 3 $ , , , , # * , , * < ; ) V M 6 # 3 3 , * * * , 3 4 y d d d p a d p d a u y < & < , , , & < y u u w < & ",
"4 p j ` Q c E E D l 6 # $ , , $ # Y [ b V ) Z D M J [ d , , * * # * < r a a a d a y 4 3 , $ 3 $ < < , , , # & , & , , < < w < < ",
"$ 3 3 p f d d p f c p s d p f d b , . , 6 ; , 2 & , u d a d h a h a d h h p 4 * = < * & $ $ < , , & & & < , * $ , , & # & < = & ",
"p d 0 6 $ # : , , y y d 0 $ : # + , 6 , . , e & e & , * + * * % * & # % * = = % & & & , = = * & < < < r a u 4 $ & * # & * < = X ",
"3 6 $ $ , 6 6 # # 6 , , # # 5 6 * , # : 9 2 X < , & < < 4 * = * 4 = = = = = = = = = = = = % % % % & , , 4 y i d , , , 6 u a u 6 ",
"@ $ $ 3 d S f 5 , 7 d s s @.,.q.p.5.q.h.:.y o 1 , & X & * & % % + = = = = = = % = % = % % = = * < , & # , 6 d d s s u u d d a u ",
"7 A ` f 6 , , , @ d <.j.w.;.o.c l ^ ' z o.0.0.' D J e > , * * 4 % = 4 = = = = * = = = = = < + # y y d d d s y , c f d f s 7 , , ",
"i f p d a u d d 4 O , , , 6 - 3 1 : @ 2 l } ' D > D D D b 6 $ $ g d t 4 % * < * & < u d h u 4 * , 7 u d u d l i d d C ) b 9 , & ",
"Q f 4 * , * 4 * * * + , 4 $ , # * * & * , 3 , $ @ 1 d c y , 3 : , $ * $ + * 3 , , : , , * & , 2 & * < , , 4 , , ; , 3 : , , , $ ",
"3 3 & * 4 % * * < = < < y f u < * = 4 = % * u b j 7 # - 5 s l k c p 3 3 7 r y c y s d p 0 y u u h e < * ; & # 1 4 # # , , , 0 b ",
"$ $ 3 r g a g g a t a * + , & < = = % % * < * # b b Q ` Q I E c U c q 0 y 3 5 l ~ | ~ b d d y < & e M J J ) V I d 6 , 4 , * 6 j ",
", * $ * 4 = * + r e a d h u * & * * = * * * * , , * : $ : 4 l | U ` X.` ` A c X.v c s 5 : , < & & e u 4 @ , , , [ b f b V b V R ",
"O , r d R j 6 & , , # , , # < , * * * , 3 , * * $ 5 d d 0 1 : > 5 : - , , , $ # , 3 5 , # & = < * $ , 3 6 3 : , # $ * , , < < , ",
"] ` f 3 & * * 3 * s d b d a ) b ] d 6 , $ * , 3 , > , > ; 2 l | c 5 $ 3 , # , 6 , ; * , < * & & & & 7 d V f 4 # , , 3 * & # ; & ",
": : 5 $ , , # $ , , : # $ , 3 , # 4 f Q E Y c E v x I { { z 8 - 8 , : 3 1 : 6 l x 0 : : , 1 2 , 3 $ $ $ 0 S I Q $ , * * * < < < ",
"3 $ : # , 3 $ 3 : 5 S Q Q Q f ` | l 8 > : > > > > 1 i k k k v { x { ~ c ' C l z k l Q ` J I I I f 3 $ 6 d c y d $ , * , y h u < ",
"b b S Q R R V Q b b 7 # $ , $ , , 1 v X.x x { U U L U v U { v U L y , 2 l ) I I ~ K Q ~ Q A I Q d b f y 1 # b s s p d a 3 O 4 * ",
", 6 y a d r 4 * ) R d 4 , , 3 y s i 5 ; > 8 i k l k x U U v 8 > 1 2 , & ; ; 6 l : > > : : 5 5 > Q d , 5 ] I S q s , $ + O * $ , ",
"$ * , = < < < , & < , & & % & < 4 C I l u i > 2 > > > > i l i l ; < & = 2 , ; 2 $ $ $ $ 3 0 p s , , , O , - : 6 $ 3 Q $.j Y * , ",
"* = * # + % * * & < , , 4 < % & & , * 2 Z +.J J Z I I L U { L I < ; # , u d u l p 0 p f 0 3 3 3 3 # 3 5 6 y d s s f p p # 7 + $ ",
"% & * = 4 * * # , * # & * < = = @ < u h r , X 2 o 2 2 ; ; 1 : ; ; 3 5 6 2 1 1 0 f q 0 p d d l D c p d d 9 6 > : @ 3 3 7 O 3 : 3 ",
"4 * * & * * * , : , , < = * * = w & % < < < < ; y y 9 : ; 1 2 : k z l c I v x X.~ f 7 $ , < 2 2 4 , @ , 6 3 @ , 7 7 0 f d f Q d ",
"r 3 & $ * # , , V Q ` J p 4 * * = & < w X X , < ; y y D ' L L L ` z 5 > 1 1 2 9 $ $ $ % , , & & & 4 & R =.h.p.q.6.Q p 7 q 6 c c ",
", * 3 p b f s d d s d i 4 : , , * = & & 2 2 < ; , y l | x 2 ; 1 c Q c d s 1 ; 2 3 3 * < * & < a h 4.l.2.y O 3 $ 3 : 7.l.>.6 : $ ",
"d p , > k Q I ~ Z L I ) k ^ L I S | x ~ ~ v ~ ` U ~ z 8 8 U f q > $ > f { { U Q Q Q f * 3 4 X < & = % < = * 3 3 % * , 3 $ $ 3 > ",
"# 3 , 5 0 9 : 1 1 ; ; 2 2 l l k > k ^ | z 8 s z z - 0 3.g.8.3.5 $ : 5 8 - @ - , : . d >.l.-.y % = = % = = % % % 4 * = $ $ 3 y p ",
"s A E v | ^ l V 1 : ; ; > l l Z k x s s l s z s 0 8 - - 3   0 3.r.r.5.8.t.r.w.8.7.y O * 4 * + < & < & & % 3 a g p t p d d c Y Q ",
"E ` ~ E Q d 6 2 J _ M u ; 1 & ; # 3 , 5 q y s f z s f f s 8   8 @ 5 5 - 5 c ~ [ 3 O * e 4 e 4 < & 2 < < $ = r 4 3 * 3 3 , : , : ",
": , $ $ < < % X & < < < X 2 & , : 3 , * 3 7 s c $.f > p f d A @ w.h.=.q - 6 : . * 7 a 4 + * = & w r 7 = = < 3 + * & # & # 4 d V ",
"3 , * + = % = w & = & = & < w Z ) d , $ 7 p f d O ` $.f f q p ` j f y O o 1 , 5 + 3 4 3 = 4 * % & w 4 < = 7 j g a u e < & & < 1 ",
"+ * = 4 w = % X = = = < & , X 6 * < , & = 3 , , f 0 0 : ; 6 ; 2 , 6 y 7 5 , , x Q f r p f a 4 * * r p r 3 < 3 $ * 4 y u u d u u ",
"= < & % % % = = = % < M ] D 2 , $ , , $ $ , : $ $ 3 : 3 1 o 8 ; $ 3 6 @ 3 s y l f y 3 * 3 * , $ , 3 $ 3 p f p * , , < < & ; , , ",
", $ 3 $ % = * = & < ; 2 u l J I V 5 $ 6 7 5 3 3 : : , : 1 y l l : > : 5 k q > : > : 3 # 3 $ : a d q , # ; 1 < : $ 3 # a.y.0., , ",
"u.p.&.t & = * & e u i y 2 ; 1 2 f y 0 f p p s p d s l l l z I x A E U z q q l v s s y , * $ $ 3 O 5 s d l u l u d d , 2 # , . , ",
"c Q 7 O + = = = X , < < , < u M p p b K f f c f E Y Y S Z x x x k z U U z U { v ~ E ` c Q Y e # 6 y d f u y u l f j ] D b , < 1 ",
"3 3 $ < = = = * < < , & & < w < r s K b f f f 0 : > , > > 9 k l U U { U U { { v { U f 3 # 4 f Y b d d d y y l H I , , X 6 & < & ",
", $ * 4 = % = = % & * * = = = % $ , 3 3 3 6 3 @ , , : : # - 1 1 > q k k z k k k > 5 > , # $ 3 3 * * , 4 ; X ; 2 # , 2 , X , 2 < ",
"3 & 3 & % = % + r u h y 4 = % = 3 3 $ $ 7 p f p p u d Y b s u f s E ` c s 8 : > q s i f f f p p 3 $ # , 2 2 2 ; , 2 o 2 2 D J l ",
"a , 3 % < = % 7 @ ; 2 , # : # * = * * < 4 t a g 4 * , 7 y 7 , ; * < & & 7 f Y Q $ y i f s p s z q 5 : 1 k v { I l | { I > - 2 I ",
"Y , , * 3 & 3 4.~ v { L I c 6 # * < , = = $ $ = & * < , w l f < * = * * * p c p s p $ > A ` ` b E E v v x ^ L I { I I I | ^ L I ",
"Y ~ E i 1 ; , 1 i k i 9 k | { C ' I b f w & < t t t g < , & # , = < = & * < * * < # & < , & < & s d d p f * * : 3 p d f p - s f ",
": : 1 y c v L v { { I z z k k z i y 9 4 , & & < = = & & , 3 , * < + & < * & , , & 2 < , & , = , $ , 3 * 3 O * 3 * $ , $ 3 5 p q ",
", , , : ; 2 y l C k 9 1 1 : ; 1 | ' C i y 2 , & , e & 4 , y i x ; < , , 1 , 1 s d x y , , , & , , * * $ = 3 4 3 3 $ 3 * 0 s 0 > ",
", y l c J J l 9 , y l l I | I C @ ; 2 9 , : ; , j.:.y x s I d s d d i i l s s L v v I I C y : ; $ $ 4 & 4 r j a f p p d f f 0 p ",
"I J h 6 , , , X , d J f 7 ; ; , < 6 y u y , , , d I c 7.0.<.| i i i v v z L ~ ^ | v v ^ c z I | d t j t r r j j h r + * 3 , 3 3 ",
"& , 2 < & X , e $ , 2 , # # 2 j y y u Z c d i i # : @ 9 > 5 0 o.> 9 o o i C i k q 5 > > 1 y i , 3 + = * = + % * 4 a 4 4 $ @ , # ",
"< & X , < < & & , * & < 6 , & & j d p y e 7 1 , l f d p s s y x b j 4 i :.l.y.p.q.0.w.i.0.;.b X 3 , 3 + 3 3 3 3 & t d d 3 3 $ 3 ",
"& < , & < < , & a h a u a u 2 & , , , , 5 y l s s s l > : , # , p.0.j.:.y @ , & , , # * 2 , & , 3.s.1.r + * * % * + 4 = + 4 * p ",
"+ 3 < % 4 r = * * * * * = = $ * # , , : # 5 s l ; 5 : , , , , & * < , , & & < < < & < & < & < , , , 6 & O , 4 # 3 , 3 * + * = * ",
"4 r t t a e & & 4 * * * < * = $ d s s I | k 1 > 6 I ) c ; # , < , & & & = , , X & & & 2 -.z.2.6 , , 0 l @.;.0.a.$ $ $ * 3 4 t d ",
"r 3 7 p a p u g e < * * % * = $ , c I c ^ | l s k i : 1 < c J D d y ; , < < , < < , , , 2 , : # 0.0.i.0.;.o.i y : , 7 p p t d a ",
"7 + # $ * < , , 4 * , 4 $ % $ $ ; 1 > 8 v ~ | { | | i l y 4 , , b u y u y u u d , & , y u u d l L v ^ | X.l 9 c c d 0 5 6 d y $ ",
"0 < , $ 2 d J J # & e u 4 * * $ 6 c I l 9 @ ; > I v ; : 6 1 @ , , , 6 u l u u l u d u 6 , , , , 2 2 > i X.| z ' l 9 : , p ` f , ",
"R Q f 4 # , , ; < < y d f a j ` f ' Z i s c l , # E | ] b i 9 i l y i d h u 2 & < , , y d s , : ; @ , 6 d y : 1 > ; : 5 7 6 , # ",
"; 4 d b L D u l u y 2 < < & + * , 2 # , , @ 4 s d S s d d c i , , # & & < < < & & 4 < * O 6 u d b d i 6 3 > 4 c ~ I I d 1 @ : 4 ",
", : : , 2 2 X , 2 < ; < d e * * < j 2 ; 4 & # , , # # 9 y l d , ; , < < & & & = & = + < * < * , & # , 5 : : 1 s s d l d d d f s "
};
