/* XPM */
static char *wall1_x1677753603[] = {
/* columns rows colors chars-per-pixel */
"64 64 134 2 ",
"   c #3D4E35",
".  c #37493D",
"X  c #3C4D3C",
"o  c #3E523F",
"O  c #404F38",
"+  c #435436",
"@  c #45553C",
"#  c #46593C",
"$  c #49593E",
"%  c #263E54",
"&  c #2A3F54",
"*  c #2D4549",
"=  c #364B44",
"-  c #3B4D43",
";  c #364A4D",
":  c #3A4D4C",
">  c #3E5245",
",  c #3D524C",
"<  c #264157",
"1  c #2D4356",
"2  c #26425B",
"3  c #2C455B",
"4  c #2E495E",
"5  c #334556",
"6  c #344B56",
"7  c #3A4D53",
"8  c #31465B",
"9  c #344A5D",
"0  c #394C5D",
"q  c #365051",
"w  c #3D5254",
"e  c #3C535C",
"r  c #264461",
"t  c #2C4661",
"y  c #2E4A62",
"u  c #2E4D69",
"i  c #334C63",
"p  c #394E63",
"a  c #334E69",
"s  c #365066",
"d  c #3B5165",
"f  c #35516B",
"g  c #3B546A",
"h  c #3E596E",
"j  c #375572",
"k  c #3B5672",
"l  c #3E5A72",
"z  c #3E5C79",
"x  c #3D607E",
"c  c #435543",
"v  c #485741",
"b  c #465944",
"n  c #4A5942",
"m  c #41554B",
"M  c #45594B",
"N  c #4A5B4A",
"B  c #425653",
"V  c #455A54",
"C  c #4B5D53",
"Z  c #41555B",
"A  c #445A5D",
"S  c #4B5F5E",
"D  c #4F6056",
"F  c #4F645F",
"G  c #425665",
"H  c #425C60",
"J  c #495E63",
"K  c #40566B",
"L  c #435A6D",
"P  c #485E6B",
"I  c #435D74",
"U  c #495E74",
"Y  c #425F7A",
"T  c #4A6266",
"R  c #4C636D",
"E  c #526665",
"W  c #51656C",
"Q  c #556A6E",
"!  c #5C6F6C",
"~  c #466076",
"^  c #4B6276",
"/  c #45627C",
"(  c #4B647B",
")  c #4E687E",
"_  c #516775",
"`  c #546B73",
"'  c #50667B",
"]  c #526A7D",
"[  c #596F7D",
"{  c #5A707E",
"}  c #627369",
"|  c #3F6264",
" . c #456582",
".. c #4A6682",
"X. c #476985",
"o. c #4D6A84",
"O. c #456888",
"+. c #4D6C8A",
"@. c #536C84",
"#. c #586E85",
"$. c #526E89",
"%. c #596E89",
"&. c #4F708D",
"*. c #567086",
"=. c #5B7286",
"-. c #5C7886",
";. c #55728C",
":. c #5A738B",
">. c #5E788E",
",. c #4F7290",
"<. c #547491",
"1. c #597692",
"2. c #5B7994",
"3. c #5E7C99",
"4. c #62788D",
"5. c #617B93",
"6. c #6B85A0",
"7. c #829DAE",
"8. c #839DB4",
"9. c #849FBD",
"0. c #98ABA9",
"q. c #87A5BF",
"w. c #8AA6BD",
"e. c #8FAABF",
"r. c #8EABC4",
"t. c #92ABC3",
"y. c #91AEC9",
"u. c #97B3C2",
"i. c #95B2CC",
"p. c #99B3CC",
"a. c #96B4D2",
"s. c #9DB9D2",
"d. c #A3BED3",
"f. c #A4BFDC",
/* pixels */
"f y j Y o.:.o.a p p i y i 9 i i p p 9 p p 8 9 0 9 8 1 9 9 8 d ( 0 5 & Z 5 Z & p 0 8 9 9 p 9 a 9 9 4 q q , o #   + # @ @ @ @ @ + ",
" .1.$.f i f a 8 3 3 i i y a a 3 #.U K i 9 8 i 9 8 p L ] -.( g 8 0 0 0 9 5 5 i Z 8 5 d 9 9 < p 3 4 9 L T w > # #   # @ @ @ @ @ @ ",
"1.<.o.o.;.*...%.*.$.$.*.*.:...f g p i 3 8 i p i i 4 3 3 a i 3 i 9 0 8 9 8 G & 0 8 d ~ ~ ( ( >.:.:.o.*.` D , b   # + # # @ @ @ @ ",
"a 2 j %.@.f y a t f a t j ..;.+.o...) ( ( ] ( h ( ) ) ) ( I g i & 0 0 8 & Z & G 9 8 9 1 f i 4 < f 2 s s * = M > # + # + @ $ + + ",
"a i y a y 3 i i a @.;...X.....+...) ( U ~ / I g ^ ~ f 3 4 i 9 3 p p p & G G & & p 8 8 ~ 8.i.i.s.a.y.i.7.` , >   c @ @ @ @ @ @ @ ",
"k ) ( I ..( a i 3 ~ +...+.z y r y 3 3 a s f i 4 ) *.*.*.:.:.@.@.%...g t p 8 8 G 9 9 3 9 ../ / *.+.+.>.-.T , , b @ @ v @ v @ @ @ ",
"p I d y i 8 i o.o.~ I I / ( ....( ( ( ( ( L s 4 4 s s i 4 3 9 a %.%.U g & & K #.] *.:.*.:.( @.2.a y 3 4 q q o o c @ @ v @ @ @ @ ",
"( ( U ( ( ( Y U ~ i a s 3 a ( ) ( ( ~ ( I g i i s 4 3 4 s p 3 i 8 a K #.4...p 8 s 3 i 4 f 9 f 4 i 4 6 q w , > b c @ @ @ @ @ @ @ ",
"a 2 2 i < a U ) ( s 4 i 4 9 p a 4 i y i s s 4 i i i 9 8 8 p s 9 i 8 p p 4 4 p i i i y i a i 3 8 9 5 5 7 B m - O c O O @ @ @ @ v ",
"a g d a d g a r d < p i a K i i 4 f ( @.h 3 p *.3 i p s s 9 8 3 8 9 9 9 9 g / *.@.( f 3 3 9 p d 4 0 e G B : - c v @ @ @ v @ @ @ ",
"a h  .I a % f *.%.a a < g 5.@.] :.*./ f f ..:.@.>.@.' ) ~ s i p 1 9 9 g ( ( I / ) ) / ~ ( ] ^ L _ ^ J Z 7 : m M c O c @ # @ @ @ ",
"..y g $.1.<.;.@.$.@.@.s < i i p 4 f o.@.:.:.*./ / I h g s 9 9 9 0 9 1 8 g g y < / ^ I s 9 9 9 p p 0 0 5 ; 7 : m m c O @ # + o @ ",
"i a ..:.) ..>.:.@.o.g 3 g U ) U $.g s < i t y i i g I I ~ ^ ^ _ _ ] ) U I U / I 3 g / ( L 9 8 p i p p 9 ; : B V M c @ @ + @ + @ ",
"%.) g i a a y y f o.@.*.] a y y 3 9 h 3 a i a a & y p 9 p 9 9 8 1 3 p a 3 p s < f y 4 i s p 3 p i 9 8 5 7 S E ! C M b @ @ @ @ @ ",
"U p & 8 p i 3 s i a 3 a g < & g a < i 3 ] I a 8 d p i 9 3 5 6 9 i i i y 3 i i p i 9 i s I I s 9 p 9 9 0 e w 7 : C b c @ @ @ @ c ",
"0 i p p 1 g ( ( ( ~ ) ( ( U $.t.e.d.t.a 3 p @.%.i 8 8 9 i 6 s R ( ( U U g y i ~ ~ ) ~ p 9 s I ' ~ ~ ^ R d 7 w S m c @ @ @ @ @ v ",
"i i 9 i p i t p s 1 s g 1 f q.-.+./ h x l 6.e.u.r.+.s 2 4 u y y i 9 y g U ~ ( ( ) ( ~ ( ( ( o.I ( U ( ^ R T ~ Q > > # @ @ @ # @ ",
"i p 9 < i L U ' ^ d L h h < h 4 ) *.6.X.h r u u u u o.6.,.) h y 4 I ' ^ s 9 i i 3 4 g / ..U U d i i i s i i s A B > c @ @ @ + @ ",
"p ( @.I i a i 8 s 1 s 4 ~ l y f r y y j X.*.X.,.&.+.$.+.+.;.@.) y ~ ^ g 8 3 9 9 f i 3 y i y d y 4 i 4 4 3 4 9 e B > > @ c @ @ @ ",
"#.%.%...o.*...U ^ h ' h ) @.~ / s h r r f u j x ) X./ f s u y s y i i 9 9 s a i 4 i y i 9 a I I ( ( ~ f a y 9 5 B > o @ @ @ @ # ",
"y 4 4 u s y y s g a ( ) ..U ..%.*.) X.) / h j x ) +.+.+.2.;.+.*.@.;.<.*.) l f y @.;.;.1.$...:.5.*.:.$.@.@.@.%.{ A : X c v @ @ @ ",
"2 h @.-.( s s ~ & i 8 i p t t a f u l / &.6.+.6.&.X.f f / o.o.o...@.%.@.+.:.*.@.;.;.o./ g a I U ( ( U h s a 8 5 Z m c @ v @ @ @ ",
"s h ~ ( @.) ) *.8 g p & i p p 8 r 4 f u y h h x / ) / l h u y 3 y 4 u i s L ^ ( 4 s a s i 8 p i i i g h I / ( _ B : c c v @ @ @ ",
"4 s s 4 4 s s 4 p i U @.U U ' %.-.*.*.~ / / u 4 y u 4 f ~ ( ( i 9 s L ) ~ e 3 9 s i 4 p i 8 i 8 9 y 4 a a 9 8 6 B m v c @ @ @ @ ",
"d ' =.' p 8 p i p 8 p 9 K p 8 & y s y y 3 i l o.*.;.$.*.*.:.( a s 4 1 6 d e 9 9 9 i i a 9 9 i i 4 s 4 i i g ^ e Z M c @ @ @ @ @ ",
"1 e p s i 3 i i 8 & p 0 K K ..%.*.) ^ l a 4 4 y f 4 y 9 3 i I ) *.` h 9 1 1 6 9 p t 1 8 i i i & s 4 y *.>.) ` R V M @ @ @ @ @ + ",
"p p 1 8 p 9 i 9 p K U d G p 8 8 4 9 h ^ ' @.#.$.=.*.=...g 1 8 p s 9 9 3 i K / ) U U ( ..o.@.%.4.o.) ~ ) h 1 d q V b @ @ @ @ @ @ ",
"6 e 9 9 U U ( ] U U U 9 8 8 p 8 4 e d h s p 9 i 3 i s 9 8 p p 8 6 i p p 0 9 i 8 i K o.%.@.k y t y s 4 9 h ] { Z m m c @ @ @ @ @ ",
"0 L 0 8 g a i 2 p 8 G & p 0 0 p 9 e 9 8 8 8 9 i p p 9 1 p ( U 5 6 9 9 6 5 5 9 p 0 3 3 a g I U ..a p 4 i L ~ ^ e w m c @ @ @ @ @ ",
"5 p 9 i L ~ I g i p U U U p 8 0 9 9 5 8 p p 0 8 9 3 9 G _ =.' 0 6 6 6 6 9 0 d K ~ I I I I a a y I ~ I f a a L W , > c @ @ @ @ @ ",
"^ _ ~ ( ) ) ) L i 1 p p Z & p p 9 0 0 G U ^ L d p 8 9 9 0 0 0 5 0 9 9 0 9 6 6 p p a g Y / Y ..%.*.%.) I l I K 7 ; : c c @ @ @ @ ",
"8 9 9 i 8 3 i i p 8 p 8 p 8 0 8 0 9 9 9 9 p 0 9 8 9 9 9 5 9 p 9 6 6 e 6 9 9 i 9 #.o.@.1.1.o.j y y 8 4 a a i 8 9 : - c @ v @ @ @ ",
"i 3 9 a i i i y i 3 g ' p 8 g 8 i 8 9 p 8 5 a 9 d & 9 p 9 8 ^ ^ _ ^ 9 s 1 d 4 9 3 6 4 g 9 y a y o.:.a % L 3 8 ; 0.D X v O c @ @ ",
"/ ..( I L o.( p ( U U ( ..) @.K i p 0 9 9 L ] #.( L _ ^ P p s 8 p 9 9 L ~ ~ h h ^ g < d I ) ( ( ] U k 5.8.L 1 ; V . c v @ @ @ @ ",
"3 I ( g p I U U 8 p i 8 p p s K ] _ p 1 G U g 1 a 1 5 1 g L ( ~ 1 9 s i f f s < U ~ p s 8 i 8 t 2 z u % i < d B = v N @ $ $ @ @ ",
"s l Y @.%.I p p i i 1 p ^ L p p i p 9 5 d L g s a i p 8 i 8 p i g 3 4 r $.X.) h i a i I 3 i d a a ..%.%.>.[ W w M M @ O @ @ O @ ",
"3 4 4 p p 9 G ] _ g 9 0 G p 1 5 9 8 9 9 9 d I ~ I ( ] U d 3 9 y e.2.+.3.i.i.a.y./ z @.6.6.@...@.a i y a i 9 w B c O + $ @ O @ v ",
"s ' 4.' G & & p p 0 9 8 1 9 K U U g 9 0 8 5 9 s d < 8 8 9 s ( / ../ / x / x X.| +.a y $.$.+.<.<.o.*.o.g < 8 6 , m @ $ + @ @ v @ ",
"9 i p 3 & p Z 5 9 5 9 0 0 p 8 8 8 i 9 0 9 8 d @.@.p a i 4 3 g i y / ;.:.@.&.$.,.u u r z +.1.X.u a y f +.:.=.Z m c @ O + + @ v O ",
"^ 9 5 d G & 5 0 9 5 0 0 9 5 9 ( ' U p 8 p 9 i ~ I a @.=.@.>.r.i.t.4.< i y f 2 s a <.%. .a t a / ~ ) ..*.@.[ w w > b @ $ v O @ v ",
"@.9 9 0 8 9 p 9 9 p 5 8 p 8 9 9 i i i 1 4 s a 4 f ~ ) I s 4 4 y i 8 i 9 8 8 a i p U ..U U ~ ( ) ( ( ( / L G Z B m @ @ @ @ @ @ @ ",
"p p 8 8 p 0 9 [ -._ p K ^ g 9 8 i U ) ~ y < 4 f 2 f f 4 4 4 y s 9 8 9 9 p U ..U U ..I g a i 9 8 8 3 i s K G G D m c @ @ @ @ @ @ ",
"9 < g d 8 8 9 p 3 d 8 1 s ) :.$.$.I y 2 y h / / +./ h s y 4 f l a 3 k $...i t g i i t & 9 9 p 9 e 4 8 8 8 5 B B c @ @ @ @ $ @ @ ",
"I >.t.8.h < p 3 ~ ( ( o.( i < f a j ..../ z ~ +./ / ) @.@.*.&.;.$.$...j u a ..+.%.o.k a a 8 8 1 i 9 i 0 0 7 c & c @ @ @ @ @ @ @ ",
"f ( @.I i i y y f 4 2 4 s u g X.2.X.x / ;.<.;.+.&.X.( / / ) / x +.<.,.O.+.1.1.<.<.O.j t t t p p 6 d L R P J B m @ @ $ + @ @ @ @ ",
"y g f 2 2 i g @.) :.2.+.X.&./ f x x x X... .|  .;.x u 4 f o.;.;.,.O. .+.O.| j  . .O. . .Y U #.#.3 9 9 0 Z B m O v @ @ $ @ @ @ @ ",
"<./ o.;.;.;./ a f u l ..X.) X.<.<.,.&.&.&.+.&.+./ j u y y f a t j &.<...+.1.1.1...1.3.1.Y p p 8 p Z 6 5 m B N n O @ + + @ @ @ @ ",
"a a ..o.Y ) ../ / ~ X.X./ / x / O. ./ x ..X.X. ...x / ../ ~ / ..+.<.+.j t a a t j ..1.o.g i p i & 9 6 ; & m c O @ @ $ + @ @ @ @ ",
"I ) ( Y ..U ..U i p p i K Y  .%.+.%...a p i p U ..o.I a U ../ ) a ....%.%.p 3 8 i a i t i i 8 i G & Z & B m - m c O @ @ @ + @ $ ",
"a a I ) U p 8 i L ....K 3 8 a i t i i 3 8 p & p & p g ..1.:.........p 8 p 8 p G 8 K K 3 i K p & i 5 Z B B B = c m v @ @ + @ @ @ ",
"I a 8 p i t i p p i K K K i i 3 i i p 8 8 i i i d U ..I y 2 a k p a 8 p 8 8 p 8 8 K K p & & 5 G Z 0 & 5 5 B : - c c @ $ @ @ + @ ",
"p 3 8 p i p p & p 3 8 g i 8 i a i 3 8 K t & 8 i y t u a u a u & t 8 8 p 0 8 i 8 p 8 p p K Z 5 0 0 & 0 Z G Q ! } c @ @ @ $ @ @ + ",
"1 d ` =.~ ~ U i %.%.K 8 t p i 8 p & K ' g i a p %.+.+.;.X./  .o...a t a t a a u %.%...a 8 p 9 0 & 0 G & 0 Z , c c O v O @ @ @ @ ",
"5 9 d d 9 9 p i p 8 8 K %.%.%.%...K ..%.%.o.%.@.@.<.2.$.+.;.$.+.%...%.%.<.<.%.+.+.+.%.%.$.@.p 9 0 & p & 8 Z , > v v O O @ @ @ + ",
"0 8 1 5 i 9 9 8 8 K ..%...8 & K K 8 8 p t j ....j k z ;.q.f.q.<.O. . .|  .<.<.<.<.a r u X.2.@.$.p 3 p Z Z A C m N v c v $ + + + ",
"8 0 d 8 p i i p p & 8 p p p a 3 U U U a t a Y ..I g y 3 u 3 a $.%. .K r a +.+. . .|  .u y a 2 a i K ..' G w , , D B c v @ $ $ + ",
"%.i i U @.U p t p 8 8 8 8 p p 8 8 *.^ p 4 y f i y 3 s 9 & i d 8 t a ..K I ..' t.t.d.9.:.I ....Y x ) ` h e q w > C m c c @ @ O @ ",
"i i p p 8 i t d g K p 0 K K K i 9 < d ^ @.( U Y ) ~ ^ ^ g p K p K a ..K a a & K i p i 3 h ..+.( $.j ) u.q q q B C m c v @ @ @ @ ",
"' U U U U ' U U ..' ' U ..U K i p 4 a r 3 U ( ( ~ 9 9 a 1 8 p i 8 & 8 i 8 p 8 & 9 9 9 d U ) o.;.X.>.@.-.y q e W B m O @ @ @ @ c ",
"Y i t i p p i 8 & 8 p K K t 8 t 3 g ( o.:.@.a i s 4 g U k p p i ..i 8 p 8 3 p G p 9 G U ~ a y a f f 2 f 4 s 0 6 B c @ @ + @ @ c ",
"Y K y i i & i K & i 8 8 8 g I ....+.a & a a a 4 f ~ ..../ ~ / ( ) g 4 i a t t i p 1 1 d g a 3 3 2 y...~ @.u.L B M > @ + @ @ @ @ ",
"Y U p i i p p & p i i 3 g ..%.$. .2.1.1.%.@.$.f 4 u y r f / o.@.1.*.@...%.%.@...~ s i s K ~ ) @.) ) I :.g =.{ B > > # @ + @ @ @ ",
"y g k L U %.@.G & p i K ..%.<.+.f r 2 u r 3 h ..*.+.<.<.&.<...u y 3 f f z o.Y Y ( ~ U I d 9 9 3 3 6 k % L e Q B > b # @ + + # @ ",
"y o.:...p 8 p & G 5 p K .. .| ..&.,.;./ ) ( y y t u o.3.X.&.&.f f y Y .. .O.Y o.a 4 p e 9 8 9 p 6 8 3 a 5 6 7 , > b c @ # + #   "
};
