/* XPM */
static char *_5646a5ae83d4e86d096667d83b83e0f9czJnOSke0KLJjPZ[] = {
/* columns rows colors chars-per-pixel */
"64 64 129 2 ",
"   c #3B503D",
".  c #45553C",
"X  c #22384D",
"o  c #253E53",
"O  c #293F56",
"+  c #2E404C",
"@  c #334745",
"#  c #374D40",
"$  c #3B4E42",
"%  c #31444A",
"&  c #34494A",
"*  c #3A4E4C",
"=  c #3E5344",
"-  c #3C514D",
";  c #274152",
":  c #2D4356",
">  c #26425B",
",  c #2D455B",
"<  c #2E485D",
"1  c #314656",
"2  c #354B55",
"3  c #3A4E53",
"4  c #31465B",
"5  c #344A5D",.
"6  c #394C5D",
"7  c #3D5253",
"8  c #3F5854",
"9  c #3C535D",
"0  c #264460",
"q  c #2D4761",
"w  c #2E4962",
"e  c #314661",
"r  c #344C62",
"t  c #394E63",
"y  c #344E69",
"u  c #365066",
"i  c #3B5165",
"p  c #36526A",
"a  c #3B546A",
"s  c #3D586E",
"d  c #365470",
"f  c #3C5771",
"g  c #3D5A72",
"h  c #3F5E7A",
"j  c #3E617D",
"k  c #435443",
"l  c #485742",
"z  c #455842",
"x  c #4A5A45",
"c  c #42544A",
"v  c #44584C",
"b  c #485A4C",
"n  c #425552",
"m  c #445A55",
"M  c #485C53",
"N  c #40545D",
"B  c #445A5C",
"V  c #4A5D5D",
"C  c #405465",
"Z  c #435A62",
"A  c #495D62",
"S  c #41566B",
"D  c #435A6D",
"F  c #485D6E",
"G  c #445C73",
"H  c #495E73",
"J  c #435E79",
"K  c #4D6360",
"L  c #4D646C",
"P  c #526561",
"I  c #54686C",
"U  c #466076",
"Y  c #4B6275",
"T  c #45627B",
"R  c #4B647B",
"E  c #4E687E",
"W  c #516675",
"Q  c #556B72",
"!  c #586D72",
"~  c #51667B",
"^  c #536A7D",
"/  c #596F7B",
"(  c #587070",
")  c #5B727D",
"_  c #617679",
"`  c #456464",
"'  c #4B6681",
"]  c #466884",
"[  c #4D6A83",
"{  c #4E6D89",
"}  c #536C84",
"|  c #596E85",
" . c #526E89",
".. c #567086",
"X. c #5A7186",
"o. c #5E7885",
"O. c #55718B",
"+. c #5A738A",
"@. c #5F7A8F",
"#. c #567591",
"$. c #5A7691",
"%. c #577995",
"&. c #5D7992",
"*. c #61768C",
"=. c #61798F",
"-. c #637D95",
";. c #68829B",
":. c #7C95AC",
">. c #7F98AE",
",. c #7D97B0",
"<. c #7F9AB5",
"1. c #889EA9",
"2. c #859DB2",
"3. c #8A9FB4",
"4. c #8BA4AB",
"5. c #8AA3BA",
"6. c #91A7BC",
"7. c #93A9BE",
"8. c #93ACC3",
"9. c #92ADC8",
"0. c #96B0C6",
"q. c #9CB2C7",
"w. c #97B2CD",
"e. c #9EB4C9",
"r. c #A0B9CF",
"t. c #A0BAD1",
"y. c #ADC5CF",
"u. c #ACC1D6",
"i. c #ACC4DC",
/* pixels */
"4 6 5 5 t r 4 t t 4 5 6 4 6 t 4 r r r r , p U U R E E g u U T R R Y U E D ^ U Y u 2 5 5 1 5 i 5 2 2 4 6 C C C O N O N 6 6 6 6 6 ",
"t D ~ W D 6 4 6 1 5 C L W D t r u t , t U R U u , r U R G y , w , G Y Y u < 5 6 1 5 u 6 6 1 1 1 2 6 6 t 6 6 t 6 6 N O O O N 3 1 ",
"t 5 i G R R R G t 5 4 4 t t e r 4 H H ~ ^ Y ~ Y a < w r r r r t , r u u u : r , < u < , 5 5 1 i N O 6 O 1 5 4 t e C C C C 6 6 O ",
"H S i t t r 5 r 5 i i 5 , t G ~ R ^ 5 , r , r 5 6 1 r < 4 t e O a > 5 , < 5 u u , u 5 s ^ ..} } O N O C t t t 4 O O C C e t O N ",
"i t , , p i < w t X , t r i r , q.2.H 4 r 4 t 4 5 5 t 4 5 H ~ } ..^ X.r u 5 ; , a < > , w u t < C N C H | ^ H D i r < u D H ' R ",
", r e Y >.0.0.e.6.Y e 4 4 5 r r r t , 5 t 5 4 4 i , 4 5 t t 4 : , a u , U ;.} @.R a i i < , w w 6 O 1 t C C a S a a r < t t r 4 ",
"5 t 4 : u y t G ^ t H / W F G ~ J i r w a R } *.^ t 4 t t r 4 t 6 r o G a ....E r u p R ' E ' R H D t e 4 : 4 y a U R R U U Y Y ",
"6 6 4 i H Y Y R H t 6 4 4 t 5 r r , Y R Y Y r 4 r t ^ +.~ t 4 t 6 , a 5.u < O...+.[ p w u w > r t O O t r r e t , r r r 5 r r r ",
"6 2 2 5 t t 5 5 4 t 5 2 6 6 6 t r r 5 < u i t 4 4 4 6 t 5 5 5 4 < r u s s r w t w u [ O.+.[ &.{ O.] p 0 a T ' ' T r q r p : t 4 ",
"N 6 5 1 4 5 r u 5 5 t C 1 2 N O 1 6 r 6 4 ; 4 i t t O 1 5 5 6 C i r 5 < , e p H ' T [ J ] ] ` T T %.` 0 d ] ` g T } &. .' *.5.r.",
"O 6 t i t r w , 5 4 1 5 t F Y t 5 6 5 5 i 6 i Z S t 6 6 2 6 6 S Y U R E ' H f a , , w w d { ] %.#.{ { #.]  .%.#.#.p O w R R R 4 ",
"6 4 5 , , , r u , a 5 4 e 6 e 1 1 t 2 1 S W F i C 2 2 6 2 5 5 t 5 r i g D p r > &.O...} w q w w j j ` ` ] %.{ w 0 q y y e O y r ",
"t 6 4 t u g [  .O.' u , t 4 r r i F C 5 t i 5 4 5 5 5 5 5 r 5 4 t g R ^ R Y R ' J T T O.G a T J d { %.] { #.] O. .-.} y O t s , ",
"| } } | [ [ O.O.w w p } *.+.' t 5 5 5 4 1 4 5 t 4 t t 1 4 4 5 4 , r p G G G i r w y w w p > y y y > T O.g p y w p ,.t.5.J : , r ",
"y q y y p h ` ` j T ' E f w y r a 4 4 t 5 5 t r a i t r t r r r u t w r t i y q r f &.f [ T R R j E 0.5.a , u , J G < t 5 1 4 5 ",
"r w f J ` ] { ` ] #.[ [ &.' p , 4 4 p S a G R J G f G R R T U R G Y ' J y w w y r a 5.[ R T R R W < u < 5 w , i 4 t , 6 , i r 6 ",
"' J R T  . .' y Y T G y w r J E R U U ..s { T T [ [ { ....O.| } O.} O.O.[ ' ' J 9.w.$.w , t e e < 2 u 9 O 6 t 6 5 5 u 5 < < 5 5 ",
"} R J r r r t e y t y r < r a D 5 9 < < d E j ;.j g u w w < w r r r r w p T #.O.$.[ q t J ~ C 4 9 < 2 < t t 4 O r 6 5 w 5 u u 9 ",
"e r t e r t H H r 5 r 1 , , 1 < 5 5 w < < w g ; p , > y i u r i , r r q y p y q q y y Y a 5 4 t 5 u w < t H | *.| +...Y i < , r ",
"i 5 t 4 e 4 a r 4 5 r t i t t r < < r u w d <.d w w r t u , < < u R +.} J , > i y t , 4 4 t 4 t i E @.+.} S e t r < 5 a } +.| R ",
"2 : r 2 t , i : r S R | | | | | ..@.} J { E ;.T  .+.| [ R H R ~ J t , a | *. .} +.' r 5 C ~ C 1 , r r , 5 5 O t t 4 4 t G G C 4 ",
"u < 2 r 6 5 Y a < 5 r r e e r t Y G ^ G ..E g E R ' Y a e 4 6 4 G T R f r : e i 4 t 6 4 4 6 O 6 5 6 6 i C C t 4 1 t S C 5 4 4 t ",
"g a 5 < < r } U R J a r e , r r a , r r > u > d w r t r 5 t t 4 , r a a r r 6 t 4 5 t t O C 4 t 9 : 1 9 t 2 6 1 6 4 6 4 4 N 6 2 ",
"p s U R E U E < t r q q y t r e : a > a w r p < t r , r 4 r 5 r H r , y e 5 r 5 6 : 4 6 6 ^ *./ ~ 9 1 5 2 6 6 6 5 6 6 1 2 4 6 2 ",
"R u w < u u w ;.E ) < < e H H t , a R T J ' J ' ' ' t O r t t r y | | +.+.R G : 6 5 4 5 5 4 t 5 O 6 N O C O 6 C 5 1 5 t 5 : 5 2 ",
"T R E p w < w j j j j E ' H S e r a R } |  .' H R ~ H } +.Y t w w f e , q t H S 1 i t t t 5 e t C C O N 6 C t O 4 t 4 r 6 6 t 5 ",
"@.E { E R E T T j p 9 s ~ | H ' O.Y G y t y O e , p y 4 < a E +.|  .G a t u } } +.~ 5 o 4 4 r t 4 6 C O e S G e t H H H U H W Y ",
"R u < s T ;...E 2 8 j s e 6 O C r < t G H G S t a S i r r u r < y y d R G r r 5 4 t a i 6 4 4 4 t N H H C S G r e R ' ~ Y a 5 5 ",
"u r , w , , u 9 < u s 1 4 t 6 6 t 4 4 t t e O t 5 : i Q ..U D E e > w a u < u w r r S F t t t 4 4 1 6 t , 4 i i u p > , u w , w ",
", i u r r w u > u : 5 , t 6 e O 5 5 C H F C t 6 i r a s u , s ..@.+.} U G R ....R t t r 4 F ~ H F t 5 6 4 r D J ..' a a s u w u ",
"a Y u 5 s s g < : 9 E o.| t C C 6 2 1 O e C F W 1 1 u 1 < i 5 < 4 r t r < u < w t t G F t 6 6 1 r 4 5 t t 4 e y w p T O.%.O...[ ",
"[ ..u ; r u ^ o.;.j p < t O t O 5 6 2 N N O 6 O 6 1 9 1 2 5 < u y e < w u , u R e e t 6 4 e 5 t 5 r 4 4 e y J +.#. .] ] T T T p ",
"w y , u $.R u , t } | H 6 1 5 6 6 1 5 6 : 4 i 5 5 , 1 6 5 5 1 5 |  .}  .O.| } | +.} a e r r < r w a T O.o.O. . .O.{ {  .f O y [ ",
"j O.#.%.:.` , t , t t 4 2 6 C F 1 9 6 5 i t : t i G ^ ~ F 9 6 9 w r f T J p r w , a R } | } } } [ R J J j T T ' w p y y J  .' y ",
"%...[ ..{ p y w r w e 6 t 6 4 4 6 : t , o a Y J Y a < 5 i S Y Y } g s a q O y t y e t r w r r u t 5 , < u s g U U R U u y r 4 O ",
"y w u w w u u w r < 4 4 4 4 6 t 5 a 7.q.H o w t r < < w 6 i u 6 2.@.' H y r D f t 4 r r 5 w r , R L a 5 ; < u i w w p } ' a e i ",
"w E G > r r > t , r t r 4 4 4 5 1 ; 6 < , p r q , r r r 5 , , 1 C o O r 4 t S r r t G G a 5 r r < 5 5 5 u p s j { O. .{  .} ' ' ",
"..&.R u w u , u } } | R C r r 5 i F a , i ~ | | O.} Y a r t i i H r 4 t : r i e 4 r r e < , u J u a j R E E T d w ' $.O. .O. .] ",
"r , < i y } +.} Y s 6 6 4 4 5 t 6 1 6 Y S : t t t Y +.+.~ D D H t 5 t 6 4 C | | +.| ~ } @.+.} | U U D a u u r , r u q , , y y w ",
"R E U u o t 4 t a : 5 Y ~ H t 4 5 6 : C ~ | +.: r r 5 5 5 t t 5 1 i ~ H t 4 e e e t 5 i } U r r 5 r 9 1 < 5 r r r w r r r r q 5 ",
"< u U U r 5 i , t 4 r G H R ~ H 5 1 5 6 4 t t r w < 5 r r 5 , r t r 4 r t r r r e i J i , y r w 9 5 5 < 5 5 < 6 6 , 5 i 5 r t 4 ",
"r < 5 r p G D i 4 4 t t 5 t D R t 4 r e 4 e 5 5 u i u < w r t 5 4 t H Y H R H ' e q r e , r r u < U E R Y Y U Y L E Y F H H S S ",
"r r r r i i t 5 t r t 4 4 4 4 r t 4 e i r r w , w > r O.&.g r w i a t r y G R J ' H ' ' R Y G J U R j i w u u r < u r r i r t J ",
", < r t C H R R 4 4 5 t t r 4 : 4 4 i H R R R R +.} g [ +.| +.[ , , y i G R ' R ' J J r < r r i u < , i U s u 1 r : 4 5 , w t 5 ",
"p < t G H R H r r S H F H C t t t e i R } } [ ' J R U ' ` G J y t s Y H f y q r q y y q r a S G U i : , i i 6 r 6 5 t r a ^ ~ t ",
"R s J ^ ~ ~ Y 5 4 4 5 5 6 t 6 t t 4 e t t i r y r r p J y y f T G g S p w > q y | } | +.+.R i r < u u < 5 5 , 1 4 t 4 : 5 r t J ",
"Y a r w , , t r ~ G t 5 t 1 1 4 t t t t , , r 5 5 p ' s q i y , t t q q y y y y y y q , 4 5 : 4 +.+.R a e , e y r r y y y q y  .",
"r r , y t t 5 4 5 t 5 6 e 4 C Y H H ' H t 4 r r p , R  .} $.[ +.J Y Y J R } | | } | } t e t r r w w p E +.+. .| +. . . . .#.{ y ",
"i < 5 r u J } ..^ u < < 5 5 r r [ +.} q t r r 1 r r s Y +...t w H } ' t O C t C 5 r i ; u E s w w p { O.R p < q w t O a > r p ^ ",
"R u w r < 5 u r r , r i r r r < E R G a R } +.^ } } ' a r < , r e O C e e C O O 5 1 5 5 i < < { &. .{ g y w e t r 8.u.5.a 4 4 6 ",
"a < u Y R Y R Y r r G E E R G u U i r < t p G s u r t r < u r : t e e e e C e e r 4 5 a E [ u < y w w q r T [ | O.' , y < i 5 4 ",
"5 5 i F a 6 1 5 Y Y W Y L D u : 5 < , 1 q w 5 , Y U G u < < 5 u 4 t C C e O e t t 4 9 < 2 E E w  . .$. .} +.R s J s 4 y < 5 , t ",
"L L L B 2 & 2 2 2 7 Z 9 2 3 7 9 : 6 6 i H H C O t y i D ~ L a D S i , , e C t e 4 t ^ X.Q Q R u < w u 1 < i 5 ; 1 5 5 2 5 9 4 6 ",
"- 7 7 * 3 m V m 7 n n * & * * 7 B ! I W | *.| | Y D 2 i / ) / ) X.*.Y Y 1.t.3.C t 2 9 C s 9 B L o.^ Y 9 2 9 6 2 2 1 N W I A 7 A ",
"c c k = c c =   c   c   c b c c # M n n n I ! _ - m m K K - - 8 7 4.y.4.! W W 2 O N B 3 - 7 K ( V 9 7 & @ - 7 m - * & % * n * n ",
". . . z z . . l z . x . .   . . k k   c k n c c c c = c = = v = - 8 * 7 c O 3 3 c V I P 8 = 8   v # c c c c c c c $ k k c c k x ",
". . . . . . . . . . . . . . . . . . . . . . k k l . . . . k k k = = z v 8 = v v z   z z z   . . . . . . . . . . k k . . . . . . ",
". . . . . . . . . . . . . . . . . . . . . . l . . . . . . . . . . . .     = = z . .   z z z . . . . . . . . . . . . . . . . . . ",
". . . . . . . . . . . . . . . . . . . . . l k . . . . . . l . . . . . . . k z k . . . .   . . . . . . . . . . . . . . . . . . . ",
". . . . . . . . . . . . . . . . . . . . . . . . . . . . . . . . . . . . . . . z . . . . . . . . . . . . . . . . . . .   . . . . ",
". . . . . . . . . . . . . . . . . . . . . . . . . . . . . . . . . . . . . . . k . . . . . . . . . . . . . . . . . . . . . . . . ",
". . . . . . . . . . . . . . . . . . . . . . . . . . . . . . . . . . . . k . . . . . . . . . . . . . . . . . . . . . . . . . . . ",
". . . . . . . . . . . . . . . . . . . . . . . . . . . . . . . . . l . . . . . . . . . . . . . . . . . . . . . . . . . . . . . . ",
". . . . k . . . . . . . . . . . . k k . k . k . k k . . . . . . . l . . . . . . . . . . . . . . . . . . . . . . . . . . . . . . "
};
