/* XPM */
static char *_d646e0ea2854a9faa53a1d5babf6cf8BsVkyZKiAF36r5gF[] = {
/* columns rows colors chars-per-pixel */
"64 64 137 2 ",
"   c #3D4E3C",
".  c #3F5136",
"X  c #3E513D",
"o  c #425436",
"O  c #45553B",
"+  c #48563F",
"@  c #46593D",
"#  c #233C52",
"$  c #314543",
"%  c #3B4D44",
"&  c #33474A",
"*  c #354A4D",
"=  c #3A4E4C",
"-  c #3D5143",
";  c #3E514A",
":  c #264156",
">  c #2C4355",
",  c #26435B",
"<  c #2C455B",
"1  c #2E495E",
"2  c #324656",
"3  c #344A54",
"4  c #394C54",
"5  c #31465B",
"6  c #334A5D",
"7  c #394D5C",
"8  c #375057",
"9  c #3D5254",
"0  c #36515C",
"q  c #3C535A",
"w  c #264561",
"e  c #2C4761",
"r  c #2E4A62",
"t  c #2E4C68",
"y  c #324763",
"u  c #334C63",
"i  c #394E63",
"p  c #334E69",
"a  c #3A4F6A",
"s  c #2F506F",
"d  c #365065",
"f  c #3A5265",
"g  c #3E5964",
"h  c #35526A",
"j  c #3A546A",
"k  c #3E596E",
"l  c #365572",
"z  c #3B5672",
"x  c #3D5A73",
"c  c #3E5D79",
"v  c #404F48",
"b  c #435443",
"n  c #485741",
"m  c #465944",
"M  c #485A44",
"N  c #42554B",
"B  c #45594B",
"V  c #4A5B4B",
"C  c #415454",
"Z  c #445954",
"A  c #485C53",
"S  c #41555C",
"D  c #43595B",
"F  c #4A5E5C",
"G  c #4D625C",
"H  c #445A63",
"J  c #4C5D64",
"K  c #42576C",
"L  c #43596D",
"P  c #495E6B",
"I  c #435D74",
"U  c #485E74",
"Y  c #435F79",
"T  c #4D6163",
"R  c #4C626B",
"E  c #516464",
"W  c #526768",
"Q  c #556969",
"!  c #586D6C",
"~  c #5B7061",
"^  c #466175",
"/  c #4A6275",
"(  c #4E6877",
")  c #45627B",
"_  c #4B647B",
"`  c #4E687E",
"'  c #536B74",
"]  c #5A6E74",
"[  c #51677C",
"{  c #536B7D",
"}  c #5F7573",
"|  c #5E767A",
" . c #466482",
".. c #4B6681",
"X. c #476985",
"o. c #4D6A84",
"O. c #4D6D8A",
"+. c #526C84",
"@. c #596E82",
"#. c #526E8A",
"$. c #4F718D",
"%. c #557186",
"&. c #5B7385",
"*. c #54718B",
"=. c #5A748C",
"-. c #5F7A8F",
";. c #4E6F90",
":. c #567592",
">. c #597692",
",. c #5C7993",
"<. c #5E7D99",
"1. c #607684",
"2. c #637A88",
"3. c #637C96",
"4. c #7D98AD",
"5. c #7997B1",
"6. c #7C9CB5",
"7. c #819AAE",
"8. c #829CB3",
"9. c #86A1B5",
"0. c #8DA2B7",
"q. c #86A2BC",
"w. c #8AA4BB",
"e. c #8EA9BF",
"r. c #91A7BE",
"t. c #8FAECA",
"y. c #91ACC4",
"u. c #96B1C6",
"i. c #96B2CB",
"p. c #9BB6CD",
"a. c #9EB9CF",
"s. c #9CB8D0",
"d. c #A0B9CF",
"f. c #A4BBD1",
"g. c #A1BFD9",
"h. c #A7C2D7",
"j. c #A5C1D8",
/* pixels */
"O + O O O O o O O O O n + O O O O O O o O O O o O O O O o O O O O O O O O O O O + o + o O O o O O O O O o + O o + O O O o o + o ",
"O + O O O O O O O O O O O O O o O O O O O O O O O O O O O o O O O O O O O O O O o + o + + O + O + o o + O O O O O O O O @ + O + ",
"+ O O O b O O + O O O O O O O O O O O O O O O O O + O + O v b O O O O O o O O O o + @ O o O + O O O O O O O + o O O O + o O O o ",
"+ n O O O O O b O O O O O O O O @ O O O O O @ O + O + O O O O O O O O + O O O O @ @ o O O O o O O O @ O + o O @ o + O o + O O + ",
"O O O O O v O O O O O O O o O O O O O o O O O O O O + O O O b O O O O o O O O O O O O O O O O O O O O O O + O O o O O + O O o + ",
"O O + O O + O O o O o O O O O O O @ O O O O O O O O O O O O O O O O O O O O O O O O O O O O O O + O o + O o O o + O O o O O O O ",
"o O v O O O O O O o o O o O O O O X O O O O O O o O O O O O O O O O O O O O O O O O O O O O O O o O + O O o O + O O O O O O O o ",
"O O O v b b v O + O o O O O + + @ @ X O O O O O O O O O O O O O O O O O O O O O O O O O O o O O O O o O O + O O o O O + o O O + ",
"b v b v N N V v O O v n n O v b n O b + + O O O O O O O @ O O O O O O O O O O O O O O O O O O O + O o + O @ O O @ + o + O o + O ",
"C N Z F E Q E C A v v v v % v v B b b b % O O O O O o O O O O O O O O O O O O O O O O O O O O O o O O O O o O + + o O O O O O O ",
"* 9 H J J H C & # # v S D J F C v v v v b b m m n @ O O O O O O O O O O O O O O O O O O O O O O O O o O O O O o o O o O o O O o ",
"7 H K S 7 # 2 7 C C v v 4 4 S 4 & = % = v N B V V m M O O O O O O O O O O O O O O O O O O O O O + O + O O O O O + O + O + O O + ",
"y y i 5 y i i i # # S 7 # # S 7 * 4 * 4 = N N N B m b b b + n b O O O O O O O O o O O O O O O O o O + o + O O + O O O O O O o + ",
"y p p u y y 5 5 U K U U K S 2 2 7 4 4 v 4 4 N N N N N m b b b O O O O O O O O O O O O O O O O O O O O O O o O o O o + O O O O O ",
"Y ..I h y y K U [ U K y S # 7 7 5 7 7 2 4 C 4 C N b b N b - X   O O O O O O O O O O O O O @ @ O O @ O + + O O + + o + o + O O o ",
"_ _ _ Y U ..Y U U K y y a 7 7 5 7 7 5 7 7 4 4 4 * = = = ; N ; - b O O O O O O O O O O O O o O O O O O o O O o O O O O O o o + @ ",
"u I ` ` _ _ I r ) _ ) _ _ ^ U 7 5 i 7 6 7 2 7 2 7 4 9 H S * 4 9 - b @ @ O O + O O O O O @ o O O O + O O O O O O O O + O O O O O ",
"5 j _ @.o.o.....) ) ^ _ ^ f y 5 K P U ^ U f i 6 5 > 6 H P P H 8 C N O o   O + O O O O @ . @ . O O o o O O + o + + o o + o + + o ",
"u 5 u p u r r r u p < e 6 5 i 6 < i r h h e < r j d r < 6 h d > 9 N X X b b n O O O O O @ O O O + o + O O o o O O O o o O + O O ",
"U a < < 1 r u h r u u u j I ( _ ^ ^ k I ) ) ..o.Y I j u p I ` _ R F B b b n O O O o O O O O O O O O O O O O + O O O @ + O o O O ",
"6 6 6 i d L _ o.+.=.%.+._ h 6 < ` _ ^ ` =.#.%.o.p l I U ) X.*.%.1.} G N - - O O O O O O O O O O O O o @ + o O O o + O O O O O O ",
"@.@.&.{ { o._ I 6 1 < k ^ f i f 1 1 1 k o.%.%.%.+...#.>.>.#.%.+./ H q Z 9 ; ; b O O O O O O O O + o O O o + + o + @ o O o + o O ",
"6 6 y i d j i : r p < u h 6 < < d d 1 u u r t u a u y u e e u h d 0 8 q D ; = v O + O O o O o @ O O o O + o + O o O o + O + + O ",
"6 6 i 6 < r u u u #.-._ d < r i < 0 u u u r u u u y p u y k ` %.` h 0 0 0 * $ % N b + O @ @ o o o + + O O O O O O O O O O o O O ",
"y 5 p 6 u u u +.=.` h r p i r u 6 r d t e l +.:.y y e u h t e h s X.*.%.{ ' | } ; - @ X m O @ . + o o O O O + o + o O + O O + O ",
"( _ I p r < u o.z o.o.d , j +.+.%.%.%.*.#.O...Y ..>.=...` %.*.$.$.X.c ..( g 0 = = X X X X X O O o + @ O o O O O O O O O o O O o ",
"1 u u I o.( _ ) +.u r _ ( I _ =.+.*.*.=.:.#.#.:.#.#...j t ^ *.#.$.;.$.=.%.g q q 9 B b N B B b - O O O O + O O O O O O o O + + O ",
"r h 1 i u 1 I +._ =.+.d p +.+.u p p r e u e l +.p u u u < 1 1 t s X.:.X.^ ^ ( R F B - % ; ; - X O O + o O O + o + o O + O o O O ",
"h _ +.=.` u u r f p 6 < < u h U I L h d h < < h < y 5 u p 6 h ^ c O.X.p 1 0 6 3 4 C N G ! Q Z N O O O O O @ O O O o O O O O O O ",
"r i i I ` o._ ^ ^ I h 6 u u < 5 j k z ^ Y I z _ _ o.I u 6 r j o.=.#.O.O.%.%.{ &.] J * & 4 4 = N + O O O O O O O O + O o o @ O O ",
"u u p p u 6 1 u 6 i L / / / +.-.( _ _ _ Y Y ..o.e u u y r 1 r u r 1 t p d i 2 6 7 C S D P S * v O O O O + o + O O + O + + O O O ",
"+.^ _ ^ ^ _ d i p > i i 5 5 i 6 f < 1 u j o.*.+.=.+.#.=.+.o.I h 1 t p < h _ k 6 2 7 2 4 7 2 & B n O O O O O o O O o O O o O o + ",
"_ x k k _ ( y.a.u.p.w.+.u i < i 1 0 6 d < d u ) r u h < y =.3.o.$.O.:.#.o.h e i u 5 5 i 7 3 * = B b @ O O o O n O O O O O O O O ",
"r k 6.j.y.h < < u > ` 4.a.e.%.L d f > 2 i h , u h e x #.#.#.Y l r l *.$.o.Y p < u p u 5 2 4 8 % - - X . o o O O O O O O O O O O ",
"u : j d r # p f k > 5 i i 6 2 a > f 6 k _ %.=.%.*.#.>.X.p e h  .O.c c l  .:.>.o.#.+.+.&.' H 8 9 ; ; m X O O + + O O O O O O O O ",
"%.1 1 , i u u 6 6 < h u > 6 6 6 L 4.a.9.L # d r t w t h t p u e y.i.g.6.) w z o.) Y ` &.{ H 8 9 W G V @ O O + O + O O O O O O o ",
"{ L %._ ( / / [ / 6 > 5 7 f 6 6 # f j i > I w.u.p.u.y.i.u.y.i.s.p < u p w h c X. . ._ _ U R R R W G N b O O O O O O O O O + O O ",
"d > d > 2 y y 6 ^ f 0 6 6 6 6 5 7 L f i y # k =.=.o.j 1 e f p , u h Y ..c O.X. .o. .z p i 6 6 6 q 8 ; b O O O O O O O O O O O O ",
"@.f > 6 a 7 5 i 6 i y i K U j 5 5 2 6 f { h < < u u < I 8.h.8.p U _ U Y z o...:...z u u 6 6 7 i 3 4 ; b O @ O O O O O O + O O O ",
"< i u 6 6 I { ^ [ U 6 5 a i 5 6 7 2 f 2 i 6 1 i 1 h 1 < j { =.{ ^ _ / =.#.#.z Y .._ j < f { 1.{ 6 8 N N O O O @ O O O O O O O O ",
"( _ _ ^ @.< u p i < h I ( I u 6 i [ { L U { @.+.d d < j ) j u u 6 1 6 d ^ o.^ h 6 1 d 6 y 5 f 6 2 S v b + O O o o o o + O + O O ",
", h d 6 < u i < _ _ I i 1 p u 6 5 y i i j I / _ x x h u d 1 r u h i 1 < r d d 1 u < d < p y p < K P C b o o + + O o O O O O O O ",
"a 8.d.e.k 6 1 p 1 u h < i ) _ _ i 1 6 r 1 r j h h ) x h s w x  .) x h t 1 r 1 r u j I d y y Y =.[ R A n O o + o O O O O O O O O ",
"6 a < 6 < ^ +.I _ I _ _ I j 1 r u 1 u h ^ ....x o. .c X.%.O.X.%.X.` ` _ ` _ _ ( _ ) _ ) +...Y K K & $ # O O n O O O O o O O O O ",
"1 f +.&.=._ +.I _ I ^ _ _ I u d d ( %.$.$.o.O.>.:.;.O.;.;.X. . .$.O.O.#.#.+.+.+.Y ) #.....z +.=.[ 7 C Z V v n o O O + o O O O O ",
"u 5 p , a 5 =.=._ z I _ ..o.o.+.` k , h O.=.O.O.X.O.:.;.X.O.O.:.) x p p u u t h >.#.#.=.3...K # i 2 * = v v v v + + o + O O O O ",
"5 p y 6 a 6 5 # p u u r r u t h h t r r r , h X.O. . .Y  . .l w h u e < 1 1 1 r r r p < y # S K i 7 4 = v v   v + + + o O O o O ",
"@.+.u u < p y z u e u u r p h ^ ^ ^ ) ` ) ` I t w e  .;.:.;. ...) _ _ _ _ _ ) ^ _ _ I y a y i # 6 5 7 4 C F v v v + + O O O O O ",
"h e t O.>.#.#.O.*.*._ h r h Y ..Y o...I Y j u o.=.+.h 1 a u < u 6 a L ^ 6 5 f ^ / L f y 6 6 6 6 6 0 0 8 9 ; = - X @ O O + + O O ",
"o.o.,.=.#.;.O.:.O.*.*.#.O.#.>.#.=.%._ p j I I ` ) ^ p < i 6 y a &.[ a i 6 i 5 6 i 5 6 d i 6 1 p d +.{ g g ! ! B @ @ @ @ + O O O ",
"_ h x ^  ...p u p p L I _ / I a 1 6 d 1 1 u u 1 p f i i f 6 3 6 5 p < i L @.( ^ y 7 j / +.%.+.+.o.=.{ g g Q G - X @ O o O b v O ",
"I r u u e p < u 1 u f f a i 5 < 6 < 0 d u u u f 5 < 6 6 5 2 6 6 p a e a 6 y 2 0 5 5 1 r j _ ..Y o.` ^ R R D ; - @ . O O + O O O ",
"L I I j y u a < p 6 5 5 > 6 7 i d 1 d d I _ ) ..h p r u u u k I _ z p p : 0 d 1 6 g ^ ) ..+...z e r d 0 8 3 Z ~ O o o o O O O   ",
"I [ / ^ Y U +.U { I f i 6 6 7 y 1 l ) ` *.>.O.O. ._ ) ) _ ) ^ _ _ ..../ *.u.9.f 6 6 u u u y j _ >.%.%.{ ( q = B @ o O o O O O b ",
"i y a y y a / =._ L L ^ / ^ [ ( =.o.:.$.X.*.:.:.O.=.O. ...) c X...q.g.8.I _ ` 1 < d I ` U p r u r < h { 1.' Z ; b O O O O + O O ",
"6 < f 2 a +.K < u 1 6 i 6 5 5 a *.t w l w l c c X...l w r t l X.+.d , k r 1 d ^ _ _ / ) _ Y _ _ r d i < 3 3 ; ; - O O O O O O O ",
"6 7 2 { @.5 a y 6 a i > f > K 5 d y.s.y.i.i.p.u.y.p.q.x e o.+.*.u ) _ o.^ ) ^ h t d I _ _ _ I d 1 6 6 7 6 4 4 % b @ O O O O O O ",
"6 f 7 6 i 7 6 5 6 6 , j r.f.8.i < j < r f 1 6 u 1 d j 9.s.a.i.1 1 d : d k ` _ ^ o.x u u u y u u 0 ^ ( U P / J = - b + + O O O O ",
"a 2 6 5 i 6 # k r j p e a # K y < i f d < 5 6 0 0 > : f 1 : h u 6 d < d h u p ) c h r 1 1 u 6 8 < 7 7 0 i 0 q = N b O + O + O O ",
"I 6 f i y 5 j w.s.5.=.) _ u K # a.u.7.^ > 0 0 5 0 > g < d k # h : d d %.=.O.p e h ` :.*.+.` k < d 3 > 5 5 2 4 D N O b O + O O O ",
"_ o._ j a 1 u +.t 5.q.t.i.i.q.z < u k 6 5 y < i 0 d 6 1 , u *.%.-.` h e e )  .X.O.,.>.%._ ) ^ d 1 0 d u i K J T v v O O O O O O ",
"r ) z h ^ o...x w  .:.*.o.:.3.I _ _ _ z k u < U ^ ) x +._ Y +.r < h ^ ..) >.*...:.X.c k j u , : 0 1 d d y > 3 9 v O + o O O O O ",
"+.,.` h < p ` -.$.$.*.O.h : u j u u e u I [ ..@.Y o.o.k u r e p u h e e h *. .x r t l ) *.` x h h < u I I 5 7 W v + o O O O O O ",
"u u i y u u u t r ) ) h r p p < y U _ U a y y y i Y +._ Y ) o.) d o.=.%.$.%.s w ) X.) ^ X.$.o.+._ _ { ` I 6 3 = ; + O O O O O O "
};
