/* XPM */
static char *_c987e8ef0bd4f4c863fe453038627e0vWeL5OEeinUvwnGn[] = {
/* columns rows colors chars-per-pixel */
"64 64 123 2 ",
"   c #3D4F3F",
".  c #3E513D",
"X  c #435437",
"o  c #45553B",
"O  c #48563F",
"+  c #46593C",
"@  c #48583D",
"#  c #243E55",
"$  c #2C3E52",
"%  c #354A43",
"&  c #3B4E44",
"*  c #354749",
"=  c #36494B",
"-  c #394D4C",
";  c #3E5144",
":  c #3D524A",
">  c #254054",
",  c #2C4355",
"<  c #2E4952",
"1  c #27425A",
"2  c #2D455C",
"3  c #2E485D",
"4  c #324655",
"5  c #354A55",
"6  c #3A4D53",
"7  c #31465B",
"8  c #334A5D",
"9  c #394C5C",
"0  c #375057",
"q  c #3D5253",
"w  c #3B525B",
"e  c #274561",
"r  c #2C4661",
"t  c #2D4A62",
"y  c #2D4B68",
"u  c #344C63",
"i  c #394E63",
"p  c #334E69",
"a  c #394E69",
"s  c #365065",
"d  c #3B5265",
"f  c #355169",
"g  c #3B546B",
"h  c #3D596E",
"j  c #345471",
"k  c #3B5671",
"l  c #3E5A73",
"z  c #3E5D79",
"x  c #435442",
"c  c #485742",
"v  c #465944",
"b  c #4A5946",
"n  c #42544B",
"m  c #46594C",
"M  c #495A4C",
"N  c #425553",
"B  c #445953",
"V  c #4A5E54",
"C  c #41555B",
"Z  c #445A5A",
"A  c #4B5F5C",
"S  c #51604B",
"D  c #4E6156",
"F  c #4C615E",
"G  c #536559",
"H  c #415664",
"J  c #445D64",
"K  c #4D5F64",
"L  c #40566B",
"P  c #445B6D",
"I  c #485D6C",
"U  c #445D73",
"Y  c #495F73",
"T  c #455F78",
"R  c #4C6264",
"E  c #4D626C",
"W  c #516564",
"Q  c #556966",
"!  c #596D62",
"~  c #52656B",
"^  c #516A6E",
"/  c #466076",
"(  c #4A6275",
")  c #46627B",
"_  c #4B647B",
"`  c #4F687D",
"'  c #536770",
"]  c #536B75",
"[  c #50667C",
"{  c #526A7E",
"}  c #596F7E",
"|  c #5D7170",
" . c #5B737F",
".. c #466582",
"X. c #4B6781",
"o. c #4D6A82",
"O. c #4D6D89",
"+. c #536C84",
"@. c #596F85",
"#. c #526E89",
"$. c #577085",
"%. c #5B7382",
"&. c #55718C",
"*. c #5A748C",
"=. c #5E788F",
"-. c #567591",
";. c #5A7691",
":. c #5C7A93",
">. c #62788D",
",. c #617C93",
"<. c #666497",
"1. c #8298AF",
"2. c #85A3BB",
"3. c #8CA6BC",
"4. c #8EA9BF",
"5. c #8EA6C0",
"6. c #8DAAC3",
"7. c #92ACC5",
"8. c #91ACC8",
"9. c #96B0C7",
"0. c #95B1CC",
"q. c #9AB4CC",
"w. c #99B7D1",
/* pixels */
"_ [ U a 3 , s 3 8 8 U ( _ Y a u 7 g U ( ( f 3 u p 7 r u p u 3 2 ) O.X.) z T ..X.r a a 8 u i 4 5 9 4 s 3 p ) E R A m x o x x x o ",
"7 i i U _ ` { / ( h g u 8 i 7 7 2 8 8 u P ( [ @.@.o.L u 3 8 u d k _ #.$.:.-.o.#.+.*.[ u 4 8 8 9 5 5 +.*.*.{ w q B v o . o o x x ",
"i r 7 i t u s t s u s 3 a U a a g U ( _ _ _ k p 2 s T +.*.%.$.{ 3 u f f g s r p g r , a +.@.a , 9 , 8 u 3 7 5 Z n ; X X o o o o ",
"u u i p 3 s / ] ` ( h s a Y Y _ h h d u u u u p u a u a u u 8 3 u u 2 3 u u a U Y T X.Y u , i @.8 9 a 8 8 H q % x X X X o o o X ",
"U o.) h ) / t t 1 t h h / +.) Y _ U U T ( ( _ ( ( P s 2 , 3 8 u i u i g U Y Y [ [ @.[ a 8 i 8 4 8 i i 7 w ' W m x O o o o o o X ",
"i +.$.:.q.6.o./ o.) / s 3 t u f p 2 h +.o.` ( g u 8 8 s s 8 t 8 7 4 4 8 u 8 u 8 $ 8 i $ $ 9 i i 9 a U E I K N   x O O o o X o o ",
"T k 2 1 O.-.X.-.&.&.-.&.&.&.+.+.f 2 s s 2 3 s 3 u 8 s s 3 2 3 s i i i 7 7 9 8 8 a 7 9 H H 9 4 4 8 7 5 6 - - ; x   O O o o o O o ",
"p r ) &./ p t y y 3 t y y f t t 3 g ` o.s 8 s 3 3 d _ *.` g 3 u 7 r i 8 r 8 i 7 i $ H 8 $ 5 8 9 8 8 8 6 - & : x o o   o o o O O ",
"s t t t ` <.w.0.6.l o.#.=.) <.{ %.s > s 8 3 3 8 , a a r a X.*.+.@.+.+.+.r u a 7 3 u u 4 h 2 a 7 2 0 0 0 : ; v o o o o o o O o o ",
"9.2.<.{ <.#.` ) o.z O./ / t t 3 / g 3 3 s 9 8 3 g _ +.+.@.*.*.X.r g f u 8 p 7 u +.@.:.+.) j u u f / R D : ; ; . x o o o o o o o ",
"< f t s y f ) s t f 3 > s h t 0 g _ ` ( ( P s 3 7 u L a u r u p g X.o.+.$.o.p p p e t p j O...-.&.:. .^ q m m v x x x o o o o o ",
"{ 3 3 t 3 f t u t s 2 f 1 h / ` , u 8 8 s 3 2 s _ _ T a u r t s r r g @.*.*.+.+.#.&.&.-...O.j y e t t 0 q B V v x x x o o o o o ",
"t 3 s f ` O.` :.#.&.] &.s f u 3 8 8 u u u 3 7 u d P ) _ _ _ _ _ ) 8 r a 7 2 u p p O.O.*.O...O.-.:.#._ ^ R Q ! G M n x o o o o o ",
"s +.*.) h y j e y -.-.#.y 3 f ` @.+.+.+.) U u 2 3 u u 8 u 3 3 < u u u 3 u u p u u u r p z f O.&...f s w - B V D b v x o o X o X ",
"<.` O.&.o.z -.O.O...y y ) o.) h 8 p u r g ) +.*._ h 3 2 3 0 9 d 7 u i 7 U d 8 4 7 7 T u y # k t h > < q n n v & x x O X o o X X ",
"e f ` z O.-.O.&.-.&.&.O.-.o.#./ _ ) a 2 u i u ( ) u 2 d / ( ( ( [ U i 7 g 8 8 u r L 1.U 2 g 5.q.3.$.R B & n x x x x o X o o o X ",
"t 3 3 3 u U / f 7 u u u 7 8 7 u u 8 a U _ ( U _ [ ( a 7 9 u 7 9 8 t $.*.o.u ` 9.q.3.*.+.&.#.;.#.3 3 0 : n x x x x o O o o X o o ",
"t 0 9 9 u d i , i 8 7 u i u 8 8 7 8 7 7 u 8 7 i 7 u 4 8 P I d u s 3 3 1 s f u f 3 a r u a $ u u p g E R B x x o x o O o o o o O ",
"w < < 8 7 7 7 u a u u 8 7 8 u 9 i d 9 4 8 i 9 8 i , , i L a 7 u 1 f ) ` / 3 u 2 u p p u a u 3 7 2 8 w : & x b S o o O o o o O O ",
"E s 9 s 9 7 7 i 7 u u s 7 7 g Y U H i 9 9 i 7 , 8 u a , 7 Y ` ( +.U 3 s f t ` _ P i u $ 7 i 8 u ` ( J B x & o v x x c O o o O O ",
"9 5 4 9 a i u u $.$.+._ f 3 7 u d d 8 7 7 7 u L u 8 Y +.+.@._ ( U o.Y _ h / } 5 s 9 i 8 8 9 8 9 u 7 0 : n o o o O c O O O o O O ",
"5 9 9 d ( { +.+.u 8 p f u u u 7 [ { _ L i 4 i _ { d u 3 u 3 1 i p @.:.@.u 9 _ ( I I E P d i 8 8 u w w n v + + o O   O O o o O o ",
"7 5 4 7 a h U _ $.O.+.+.+.+._ h u a u 3 3 8 u a u U ) u i ( a 8 3 8 , a 7 8 9 4 i i 7 8 , $ a u ( I Z ; . . X X   O O O o o o O ",
"i i 8 8 u 7 r p y t f u 3 u a , u u t f +.,._ u u u u 8 8 8 8 @.3 s 7 u , 8 8 i 4 8 7 i u i @.@.} ~ N ; + v + X X O O   X X O o ",
"i $ u $ u t 2 &.$.o.f 2 u u i u u o.*.O.s p ` $.*.{ d 7 4 4 u 8 8 s u 3 3 3 0 s 4 i u g _ g r a 4 4 - x o o X X O   O O X o o o ",
"u i u a l ` ) o.U o./ s 7 7 _ >.+.$.` $.$.( g 2 7 i u d i a Y ( ( ) / g f s 8 3 a u , a X.T U Y ~ A m x o X X O o O O     O O o ",
"U [ T [ ` ` ) 8 u u 3 t a i i 7 8 d 2 8 a 8 9 d u 9 7 7 $ 7 7 u < y g h g a u t ) _ o.` T L i 8 6 n x o X X X o o O X X o O o O ",
"r r u u 2 s U ( *.+.g u 8 8 u 7 8 i 7 4 9 i 8 , 7 7 7 i H H i 4 l _ o.$.{ ) T ) u u u u L U U I = & x O o o X   O o X O X X o   ",
"i a @.@.g u 2 s 3 3 3 u u 3 u i u 2 7 u P _ ( g 9 g U Y P P ( +.U T k p u r t u s / _ ` *.{ d w N n c o o o o O o o o o O O o o ",
"i 7 Y a , i u ( { U u u 3 3 a r U u u p u f k / _ ( ( d 7 u L [ _ _ T _ #.;.*.#.O.%._ d 9 , < w n o o X X X O O O o o o X X o o ",
"7 8 L i 7 9 7 8 3 s U _ _ ) +.#.*.) ) ) _ ) s u u u u u 8 8 7 u r r r a T _ _ T / h 3 2 8 0 9 q n x o x O o   o o o o X X X o o ",
"u i 4 7 u 7 u u u 3 3 u t f o.*.#.#.-.O.*.O.f r u r p 3 u p 8 u u u u r u u u p u 3 8 s 5 9 I W x X o o X o O O o o o X o o o O ",
"4 u u g [ @.;.@.*.$.` f u u 3 u y j z ) ) X.O.-.-.O.-.y f 3 p ) ( ) _ r p a a $ i 7 8 7 5 9 6 N x o o o o o o o o o o o o X @ o ",
"p i 4 7 p a r $ / _ _ U U _ ) +.&.&.&.&.+.#.O.....O.) ) &.O.+.f u d @.#.*.X.+.g 8 i 9 C 6 = * n x o o o o o o o o o o o o o o o ",
"8 i 7 7 a P P L 2 8 u u u u 8 p t u u 3 t h o.O.-.O.` -.o.-.-.1 t > t p g f a $ 5 4 4 6 6 $ x n o o o o o o o o o @ @ o o o o o ",
"Y I H 8 9 9 $ $ 9 8 9 u u 8 8 u 3 u s t 3 1 t y f e f #.` =.+.:.u f f t r 3 P } E C 6 6 N n & x x o o o o o o o X X X o X o o o ",
"i i 4 $ 4 9 C C 4 4 4 8 8 7 u u *.$.` _ h p u p f X.y t t t p 6.f ) &.o.g i H ( ~ C 6 n n x x x o o o o o o o o o o o o @ o o o ",
"Y I H 9 9 9 $ 4 9 9 9 9 8 7 8 7 u 8 s s 1 1 k +.) <.t 1 f y f y y f ) +.U ( E q N N n n n & o o o o o o o o o o o @ X o o o o o ",
"i 9 8 7 9 9 9 i 7 5 7 9 8 8 f 3 3 t g / k k ` &.-.*.` <.5.q.5.k ....z / s w 5 w A A D m x o O o o o o o o o o o o o o o o o o o ",
"4 8 8 9 i 8 7 9 8 i 7 u 8 d U s u 2 3 g ` #.&.o.( t y 3 g 1 *.7.0.8.:.{ *.] 5 ~ C V m &   o o X o o o o o o o o o o o o o @ X o ",
"i u 7 u u u t s u t u ) _ / _ ( [ _ Y X.Y T a r u 3 t 3 u s u u t f 2 3 E ] J : - ; : v c O o X o o o @ o @ o o o o o o o O o o ",
"7 u u u u u g ` *.o./ ) ` _ / f 7 i $ u a T _ _ 3 p s s 3 3 8 u 2 s s w I E q = : n n o o o X o o o o X o X o o X o o o o X X o ",
"_ Y T _ +.O.O.&.O.:.:.` y 3 s 3 r 7 u u u u u i ` T U h s u u 7 P J w w C Z Z B m m o o o X O X o o o o o o o o @ o X o o o o o ",
"i r a _ *.$.o...y t e f o.:.o.u i u i u 3 7 u r +.` T ) o.+.+.} E w q q N B A V m m x . o X X O o o o o o o o o o o @ o o @ o o ",
"8 2 u / _ / U ) _ X./ f r 2 8 p P [ +.+.+.*.*.$.s y f p f 3 t 0 w & ; : : : n ; n x o o o o o o X o o o o o O o o o o o o o o o ",
"Y d u 9 u 8 u u 1 u U ` o.` ` *.Y a a d P 8 3 3 ) / ) O.$.$.} ] - ; n M x . ; ; & o o o o o o o @ o X o o o X o o o X @ o X o o ",
"[ g 7 7 7 i 9 8 9 8 u 7 2 3 g +.*.a 2 2 g 3 0 0 8 u f ) $.] R q n v v v o . x v o o o o o o o o o o @ o o o o X o o o o o o @ o ",
"u 8 8 u 8 8 9 7 8 4 8 u s 8 $ p 7 7 s s ] $.] 0 < 3 R }  .^ w ; v . . X o v o . x o o o o o o X o o o o o o o @ o o o o o X o o ",
"u p u u a Y @.@.+.a u u 7 u i 8 H a 7 i $ H 6 6 Z Q | Q B : ; x o o o o o o o o o o @ X o o o o o @ o o X o o o o o o o o o o o ",
"@.#.*.&.X.a u r a 4 2 u i L ( ( L H i $ 4 C N - & m V m x x x o o o o o o o o o o o o o X o o o o X o o O o o o o o o o @ X o o ",
"a u k X.T L L T a u i L [ { E 8 H C N $ N N n x & x x x o v @ X o o O X o o @ o o o o o @ o o o o O o o o o o X o o o o @ X o o ",
"7 u H _ L a r i u u i i 4 4 5 - n * $ * N * x x x x x o c @ X o o o o o o o X o o o o o o o o X o X o o o o o o @ X o o o o o o ",
"4 4 4 5 5 4 4 9 7 9 I ' ~ C 6 N n n n N n & & X o X o o o c X X o o o o o o o o o O X o o o o @ o o o o o @ o o o o o o o o o o ",
"K N - * = C K ~ ~ N = - N n n n n b n x x o o c X X o o o o X X o o o o o @ o o o o o o o o o o o X o X o o @ o o o o o o o o o ",
"n ; : n n x n & x & n m n . X x x x x x x o o o X @ @ o X X o X X @ o o o X o o X o o o o o o o o o o o o o o o X @ @ o o o o X ",
"x . x v x x x x n x x x o x o o O o o x x o o X X o X X o o o O @ X o o o o o o @ o o o o X @ o o @ o o o X o o o o X o o o o @ ",
"x x c x o o o O o o o o o o o o o o o o o o o o + X o o o o o o o o o o o o o o o @ X o o o o o o o o o o o X o o o o @ o o o o ",
"c x o o o o X o o o O o o o o o o o x O x o o o . + . o x x o o o o @ X o o O X o o o o o o o o X o o o o o @ o o o o X o o o X ",
"x O o o o o o o o o o o o o o o o o o o o o o X + . o . o o X o o o o o o o o o o o o o o @ X o @ o X @ o o o o o O o o o o o o ",
"O O O o o o O X o o o o o o o o o o o o o o o o o o o . o o O o o o o o o X o o o o o X o o o o o o o o o o o o o X o o o o o @ ",
"o O o o X o o X + o o o X O X o o o o o o o o o o o o X o o o o o @ o o o o o o o X o O o o X o o o o o @ X o o o o o o o o o o ",
"o x o o o o o o o o o o O X X o o o o o O o o o o o o o o o o o X o o o o @ o X o o o o o @ o o o o @ X o o o o o o o o X o o @ ",
"O X o o o o o o o o . o o o o X o x o o o o o o o o + X X o O X o o o o @ o o o o o o o o o o o o o o o o o o o o o O X o o o o ",
"X o o o o o o + + . x o o X o X o x o x o o o O x o X X o o X O o o X o o o o o o o @ X o o O X o o o o o o o o X @ o o o o X o "
};
