/* XPM */
static char *_01ca8716a284a17fbaf36fcc98559e7DLLGOdZzSgz56EqH[] = {
/* columns rows colors chars-per-pixel */
"64 64 190 2 ",
"   c #3C4E36",
".  c #374C39",
"X  c #3B4E3D",
"o  c #3F5137",
"O  c #3E513D",
"+  c #404F3C",
"@  c #435237",
"#  c #45553B",
"$  c #49573E",
"%  c #46593D",
"&  c #243B4D",
"*  c #263C51",
"=  c #2A3E52",
"-  c #233A59",
";  c #2B4544",
":  c #304544",
">  c #374C45",
",  c #3B4E43",
"<  c #33464B",
"1  c #344B4C",
"2  c #3A4E4C",
"3  c #3E5243",
"4  c #3D524C",
"5  c #274057",
"6  c #2C4355",
"7  c #2E4857",
"8  c #26435C",
"9  c #2C455C",
"0  c #2E485D",
"q  c #324556",
"w  c #354B54",
"e  c #394D53",
"r  c #31465B",
"t  c #334A5D",
"y  c #394C5D",
"u  c #355253",
"i  c #3C5454",
"p  c #35505B",
"a  c #3B535C",
"s  c #3E585B",
"d  c #2B4661",
"f  c #2D4A63",
"g  c #2E4D69",
"h  c #304663",
"j  c #334C63",
"k  c #394E62",
"l  c #334E69",
"z  c #365166",
"x  c #3B5265",
"c  c #3B5A62",
"v  c #35526B",
"b  c #3B546B",
"n  c #3D586D",
"m  c #365471",
"M  c #3A5571",
"N  c #3E5A73",
"B  c #414F41",
"V  c #435443",
"C  c #485742",
"Z  c #465843",
"A  c #4A5944",
"S  c #43554B",
"D  c #455A4B",
"F  c #4A5B4B",
"G  c #425553",
"H  c #455A53",
"J  c #4C5D51",
"K  c #42575C",
"L  c #435B5C",
"P  c #495D59",
"I  c #4E614E",
"U  c #4D615A",
"Y  c #546552",
"T  c #586752",
"R  c #5A6A57",
"E  c #51655C",
"W  c #52685C",
"Q  c #415665",
"!  c #445C64",
"~  c #4A5E64",
"^  c #42566B",
"/  c #435A6D",
"(  c #4B5D69",
")  c #465771",
"_  c #445D74",
"`  c #495F73",
"'  c #445E7A",
"]  c #476067",
"[  c #4B6365",
"{  c #47626B",
"}  c #4D656C",
"|  c #4F686F",
" . c #546661",
".. c #536B65",
"X. c #546B6E",
"o. c #586A6A",
"O. c #5C706F",
"+. c #476175",
"@. c #4C6275",
"#. c #4F6A77",
"$. c #45627C",
"%. c #4A6579",
"&. c #4E6479",
"*. c #4E657A",
"=. c #4A647D",
"-. c #4A667E",
";. c #4F667D",
":. c #4A647C",
">. c #4E697D",
",. c #506775",
"<. c #546C74",
"1. c #586D70",
"2. c #50627A",
"3. c #546778",
"4. c #51677C",
"5. c #55677D",
"6. c #51667B",
"7. c #52687D",
"8. c #536B7E",
"9. c #54697E",
"0. c #526A7D",
"q. c #596B7F",
"w. c #567075",
"e. c #5D7172",
"r. c #52707B",
"t. c #5C757D",
"y. c #627875",
"u. c #476483",
"i. c #4A6682",
"p. c #4F6964",
"a. c #4F6B81",
"s. c #4D6A83",
"d. c #4E6C88",
"f. c #546A81",
"g. c #556B82",
"h. c #556D83",
"j. c #526E86",
"k. c #526D86",
"l. c #546C84",
"z. c #566C84",
"x. c #546E85",
"c. c #556D87",
"v. c #546E87",
"b. c #526C84",
"n. c #586E86",
"m. c #596E84",
"M. c #596F84",
"N. c #526E8A",
"B. c #536E8A",
"V. c #4E708B",
"C. c #557185",
"Z. c #5A7087",
"A. c #5A7684",
"S. c #567089",
"D. c #57718A",
"F. c #577389",
"G. c #55728C",
"H. c #5B7189",
"J. c #58728B",
"K. c #5B778F",
"L. c #5E778D",
"P. c #5A748C",
"I. c #5E788F",
"U. c #567491",
"Y. c #597592",
"T. c #5B7893",
"R. c #607785",
"E. c #64798E",
"W. c #607890",
"Q. c #647D93",
"!. c #7F98AC",
"~. c #8399AC",
"^. c #859FB6",
"/. c #879FBB",
"(. c #87A2B5",
"). c #8EA5B7",
"_. c #88A2BB",
"`. c #93A8BD",
"'. c #8BA6C1",
"]. c #8FABC3",
"[. c #8FAAC8",
"{. c #94AFC4",
"}. c #98AEC5",
"|. c #94AFCA",
" X c #97B2C7",
".X c #95B1CE",
"XX c #9AB5C8",
"oX c #9CB6CC",
"OX c #9FBAD5",
"+X c #A9C2D6",
/* pixels */
"# $ $ + # # # @ @ C G e r r t k t j j y t t t w t t w y y y y Q c.c.B.' i._ %.:.t t t t t r k 2.h = k y y y y t Q ) ,.` k t t q ",
"# $ # # # # # #   V P ~ ( x t t t t t t t x k q t t y y q q y = h l c.H.c.z t t t t k t h ^ ) r y k k Q k y q q r t j y r t y t ",
"$ # # # # # # # C V 4 K @.9.9.,.0.+.+.:.@.@.` k Q q q t t k k k k h = h z 0 0 t x t r t h r r k r k = = = t k k y k / 2.9.,./ k ",
"# # # # # # # # C 3 2 w y x z t 9 9 x z 7 7 k t = k k y y r r k h h ^ k j t t t * x x z q.W.c.m.H.m.2.) k t y r j r t h t k ^ / ",
"# # # % @ # # # + S S e q r t t  X XXX!.` t k t Q r y y = h j j r h k h 7 j j r b C.%.j l f 9 z h k k h k k k h k j k j r r r t ",
"# # # @ # # # # A B 2 e y k k 7 t t z x = = k k f.E.'.}.Q.f.F.>.c.M.c.H.M.W.p.j h 0 z z j 9 n a.H.c.n.n.c.n.c.f.Z.2._ x t j k y ",
"# # # % # # # C + , 2 K 3.M.@.k j r 6 r k k a r Q = h k d b ' v h j h j d =.Z.H.B.j.C.s.C.P.a.f l h j k h k ^ ) ' ` *.-.2.@./ y ",
"# @ @ # # # C # V V > < q x k h t t k y t k t t = ) ) l h 9 M j.j h f ' ) i.M d g l f z f f v $.u.' ' ' b - r b j j j t r j k t ",
"@ $ @ # $ # + $ V V S e r j j t h 2.@.+.` k r j t j j h h j j h F.F.:.j 9 l ' i.' ' i.b.' v d f f v f 8 l l 0 j h h 0 h t t t y ",
"@ $ % # + # F R V S G e q k k l j h t j x _ >.+.*.@.@.+.@.@.&.` _ x 0 z +.i.$.M g m i.Y.u.m v g v -.$.v z b x j L.h.h.L.h.x r t ",
"% % # @ # + + C V 3 2 e Q _ ' ' ' u.' v 8 z :._ / z t t j t y y k t t z j h b ' T.i.' u.s.k.k.s.s.T.G.-._ :.$.$.' j 0 z _ ' x t ",
"% # # $ A $ $ C V V 4 L ,.Z.Y.Y.U.k.N f 9 0 j 0 x t 6 q w y y y t w x +.` ` :.L.d f ) b.s.p.i.-.$.$.n l z j 9 z j _ -.+.x t h r ",
"# C # # # + A T X V P X.M.>.M d d m u.N.P.F.l.F.C.%.! z t w r 7 t 0 0 z z j 9 7 h h h z h z _ :.g v v m $.%.n s.j.M d f f h j b ",
"V C # @ # @ # C Z 3 > 1 t b u.V.U.d.U.s.v 9 f j z t 7 7 t z j j z j l d 9 0 l l j r t j j j j f s.V.G.a.p.' 8 z f v p.Y.v.j.l.8.",
"# # @ # A A # @ C V H L +.$.u.u.g 8 b %.-.:.z 9 j h j z _ _ $.$.%.$.N u.i.i.-.%.%.:.-.+.j 7 t x N 8 v -.j.P.B.G.B.B.G.B.B.Y.k.l ",
"V # # # # # @ Z V O 3 K } p.u.u.%.-.' x ' ' t j j h j ' i.$.i.S.d.U.U.U.G.B.s.p.j h t h t t j h ].i.N V.%.N l d l d l l f j l h ",
"$ # # $ + # # # Z I 3 4 } >.+.-.+.+.+.%.-.b.F.P.K.P.F.b.S.G.N.i.i.' b h g j z C.l.j.v.F.F.H.f.j G.].|.OX_.N = j j 9 d j j j _ i.",
"# # # $ C # $ B V V D H K t 0 j t z z t f h h 0 0 0 h b ' -.N v - b ' ` f.%.f j h h j j b -.p.+._ v 0 d 9 9 z %.f.i.-.%.$.s.p.' ",
"# # # # # # # # O o D U i t z l 0 t j j h f j x z w q t t z p t k k h t j j 9 z j z r t j j t 9 x 6 z t x 2.@.@.9 7 b f.G.s.$.v ",
"# # # # B $ # # # O 3 4 u / +.l v t 9 h j 9 0 j t t t t 0 7 0 t k r r j k j z >.F.6.b t j j t k t t j 7 r j r t b t d l l l v N ",
"@ $ @ $ $ + $ @ # % 3 4 { A.Y.d.i.' u.c.Y.Y.Y.c.j x _ &.+.b j l =.=.v.L.>.v 9 z z j 9 9 j z 0 h 7 j b %.-.) x t = k ` :.:.%._ l ",
"@ @ $ @ $ $ $ $ # C 3 H X.4.d.U.- M c.U.i.k.c.i.' ' ' m.H.B.j.d.j f l d 0 m >.K.j.F.F.F.F.$.v f j d 8 g f h +.` k j t j t t j t ",
"@ $ $ @ $ @ @ @ # % X 4 s k l l ) -.G.s.m g l l l d f M -.k.G.T.s.V.T.U.V.a.m 8 S.C.S.V.d.S.P.G.T.V.U.U.B.j.l.P.4.z t j k k / @.",
"@ # $ + $ $ @ $ # # V H } C.B.N.b.v f g g d g g j f v ' $.v f f V.v f 9 v s.U.U.f f z f 9 v i.B.d.s.U.d.G.d.9 f j j j 9 r j j w ",
"# @ # # # % @ # $ # # 3 w 7 j g f z N s.N m d.U.U.u.v d v N $.i.-.-.%.l 9 h z j z f 9 j z h 9 x r j b j d b _ %.*.+.+.%.$.i.-.$.",
"# # # # @ % # # @ # 3 4 i ! -.j.F.a.V.T.U.d.U.V.d.G.G.s.i.G.d.g z 9 9 j l j f 7 j t k j r t x r j r h h r r j z t z l l f d v f ",
"# # # # % % % @ # O V 3 e s @.h.7 f b >.G.N.G.B.U.l d m i.U.T.s.d z n -.H.*.x j t x 8.0.x q t t y r k ^ f.` y r z l.j.Y.G.i.G.V.",
"# # $ # @ % @ @ # # V S > 1 i k a / { +.b d d v d d l l m u.U.T.z i.F.>.p.' j 9 0 j h p ^ @.@.*.y y w Q g.q.x t t %.-.j.S.i.s.V.",
"# # # # # # % % % # V S 4 4 2 < u L a w t 7 z 8.c._ 0 9 v l f f g >.%.f 8 0 l z z _ z 5 6 j h 7 t k r = j t r y t j b f f f 9 g ",
"# # # @ % @ o % # @ # V S S S 2 K a e q q r 0 x +.@.b.F.a.z f V.>.V.s.m v N -.C.a.a.K.K.n 9 j z t r j x b t 6 j t h 8.F.P.G.v z ",
"# $ # # @ @ @ % # o # V V 3 V 2 X.| ,.,.6.8.+.` h z j 6 x a.F.F.T.U.V.a.-.V.S.G.F.n b $.+.z z 0 l r k %.*.n j t F.z f 9 d f f g ",
"# # # # % % % @ # # # C O V S S e q y t t 0 9 l t j j l f f g 0 f f g g v $.-.$.8 g z v >.F.>.x h d j j h f j j z 5 z V.G.S.F.>.",
"# # # $ $ $ # # # # $ C C S S G ( @.{ x z 9 f $.s.' i.' -.s.$.-.$.r._ $.-.v f g i.' i.=.i._ j F.F.j.k.l.F.j.F.j l t j l h f j f ",
"# # $ + + B # # # # # B C B B S e a y x } #.%.>.s.Y.k.c.V.V.T.s.g 8 z %.%.N $.-.' b.' j 8 l l 0 d l l j l f j.l.b.j.Z.h.b.H.P.f.",
"@ # $ $ $ V $ # # # # # B B B S O.X.L i ] | #.r.:.b d g m N N v z 5 z +.p.>.$.-.' p.M x j b +.0 m d.B.B.$.9 j l l j l f j b N b ",
"# # B # # # # # @ # # # # # + , H H 4 4 4 > u u ` _ c.f - ' f 9 z z g 7 d 0 t :.%.j 7 b / / #.+.b v v f l 9 l 9 ' _ p.P.v.' l 9 ",
"# @ $ # # # $ # # # # # $ V B , , , X H H 4 4 u i 6 k 9 ' /.{.XX8 l ' ' j.:.j j z r z N z x j j M j f 9 l b &.j j k %.l.v.%.b f ",
"# # # $ # # # # @ # # $ C # V $ C V , S > : i i s @.x r f v b 9 b l f l M =.i.' +.' :.^ t 0 7 j p.-.A.C.b.b.M.k t t j j v / +.' ",
"@ # $ + $ # # # @ # # # # # # # + A S E P H [ i i t.,.R.(.oX(.v ' d.u.u.b j f.B.Z.l.z 6 t t ^ 4.>.+.:.z t r k r k t k t 7 0 t t ",
"$ @ $ $ # # # # # @ $ @ # # # # $ V + F  .e.e.u s i 1 w p p F..X.X[.Y.N.s.d l l 9 -.j h h.M.4.k h 0 z 0 k t t r y r t t t t x +.",
"# # # # # # # # # # @ % @ # # # # $ # V S 2 e i L u u u c #.V.V.Y.Y.B.B.s.v d k h j k h t r r t j t t 0 t t y j w k y y y q t t ",
"@ # # # # # # # @ # # # # $ # # @ # # $ D H P [ u L [ s u c g g d d h M $.i.=.' l j 9 9 h b k l f 0 0 t t y t w Q t = t k r j w ",
"# # # # # # # # # # # # @ # # # + # @ @ # X 2 ! @.} } s s { -.$.s.u.u.u.m N i.p.$.' b l M ' i.k.C.:./ v j j t q = k k t t t j 0 ",
"# # # # # # # # # # # # $ # % @ $ # # # % 3 H X.y.<.<.<.r.#.%.>.N g d g v m N u.u.u.u.' ' ' i.k.9 z b +.%.` b t k k 9 / ~.+X(.n ",
"# # # # # # # # + V $ $ # # # # C # @ @ O 3 H X.i y ~ 1.X.] { r.F.V.a.V.V.a.$.$.$.d.U.U.Y.G.d.s.G.b.:.n z 0 0 t 6 z t 0 n h.-.7 ",
"# # # # # # % % # # $ + # # # # @ @ # C Z D  .y.i i 4 S 4 2 i L a r.A.>.C.F.j.F.G.P.B.v.k.i.M j f n >.C.P.C.C.b.A.>.x h 0 0 ) %.",
"# # # # # @ % @ # V V # # # # # O # # V , , 4 H D D 3 V D V V 3 u a a u p c x t j j t r j k j r 9 0 j j z 0 j t j t 6 y k t b @.",
"# # # # # % # # # # $ # # C # # o % C V C 3 V D V V O V % O V S i U [ } s u s x r k j t j h j k j j f t 0 t t 0 t y t r t k x r ",
"% @ % @ # # # # # % % @ # $ % @ # # # # B C B B F T R J + X V D u u u 1 ; u s 7 t 8.L.8.>.P.p.l j j 0 h 0 0 z z 0 w = Q < Q y q ",
"% % # # @ $ # # @ % @ % # # # # # $ B $ # $ $ B + A F V B V J E e.| ..U i s ( x j 0 h j j 9 b f.l.f.b z z 0 0 7 z = @.~./ = y k ",
"% # # # # # @ % $ # # $ # # # % # B @ $ # @ # $ $ + $ X $ F J J 4 1 2 4 4 U 1.<.a r t t t 9 h j t b _ 0.F.a.$.z b t 6 x = k k = ",
"@ # # # # @ % $ @ # # # # @ $ @ # # $ $ # $ $ + $ V $ V V V V B 4 3 3 3 > 3 e e q k y q k @.2.) { @.#.8.#.+.n p & / ` @.2.k h 2.",
"$ % @ # # # # # # # $ # # # # # $ @ $ @ # $ @ # @ $ # $ $ V # B V 3 V D 3 , > > e e e e q q w y p u 1 u s %.r.r.! q q y Q e t K ",
"# @ % $ # # # # # @ % # # # % $ @ $ @ $ $ @ $ $ # # # # # + # V C V # # # # , B S 2 G o.o.K 2 2 i 4 4 i L ..X.s 1 K o.e < < G = ",
"# # # @ # $ % # # # $ @ # # % @ @ $ $ @ @ @ # @ $ # # # # # # # # C # # + # V V S S S S F S V + D 4 3 4 H W ..4 H H E , G , B H ",
"# # # % % @ @ # # # @ % # # @ % @ $ @ $ @ $ # # + @ # $ $ # @ @ # C # @ # $ $ V B C C + X V V $ # % Z O . D W I D . F X F + F + ",
"# @ # # % $ % # # % @ $ @ # # # # # V # # # # # $ @ @ $ @ $ # $ # V @ # # # # # # # $ # # # # $ % O % % V 3 V V 3 V # V # # V # ",
"# % $ # @ @ % # @ % % % # # $ # # # $ # # # # # @ @ $ @ $ # # # $ # $ # # # # # @ $ # # # # # # # # # O % % O 3 # # # # # # # # ",
"# # # # # # # # $ # # # # # % @ # # % @ # # # # $ @ @ $ @ $ $ # @ # # # # # # # # # # # # # # @ @ # # # O Z 3 % V O % # # @ # @ ",
"% # @ $ @ % # # @ # # # $ # @ % # # % % # # # # @ $ $ @ $ @ # # $ @ # # # # # # # # # # # # # % @ # % % O % % O # # # % # % @ % ",
"@ @ # # # # $ # % # @ % % # # % % o % % @ % # # $ $ # @ # # $ # # # # # # # # # # # # # # # # # $ $ @ $ V # O # # # # # % % @ % ",
"$ % # # # @ @ # % # # % @ # $ @ o % % o % @ % # $ @ # # # # # # # @ # # # $ # # # # # # $ # # # # @ @ % # # # # # # @ # @ # # @ ",
"@ % # # @ % # # @ # # # # # @ # % o % % @ % @ @ @ # $ @ # # # # @ # # # # $ # # # # # # # # # # # # # $ $ # # # # # # # $ # # # ",
"# $ @ % % $ # # @ $ # # # # # # @ % @ @ % @ % # # # @ # # # # # # # # # $ # # @ @ @ # # # # # # # # $ # # # # # # # # # $ # C # "
};
