/* XPM */
static char *_1e4a6bb72144dd1e7526575f2e1c60bjVjI2ukrUCBBgIiZ[] = {
/* columns rows colors chars-per-pixel */
"64 64 142 2 ",
"   c #3C4E35",
".  c #3B4C3D",
"X  c #3E513E",
"o  c #414F36",
"O  c #404F38",
"+  c #445436",
"@  c #44553C",
"#  c #48563F",
"$  c #46583D",
"%  c #4A593E",
"&  c #263E56",
"*  c #293E51",
"=  c #2D4547",
"-  c #2C454C",
";  c #2E4849",
":  c #364B42",
">  c #3B4E45",
",  c #33474E",
"<  c #354A4C",
"1  c #3A4E4D",
"2  c #3E5144",
"3  c #3D524C",
"4  c #274155",
"5  c #2D4356",
"6  c #26425B",
"7  c #2C455B",
"8  c #2E485E",
"9  c #324555",
"0  c #354A55",
"q  c #394D54",
"w  c #31465B",
"e  c #344A5D",
"r  c #394C5D",
"t  c #375054",
"y  c #3D5254",
"u  c #365158",
"i  c #3B525B",
"p  c #274561",
"a  c #2B4761",
"s  c #2E4A63",
"d  c #2F4D69",
"f  c #334760",
"g  c #334C62",
"h  c #394E63",
"j  c #324E69",
"k  c #3A4F6A",
"l  c #365066",
"z  c #3B5165",
"x  c #35516A",
"c  c #3B546B",
"v  c #3E586E",
"b  c #355471",
"n  c #3A5771",
"m  c #3D5A73",
"M  c #3E5C7A",
"N  c #3F607F",
"B  c #435543",
"V  c #495744",
"C  c #465943",
"Z  c #4B5942",
"A  c #42544B",
"S  c #45594B",
"D  c #495B4A",
"F  c #415553",
"G  c #445A54",
"H  c #4A5C53",
"J  c #42555B",
"K  c #455A5B",
"L  c #4B5F5E",
"P  c #4F6056",
"I  c #405465",
"U  c #435B61",
"Y  c #4B5F64",
"T  c #41566B",
"R  c #435A6D",
"E  c #4C5F6E",
"W  c #405570",
"Q  c #445D74",
"!  c #495E74",
"~  c #435F7A",
"^  c #4A6164",
"/  c #4D636D",
"(  c #526665",
")  c #536863",
"_  c #50666D",
"`  c #566A6C",
"'  c #5C6F6B",
"]  c #466076",
"[  c #4B6276",
"{  c #4F6977",
"}  c #45627C",
"|  c #4B647B",
" . c #4E697E",
".. c #516775",
"X. c #536C74",
"o. c #50667B",
"O. c #526A7E",
"+. c #5C7077",
"@. c #5A727F",
"#. c #627369",
"$. c #3E5F64",
"%. c #456581",
"&. c #4A6682",
"*. c #4D6A83",
"=. c #456888",
"-. c #4D6D89",
";. c #536C84",
":. c #596E85",
">. c #536E89",
",. c #4E708C",
"<. c #567086",
"1. c #5A7285",
"2. c #5C7886",
"3. c #54728C",
"4. c #5A738B",
"5. c #5D798D",
"6. c #547492",
"7. c #597691",
"8. c #577995",
"9. c #5B7994",
"0. c #5E7B99",
"q. c #61778D",
"w. c #617A8E",
"e. c #627D94",
"r. c #6B859E",
"t. c #829EAC",
"y. c #839DB4",
"u. c #98ABA9",
"i. c #85A1BB",
"p. c #8AA6BD",
"a. c #89A8BC",
"s. c #91AEBC",
"d. c #86A5C1",
"f. c #8EAAC3",
"g. c #93ADC3",
"h. c #91AFC9",
"j. c #95B2CC",
"k. c #9AB5CC",
"l. c #96B5D1",
"z. c #9AB8D2",
"x. c #A3BDD4",
"c. c #A2C0DC",
/* pixels */
"+ @ + $ @ + + + + @ 2 3 t 8 8 u f l e h e e w r e e r r 9 9 9 J ! h e e e w w 0 u e e r g e h k j f f f 8 u l g g  .2.*.} x s d ",
"+ $ @ @ @ @ + + + % 2 G ^ ^ g a 7 g 7 e e h 9 w h e 9 9 r r r q e h o.<.;.T g e e e e e g T ! ;.7 g j g l 8 8 8 8 l x 8 x <.5.} ",
"@ @ @ @ @ # @ @ + C 3 i X.<.*.3.4.5. .[ Q ! h w 9 r h r r 9 e 0 g w j e 7 7 e f g l g 8 w f k c x  .4.<.<.;.<.<.<.&.<.3.*.*.3.2.",
"@ @ @ B @ @ @ @ C D : = u l 7 x 4 8 g l 6 e e r h r e 0 w g e w g c Q  .|  . .| v [  . .|  .;.&.-.,.*.x 8 d l 8 l 8 l ;.<.b 6 d ",
"@ @ # # O # @ @   2 3 X.r.s.h.j.z.j.j.i.Q e e r 9 w h r w e g l 7 e g s 8 l Q } c Q } [ ~ %.&.&.>.}  .*.*.3.*.d g j 8 8 l s 8 l ",
"@ @ # % @ # @ B S S 3 ^ r.r.<.-.,.} ] O.f 7 e h h e e g 8 c  .<.<.<.<.4.<.>.;.;.8 j l l j f f s p s M *.*.*.] 7 8 l ] *.] ]  .v ",
"@ @ @ @ @ @ O @ X : : u t 7 8 d 9.;.| 3.>.1.<.O.:.h 5 w l | :.3.l 7 w e g l l e e g Q | o.| | | | *.| } N m ] ;. .f 7 e 8 c ] l ",
"@ + @ @ @ @ # B C 2 3 t u 8 g 8 8 l g l s g 7 l e h o.w.;.c g 8 7 e g g 8 7 g g f g c ! ~ ! ~ |  .] l 8 u l g ] ] |  .| | [ [ } ",
"$ $ @ + + X + B 2 2 3 y t 9 9 l f 8 e j f s s g j h 8 8 h g w w r i e 8 w f j f j 8 l l g s g f g g g e g 8 l |  .Q g f j e 7 l ",
"@ + @ @ $ @ @ B 2 > 3 F U I r 7 h h f 8 8 c | :.:.~ h e w e g e 9 8 g l h g w f <.g 8 R ;.| j s g e T g g g 5 l 6 s j j s g x s ",
"X + $ C $ + @ B S 3 3 t J R / [ R [ O.[ Q [  .&.] Q |  .T e e 9 u e z ] ;.;.:.4.:.<.*.c j | >.4.>.;.w.c 4 g l >.4.c 7 l | &.~ j ",
"$ X @ $ + X 2 B 2 3 3 < 9 0 r r h r e e l Q | } 6 s c c w 5 0 e e 7 e l x c Q ! | >.3.3.;.;.j s g e j 4 x :.;.>.&.>.>.3.*.j s ] ",
"B @ @ @ @ @ B H G F 1 , q r h e h w e Q | [ c 6 Q | [ Q Q o.O...{ [ [ ] Q R c j s f s s 6 l x >.[  .Q c 8 c *.;.7.7.>.;.7.;.n j ",
"$ @ @ + @ C S H ' ( K y 9 0 e g g w e l g 8 s l 4 j g 8 l l w 7 0 r r e g g e 6 g j f g 7 m g s s f g &.<.-.*.j 7 7 f g f c | :.",
"# @ + @ @ B S H 1 q y i i e f g e l Q Q x e f g g g 8 8 8 e g l e 0 0 9 e g h z e f Q ;.8 g 7 h c 6 7 c g 8 j f l s j k f * z [ ",
"# $ @ @ + O B A L F t z ] [ | |  .Q l e l ]  .[ | f 8 c ] ] | ] R l e e e e w g 4.;.g 8 j a.x.a.f.4.Q | | | | | | | k * h h e r ",
"@ @ @ @ @ B B 3 ` / ] ] [ [ | | ]  .[ ] ] ] | | | | ] Q z e 8 l 8 8 l s 8 d <.h.j.h.r.N | } } <.<.a.x 7 c g 7 l h w e l g w f g ",
"+ @ @ @ $ B A A U u u s 8 l s g l Q | *.| n j 8 g l e z [ O.Q 7 l b &.2.8.&.b d s s 4 x *.3.3.&.8 v 4 c R Q l ! o.[ R e 7 e h g ",
"@ @ @ @ @ @ A y r e 8 7 8 8 l 8 8 g 8 8 7 7 e l f e 7 8 c [ Q g ;.;.3.-.*.-.,.-.,.,.3.-.b s l 6 j s m [ 8 c 7 g e g g g n :.o.j ",
"# $ @ Z B . 3 F 0 s f g c ] | | ! ] c l l s g j l g g f e g j 8 d s d j x } =.%.N b d d 6 s x l } ] ;. .R  .R [ Q { <.*. .:.4.:.",
"@ o O V B > A K @.<.:.;.;.4.4.3.7.4.*.*.3.<.>.*.8 j Q  .>.7.3.-.<.-.5.6.-.*.,.} } N N ] &.-.*.-.2.} Q  . .| g c l 8 l l j 8 8 s ",
"@ @ # V B 2 A J 5 e g x c Q | | ! Q x v } -.4.4.;.3.>.;.>.>.>.| *. .*.} x x *.2.5.6.5.;.} b l l l 8 8 g e 8 g 6 } g g | 4.;.v 7 ",
"# @ @ B B B 1 q { | ] Q n c j f j g 7 s l l j 8 } | Q l g g 8 g 8 8 j v N ]  .N } n x d l x 7 7 8 l l g 6 j T f <.X. .<.| ] c l ",
"+ @ @ @ B V A F 0 8 f j l f f f e h 8 s u 8 l e i 7 e /  .Q l g l } [ N l s d s d l } } ] >.3.4.<.] ] ] O.! e h 8 j l 8 7 l l e ",
"@ @ @ @ X B D K t { c 8 u 8 s w 0 0 e e g g e e e e l i w w e g l } 4.<.<.<.<.3.*.n g 8 f g g g f e h k f h * h u d e h o.4.o.h ",
"@ @ + @ @ B A F _ { O.5.<.8 s j 7 w g g w 7 e g e e 9 5 w T  .<.O.v 8 8 g 8 8 l g s s g n | O.<.;.o.R T g k f w e e e e h c h w ",
"+ @ @ @ + B S F t u 0 v | ] ;.;.4.4.;.*.&.| [ Q o.! c g w f g h z 7 5 c O.3.<.<.:.:.;.;.| T h w e e r h h o.T I e e g e * * J h ",
"@ @ @ @ @ B V F i 2.X.v g f f j 7 f c ;.:.;.n g f e e g h h g g 8 z z 7 e g g 8 f f w W c z g w e e e r e ! W ! O.| [ ! I r I * ",
"@ @ @ @ @ B A A u { ] v l 8 8 g  .[ R v s 7 7 g h e e 0 e 0 e e 9 ! ..h 7 e g g h f * * I * f r e r e h r k w h 7 w h h * I W r ",
"@ @ @ # @ B A 1 _ v c l l R | Q f 8 l Q R N ] [ R z r r e e e 0 h ..:.o.z e w e & h W I * I * r 0 e r ! ! ! h h c Q [ T I h I * ",
"% @ @ # B B 1 q u z ] Q v  .4.>.>.| ] } ] c g l e e r e e r e e 9 r r r e w e h T E E E W I r f I I * I f k 7 g ! | ;.| ! ! ! o.",
"@ + @ # B B > < 0 g f s l s 8 j s x  .5.2.*. .<.e g e e e e e r e h w w 0 h 0 w * f I I * r I * f * f I w h 7 h f f f w j f f f ",
"+ @ @ @ V . P u.q 0 7 v 4 d 2.*.g d 8 e c w e 9 u e z 4 l e ] [ [ ! e e g e 5 h g h w w h w w g w c w k o.c 7 w f g 8 8 g g 8 j ",
"# # # @ B . . G < 5 R y.r.n }  .| | { ! h * z o.c v } ] R g r g w l g / [ ..Q | :.o.R r w r h r c o.;.o. .Q ! | f | ;.] ] *. .n ",
"@ @ % # @ D C : F I 0 s & p m 7 7 8 g 7 r r ! ! 4 j l c j l s 7 | | Q c w 7 6 h w k ! T 9 h o.;.T h g h w g k w | [ v g l ] Q g ",
"@ o @ #   @ D S 3 / O.4.3.,.} g l l f 7 c w j j c *.-.-.a 8 7 b f l 7 f w g f g h k R I w f k e h h R ! h 5 e e l h ! <.:.| n l ",
"V @ O # $ + X 2 G i u a d a d d -.&.;.r.y.>.W ~ h.l.j.j.0.-.9.f.s g 5 b Q O.[ Q [ Q z r r w w e e w h z h 0 I o.o.z e h g w 8 5 ",
"@ Z # o $ @ $ S > - 8 4 c -.<.&.7.7.-.*.>.s j -.%.%.$.%.~ } ~ &.} | l e w 7 6 c l e w w r e c ! ! T 0 5 w g r h z 0 5 h  .q.>.l ",
"O Z o o +   $ 2 A i 2.4.*.c s s d %.9.-.~ p d d 6.>.,.*.7.:.] f 8 v 8 7 i l l :.;.l w 0 r w 0 e 9 w h h r r 9 w 9 r r e e h e w ",
"V # o % Z + C B F i @.;.<.*. .} } d a j %.6.>.g j p l s g 6 7.g.k.a.2.;.1.O.l R ] f e r 9 h [ O.[ e 9 e r r 9 r r w w r h 9 g [ ",
"# @ @ + # @ @ B A q I ! ~ | | | | | ] ] ] | ] l j f f 7 j h e e 8 8 8 u v { } l 8 u l 8 5 e h g e e w h 0 5 h e r r r w r e h ;.",
"@ @ @ # + @ B 2 ( Y I h h j e f e g e l c Q  .~ ! &.! k e w w g l s s s g l l 6 l 8 4 8 ! ;.Q f 8 e c ! T h ..2.:.e e z 9 7 e h ",
"# @ + + @ @ @ B A J r * w 7 e r 0 h e f 7 8 g j k a k &.;.c 8 j N l s s j v { *.} } v 8 & f ~ >.:.3.&.c 6 w z 7 g w w e z l 7 f ",
"@ @ @ # @ @ B B : < r J h h e w 7 e w g j c &.3.>.%.k a x &.>.-.,.,.;.;.;.=.} } -.] N } *.%.n j l 7 f | ;. .[ [ 7 h 7 c y.g.5.Q ",
"@ @ @ @ @ @ @ B A J Y E E T I I h h 7 f s b *.6.6.7.7.-.=.6.6.-.N {  .} }  .*.,.-.3.7.3.%.M =.9.&.x d d 8 4 8 x s 8 j s R 3.| j ",
"@ + @ + # @ @ @ . B A J J I * * :.:.~ ~ } &.=.%.$.n $.-.=.$.=.6.,.6.=.x p d N 6.%.%.%.=.=.~ $.$.b } 3.*.-.5.3.*.<.l f 8 4 x v a ",
"@ @ @ # # @ @ @ B A F A * J r h w h j ~ 7.e.8.=.6.7.6.-.-.6.,.n s d d s s s b N ,.-.-.,.>.,.6.6.6.&.&.&.&.N d x x } 3.3.3.-.} 7.",
"@ @ @ @ + + @ @ . B A , J * w w r k f k -.3.&.b j j s s n -.7.&.} } N { *.N N *.%.&.&.&.%.} %.=.N N } } } &.] } } &.&.] *.%.x s ",
"@ $ @ @ + @ @ @ B B F J * * F r I f f f f f j f e * I :.:.&.~ f | | &.Q c n ;.| ! h f h k &.4.>.2.| Q n h f h h ! &.| } ] &.&.~ ",
"B @ @ @ @ @ # B B * A J J J J * * I W f f W R h I h * h e k &.;.*.*.4.4.| c f 7 k f h f w f h 7 l g f w W &.o.W h f k ~  .Q x g ",
"@ + @ @ # # B B B : F 9 * 9 r r I * * w h T T f * f h f g e h j m d 6 s Q &.] l f g h e f h f f w j g c T I f k k f w f g 8 j ! ",
"@ @ $ + o # B B #.' ` J J r f f J * r h k f w f I h f f h f a f 6 s x d j d s s f w & w h f w j h f w j W f & h & k h f g f 8 h ",
"@ + % + # @ # B A 3 3 9 9 I f * w r h 7 j | >.6.f k f j j f j %.*.} } &.6.-.*.,.j g j T | c w h f h I & & W ;.:.h Q ! ! :.O.I e ",
"@ @ @ @ # O B A 2 A i u 9 J f f h l ;.>.>.6.-.-.-.>.6.6.>.>.&.6.-.,.,.-.-.8.8.*.>.:.;.:.q.| T o.:.:.q.:.W f f f j h g e l z e e ",
"@ % @ @ @ B V S A K P u r r f h 3.>.9.-.j p j 6.6.6.6.$.~ =.%.&.r.r.c.d.6.M M n %.~ h 8 f f w h k & h &.q.o.I f e f e e e w 0 e ",
"@ @ @ @ O V D P 3 3 y U ..o.I f s 6 d a j } ~ %.%.-.-.k p b &.>.,.x a d p s c M | | h 6 k ! | | w k h f h f & h h h g e e e h e ",
"@ @ @ C C X S D 3 y t i / { { N } } &.Q 3.p.k.g.h.| | Q n &.g 7 s z e 7 e g 8 g g j 8 g h [ O.e e h h e w e g e 7 h ! ;.! w k ;.",
"B @ @ @ B 2 B G P ; u u s.} m  .&.&.*.v s g h g c & g l Q | c c u c l z | | N *.| | [ | ! h 7 g g R R z h h c z k g 8 f h h f g ",
"@ X $ C $ 2 A G ^ ^ 0 4 r.O. .,.4.&.o.~ z e w h w e l e e e * w l l 9 7 c 8 8 ] ! ! o.j 8 c 6 f g c ] [  . . .! ! | ! ! o.! | | ",
"$ @ X @ @ @ C G t ; l l 4 4 N s j s c [ [ z 0 h h h f f g w g | e g l R ] c 8 8 n h &.:.| Q x g e 8 e l c h e 8 w w h k f 7 j ! ",
"@ $ @ $ + 2 C A 1 X.g.[  .*.a.d 7 7 g c l 7 5 l e 8 8 j g 8 c  .| Q Q }  .*.N l & f j k s g &.%.*.] x u 8 e e i T h w e j f x | ",
"@ X @ X @ $ 2 3 K ( q.] ;.v <.| O.;.~ T l u c ] | >.3.<. .-.3.5.;.-.%.x 6 d l a n 4.>.;.>.7.0.*.-.<.&.x 8 e l e * e h g f k m | ",
"X @ @ + @ @ B 2 y +.e z 4 R 5 8 7 e e z Q ! } [ } } &.M x x s a d *.6.,.,.3.-.3.| n w j k p p d -.8.8.| c f w 9 h O.<.| c Q x s ",
"$ @ @ + @ + B 2 3 q 0 0 l 4 l u e h 9 0 l e g s *.} =.} } } s j b -.,.-.0.-.s a j f ~ &.%.>.3.3.} &.} &.Q e w h w r h g  .4.*.j "
};
