/* XPM */
static char *_b45d2f77f3a46ed88bd181c6cbdcc76dpPgIqzug3e8qiUd[] = {
/* columns rows colors chars-per-pixel */
"64 64 245 2 ",
"   c #030204",
".  c #0C0302",
"X  c #04050A",
"o  c #0A050B",
"O  c #04090B",
"+  c #0C0A0D",
"@  c #0B0A06",
"#  c #130601",
"$  c #130A05",
"%  c #160C07",
"&  c #1D140B",
"*  c #1B1205",
"=  c #030B13",
"-  c #0C0C12",
";  c #090B17",
":  c #120B14",
">  c #0B141A",
",  c #1C1512",
"<  c #1D1A1C",
"1  c #161618",
"2  c #221300",
"3  c #2C1A02",
"4  c #251B0B",
"5  c #2C1B0B",
"6  c #251507",
"7  c #311D07",
"8  c #241B14",
"9  c #231D1B",
"0  c #271A16",
"q  c #2D1911",
"w  c #1F211C",
"e  c #2D200A",
"r  c #33230B",
"t  c #392407",
"y  c #2C2114",
"u  c #23211C",
"i  c #2B241A",
"p  c #282419",
"a  c #332313",
"s  c #3D2A14",
"d  c #352A1B",
"f  c #3B2C1C",
"g  c #362616",
"h  c #3E300D",
"j  c #0D1622",
"k  c #161B26",
"l  c #231D23",
"z  c #291E24",
"x  c #1B232C",
"c  c #1A2225",
"v  c #1C2434",
"b  c #1E2B39",
"n  c #242324",
"m  c #2B2423",
"M  c #23242A",
"N  c #2B252A",
"B  c #2B2C2C",
"V  c #2A2929",
"C  c #342C22",
"Z  c #3B2E24",
"A  c #352927",
"S  c #2D302D",
"D  c #3C3224",
"F  c #3C342B",
"G  c #35342C",
"H  c #242B34",
"J  c #2A2C33",
"K  c #232D3B",
"L  c #2B2E3B",
"P  c #252632",
"I  c #352E33",
"U  c #2D3234",
"Y  c #26323C",
"T  c #2B333D",
"R  c #29353A",
"E  c #333333",
"W  c #3B3633",
"Q  c #33353B",
"!  c #39393A",
"~  c #442C0D",
"^  c #432D1B",
"/  c #432D14",
"(  c #44331C",
")  c #4B341D",
"_  c #4D3A1C",
"`  c #473415",
"'  c #523C1C",
"]  c #593D1A",
"[  c #4D310D",
"{  c #443524",
"}  c #4C3A23",
"|  c #443B2C",
" . c #4A3C2B",
".. c #463625",
"X. c #533D23",
"o. c #523E2B",
"O. c #583E27",
"+. c #453B35",
"@. c #3C403F",
"#. c #5A421C",
"$. c #4D422A",
"%. c #544325",
"&. c #5A4424",
"*. c #54432B",
"=. c #5B452C",
"-. c #5C4B2C",
";. c #594829",
":. c #4C4334",
">. c #494338",
",. c #544532",
"<. c #5C4A34",
"1. c #544A3A",
"2. c #584838",
"3. c #5C513B",
"4. c #5F512E",
"5. c #624C2C",
"6. c #634926",
"7. c #6A522C",
"8. c #624C35",
"9. c #6B5433",
"0. c #64533B",
"q. c #6C5A3C",
"w. c #675537",
"e. c #735C37",
"r. c #70572E",
"t. c #7E663B",
"y. c #60471F",
"u. c #1D2F43",
"i. c #253344",
"p. c #2B3443",
"a. c #2C3A44",
"s. c #2B3C4C",
"d. c #283649",
"f. c #333642",
"g. c #333A44",
"h. c #323D4C",
"j. c #373946",
"k. c #2B3C52",
"l. c #313C51",
"z. c #282F41",
"x. c #413C40",
"c. c #33414C",
"v. c #3A454B",
"b. c #2D4255",
"n. c #2D455C",
"m. c #2E495D",
"M. c #2A4659",
"N. c #344556",
"B. c #3B4453",
"V. c #3C4855",
"C. c #32465C",
"Z. c #334A5D",
"A. c #3A4B5C",
"S. c #364857",
"D. c #39505D",
"F. c #2D4661",
"G. c #2E4A63",
"H. c #2E4C68",
"J. c #334661",
"K. c #344C63",
"L. c #394E64",
"P. c #344E69",
"I. c #3B4E69",
"U. c #365165",
"Y. c #3B5265",
"T. c #35526A",
"R. c #3B546B",
"E. c #3E596C",
"W. c #3C5671",
"Q. c #3E5972",
"!. c #375571",
"~. c #364F6E",
"^. c #454545",
"/. c #574B42",
"(. c #5B5345",
"). c #434B58",
"_. c #50555A",
"`. c #6A5C4B",
"'. c #675945",
"]. c #725C46",
"[. c #604943",
"{. c #786648",
"}. c #786853",
"|. c #726752",
" X c #435364",
".X c #41566B",
"XX c #435A6D",
"oX c #4A5C6D",
"OX c #495764",
"+X c #545E67",
"@X c #435672",
"#X c #445C73",
"$X c #495E74",
"%X c #445D79",
"&X c #485D79",
"*X c #466175",
"=X c #4B6276",
"-X c #46627B",
";X c #4B647B",
":X c #4E697D",
">X c #52667C",
",X c #536A7D",
"<X c #5C6C7B",
"1X c #596675",
"2X c #56656F",
"3X c #646462",
"4X c #6A727D",
"5X c #636E77",
"6X c #836A39",
"7X c #846C49",
"8X c #89724B",
"9X c #8A7553",
"0X c #8C7452",
"qX c #466480",
"wX c #4B6681",
"eX c #4E6A83",
"rX c #4F6D88",
"tX c #516581",
"yX c #536C83",
"uX c #596E83",
"iX c #536D89",
"pX c #586D8A",
"aX c #567186",
"sX c #5B7285",
"dX c #55718A",
"fX c #5B738B",
"gX c #5E798C",
"hX c #5B7794",
"jX c #64778B",
"kX c #637C94",
"lX c #697D95",
"zX c #698399",
"xX c #738392",
"cX c #758CA4",
"vX c #7A94AC",
"bX c #7993A9",
"nX c #7A93B1",
"mX c #8599AF",
"MX c #839DB5",
"NX c #8AA4BD",
"BX c #86A1BB",
"VX c #91A7BC",
"CX c #8EA7C3",
"ZX c #92ABC3",
"AX c #99B1C6",
/* pixels */
"=X*X*X*X;X*X*X$XL.J.J.K.P.K.L.I.=X>X$XL.F.F.G.F.m.L.L.A.I.L.J.J.P.K.G.m.n.K.-X;XqXqXqXQ.W.qXiXrXrX%X!.~.T.P.~.!.!.H.T.T.T.;XaXeX",
"K.U.D.U.K.K.K.L.K.Z.K..X&X;XyXaXyXyX*X#XT.P.T.T.Q.*XuX>XP.k.F.J.G.G.U.U.K.K.T.F.H.M.H.qX%XW.Q.T.~.hXhXqXqXrXwXeX-XrXaXeX*XE.K.m.",
"G.D.m.M.m.Z.L.U.yXuXyX;X#XP.F.m.G.G.R.-XrXyXeXeX-XE.T.T.H.P.!.R.K.K.Q.:X:X-XyXyXeXH.*XvXBXCXCXNXCXCXnXqXQ.!.!.Q.-XeXQ.T.R.K.Z.K.",
"m.m.m.U.Y.#X=X=X=X=XtX=X#XY.P.L.P.H.H.T.T.P.K.T.T.T.Q.rXdXiXrXwXwX#XaXMXZXVXNXNXBXdXQ.;X%XI.R.W.T.T.rXbXBXNXBXBXCXvX*XM.Z.m.K.U.",
"*X*X:X*XE.U.K.K.K.J.J.L.I.#X%X&X-X*X-X-XQ.L..X;X;X;XXXU.U.H.!.iXkX*XT.E.R.Q.aXkXkX;XR.U.m.N.L.*XyX;XyXiX=X!.R.R.R.E.J.C.K.Z.J.b.",
"D.U.m.D.U.U.U.G.L.U.L.J.m.F.K.L.J.Z.T.!.T.J.Z.).OXOXV.S.=X*XR.R.m.R.;XiX#XG.U.m.m.A.U.m.J.Z.Z.L.T.R.I.C.n.m.m.G.F.K.m.L.Z.Z.U.Z.",
"G.U.G.m.U.#X-X#X#X;X=XQ.T.J.K.K.L.Z.C.K.K.C.V.)._.3X3X3X+XOX=XyXR.K.K.T.U.U.E.U.Y.Z.N.C.K.Z.C.Z.Z.Z.J.K.I.U.L.L.U.L.K.Z.Z.Z.A.A.",
"G.*X;XU.m.U.U.U.U.K.K.L.%XyXyXyXoXoX=XXXL.A._._.W | { d A Q c.S.sX#XT.#X-X;XsXjXjX.XL.L.L.K.L.L.K.K.#X=X%X=XiX,XtXyX>X$X=X=XoX$X",
"G.U.U.U.U.E.;XaXeXfX;XL.J.K.K.Y.A.A.L.L. X X2X^.1.2.=.0.,.A J ).Z.uXfXpXwXuXoXN.D.<XjXjXlX$X=X=X$XXXL.L.K.C.U.K.Z.Y.XX=X$X XA.S.",
"U.*X:XaXyX:XaXaXiX;XE.K.G.K.P.m.Z.uXxXuX5X5X! +.o.^ 7 s  .+.| I B.S.L.I.jXuXOXv.R R j.OX@XtX.XC.L.L.C.K.L.C.C.K.C.Z.L.L.L.Y.L.L.",
"U.T.E.-X;X-X;X-XyX;X*X%X#XQ.;X&XeXdX#X<X+XJ 8 Z +.5 r 5 a f ..I Q h.l.p. X+Xv.@.E Q f.h.B..X=XL.Z.S.N.C.Y.L.F.J.K.C.C.C.C.K.K.C.",
"-X*XE.U.G.m.G.K.m.#X&X#X#XJ.J.L.dXQ.K.c.B , 9 a a  .,.f d ^ ^ f m f.l.).v.E S G >.(.+.j.B.h. XZ.Z.Z.E..XXX$XR.L.K.K.C.J.L.L.A.C.",
"U.Y.F.m.K.R.T.m.K.R.T.K.F.M.&XiX-XG.L.p.n 9 0 ^ f f y f s ^ ) t 0 V E J n m 1.2.'.|./.I L ).S.=XL.N.K.L.L.Q.*X=XK.L.P.R.#X$X#XXX",
"m.J.K.R.*XyX;XT.G.Q.;X-X:XzXmX&XK.K.p.U 9 6 q 5 {  .y ( o.O.X.' | A m z $ 4 _ ] _ ' 2.A N j.a.Y.=XZ.C.Z.K.E.=X;X-X#X%X=X&X>X&X$X",
"Q.;XeX;XE.T.T.G.m.*XvXAXNXbXcXK.A.d.H N 8 0 5 6 ..( s -.O.) O.O.,.1.+.q # <.].r.#.[ [ q z L j.i.1X>X%X*X;X*X#XT.;X;X;X:X=XR.L.K.",
"%XwX;X;X*X*X*X*XK.G.Y.R..X$XpXl.A.j.P < q q s ^ _ } 0.9X0X7Xr.O.e 4 Z # 5 ].0X8Xr.7.` f A Q f.p.D.>X>X=X;X*X-X*X*X;X,XiXwX@XJ.m.",
"yX>XT.Z.L.K.U.K.K.C.n.A.U.,XL.C.).L n 0 a / ) 8.8./ 8.{.8X8X7X8.8 . . . %.{.8X0X8X6X&.g f W ! T a.2X.XZ.J.P.P.G.G.D.D.U.U.U.L.K.",
"L.L.C.K.K.Z.K.A.A.U.C.Z.$X<XI.).f.J l 4 g / ) ].8.3 r ..'.8Xe.o.& +   $ '.{.7.r.r.5.X.s r f G N H v.5X XC.P.P.P.U.M.M.m.K.K..X>X",
"G.G.K.E.=X*X*X=XoX*X$X.X=XK.L.L.K M < 6 ' ' X.].{.f * # a 8.2.q . + @ u `.$.* t ' [ X.( r e z m V U +XxXsXuXwXtX-XE.D.U.U.K..X>X",
"J.K.K.U..XY.A.C.oX.XXX=X>Xb.L.S.K J m 4 X.' ' ].}.3.&     9 +.0 @   + w D * * ` &.&.8X7X5.( ^ g >.^.v.3XoXJ.W.~.aX:X:X;X,X>X,X,X",
"M.L.R.*X:X=XE.Z.A.K.Z.Y..XZ.R.Z.Y ! I 4 X.#.' 8.`.| - - X o l 9 @ X o : & & ..3.%.&.8X7X6.9.].`./.W @.@.2XD.J.F.G.U.U.U.I.I.U.D.",
"yXyX;XE.K.U.C.n.C.#X#X=XuXuX=XA.a.U C y %.5.X.=./.i 1 j ; X ; : o   o - . $ r _ X.&.6Xt.7.0X].X.* C >.^.4X<X@XP.G.G.U.m.m.m.M.M.",
"G.m.U.m.m.K.M.Z.Z.U.Z.Z.XXsX#XN.i.J I f } ) _ o.o.m v v k ; - O O         . 2 t _ #.6X6X7.7X=.2 # $ $ @.4X<XtXiXK.K.K.m.L.U.U.D.",
"U.K.K.m.U.R.Z.U.K.U.:XaX,XkX#Xs.Y U W Z ^ 5.5.{ d 8 k z.K j c @ O   X o , A *.5.&.#.6X6X] 7X8.f %   $ @.4X1X;X&XG.K.G.T.#X;X#XA.",
":X;X:XaXaXyX,XeXaX:X#Xm.K.R.E.N.Y U E i X.{.O._ ..p < K Y > 1 >     X : I +.8.9.6.] 6X6Xy.7X|.+.$ . O B <X X=X;X*XXX*X*XT.M.U.m.",
"U.E.*X;X;XQ.R.K.,XyX;XY.Z.E.*XZ.a.U ! | `.].8.X.{.:.m J f.H > O O     . % & ' 6.6.] 6X6X6.].`.Z & @ O x jXyX;X*X*XU.D.M.M.U.K.U.",
"M.m.D.U.L.K.K.K.K.U.J.m.K.;XyXC.T g.x.+.3.-.%.7.}.|./.P P g.h.k X       % # ' 7.6.[ r.e._ *.Z 9 + o 1 U 1X XU.R.D.D.:XaXwXwXK.K.",
"Z.m.m.m.m.m.Z.K.G.K.K.G.U.aXyXOXY j.x.+.| %._ t.7X9X|.! P v p.K > X o : { { ) O.O.[ r.].} r . . . + - B 1X>X-X#X*X*X*X*XJ.R.n.F.",
"Z.m.U.A.G.m.J.G.Z.G.J.m.L.yX*X=XR g.).+.>.:._ 6.8X9.o.x.f.k u.u.1     < +...7 t t ~ &.e.w.( # # % $ @ U +X1Xm.K.m.T.U.T.F.P.L.P.",
"U.K.C.Z.m.K.G.J.L.J.P.J.R.=XE.XXc.g.h.Q ^...$.%.e.#.^ q z k v v > o + m m 5 g ) s / / ) X.} q Z Z & 8 v.v.jXI.P.*XE.E.;XqXwXtX;X",
"E.K.C.C.K.Z.K.I.eXuXfXuXQ.R.E. Xc.R p.p.Q W :.%.&.e.8.z z P v j o o o - . * f ..^ ) ^ ^ ` ( s f d d :.^.).mXAXCXnXaX:X-X&XE.:X:X",
"U.K.U.#X;X;X=X;X;XwXwX;XR.U.;XY.c.b s.h.j.^.:.o.#.0.[.I z P k ; O + +   $ | :.f ( s 7 s s / } ..f d u n V.Y.Q.R.E.T.nXCXvXQ.G.A.",
"-XQ.G.G.-XyXtXiXwXiXiXiX&XaXzXA.c.R d.Y B.^.+.F Z Z A l x b x > - X : + m (.1...-.-.s e 3 r g q l k J p.c.D.Z.m.m.G.R..XL.K.J.I.",
"H.T.U.U.&X#XP.P.~.F.F.P.T.yXzXC.b.a.c.R Q x.+.C A B M x Y b j j - o + o , F | D -.-.%.} 7 2 6 , l z.h.A.D.XXD.m.U.Z.K.C.J.I.%XtX",
"-XeXyXaXaXyXtXyX~.P.H.P.J.-XlXL.b.Y a.U B ..{ d 4 < c K b b v > o   - - @ @ . # 3 ;.;.~ s 5 q z ! T V. XD.D.*X:X*X*X*X*X&X&XtXtX",
"rXdXdXdXuX=XR.I.tXpXwX#Xm.XX;X XM.u.Y E C f ( { +.B k H d.d.K ; X   = -     @ 6 } {.e.~ t ^ d z J R OXoXOXM.E.U.Z.U.K.U.L.K.I.I.",
"G.U.G.U.U.L.Z.N.J.R.I.J.J.;XI.J.M.u.H B A d *.*.2.(.! u J T v = X = j k ; o , Z q.7Xq./ / o.a A M a.OXD.1XE.U.G.U.J.m.M.m.U.*X:X",
"U.G.m.M.S.Z.Z.L.C.I.K.J.I.=XJ..XU.d.H n Z ^ <.3...(.>.u n L v ; X = k K J 1 . # r %.o.) } O.g 1.U g.v.D.XXE.#X#X*X#XR.T.J.J.Y.E.",
"G.G.U.D.A.Z.S.C.Z.K.m.K.L..X.X;XXXc.B p ( } =.*. .i < p P P K K j = j x Q 9 . * 2 7 ^ } ~ 7 7 D S b c.1XOXE.R.U.G.U.XX*X*X*X#XE.",
"G.m.m.m.S.Z.S.S.A.C.Y.,XpX@XI.).A.V.B 8 f =.<...y 4 , u l l v p.d.k j : c 1 # Z [.<.} O.X.6 2 C U Y c.5X=X=XE.G.G.K.U.R.Y.U.U.D.",
"Y.R. XZ.S.A.S.A.Z.Z.Z..X#X>X>X>XXXc.S p r X.( ( f f d +.x.N k i.l.i.k = O   . C `.,. .8.8.7 3 9 M Y v.<X.XK.L.J.K.L.L.MXVXmXU.C.",
"CXCXcX$XS.S.S.S. X$XXXXXR.<XjXjXS.Q Q 9 8 { g *.*.` =.}.(.N v u.k.h.b ; O   $ :.'.} o.0.=.6 3 | c h.).jX$X&X-XwX&X&XL.#X.X.XM.Z.",
"sXfX#XM.N.A.L.A.b.Z.U.K.J..X<X>XB.z.j.I C C g w.9.#.7.}./.< v u.c.i.b k > + , :.*._ 8.O.t 3 5 D U  XoXlX>X&X=XwXeX>XtX&X&XK.L.L.",
"K.K.C.Z.L.C.A.L.L.Z.K.J.J.K.$XoXd.v L L ! W ( 4.7X7.] $.m M i.d.i.b u.v 1 < w d *.w.0.) 3 ^ ^ C H V.oX>X#X$XwXiXyXP.K.J..Xm.K.m.",
"J.m.K.Y.C.B.L.I.J.J.K.J.K.U.#X Xd.b H U G $.4.#.9.e.*.d m J a.s.a.v k 1 u u & p *.w.<._ ( ..Z m R A.,X.Xm.G.M.T.K.G.J.J.k.P.R.I.",
"U.m.L.Z.C.L.J.k.R.Q.&X#XY.K. X=XM.i.Y x p $.w.;.` 8.| 8 l M T Q B B w p 1.>.e e ( *.a 5 d d N H i.M.>XU.T.T.H.H.G.P.J.P.P.wXiXiX",
"#XK.K.C.J.L.J.@XK.K.T.K.C.n.A.,XY.N.z.x 9 8 } &.' =.g w w B S w C (.>.* $.}.q.$.e f 8 z U J H z.C.U.%XE.%XrXdXyXeXdXiXtXP.H.W.wX",
"aXT.L.K.L.K.I.vXiXyXiXeX:X,XK.U.<XXXA.T V 8 6 7 ;.8.$.>.p E S p d '.{.r h {.}.;.%.:.C J g.K i.k.E.#X=XeX:XrXdXeXiXiXiXpXrXrXiXiX",
"eXyXeX-XR.T.T.R.qXeXqX%XqXdXdXrXaXkXY.c.! u 8 5  .,. .'.F F w p y D %.h 3 ;.e.-.[.`.I j.H b d.A.C.*XiX;X-XU.K.U.T.#X-X;X-XT.qXeX",
"P.G.T.Q.-XwXwXrXdXdXeXqXqXqX-X-X-XaXsXS.T j.m 8 i ..D 3...| d * * d $.$.e h 4.9.{.'.+.f.g.Y A.Z.$X#XE.A.D.M.M.L.K.K.G.m.P.T.-XQ.",
"G.G.G.T.P.R.-XwXqX-XQ.T.T.T.T.!.aX:XsXyXS.g.k < A m d '.3.*...r 4 $.w.{.;.~ 4.{.`.>.E f.T i.k.%XyXE.Z.M.D.D.Y.D.K.m.U.U.Q.%XQ.T.",
"R.#X;X=XwXyX-XY.T.#XwXeXeXeXeX:XG.T.R.aX=Xs.h.f.J < 0 +.0.<.8.=.y D $.3.'.-.3.1.F E Q T i.b.Z.dXE.Z.Z.D.U.XX>X*X;X*X*X*X:X:X%XQ.",
"tXtX;X.XL.I.I.C.K.$XyX=XQ.L.P.Y.m.R.Q.wXkXF.N.k.z.L N i  .,.=.<.F C & e D F F G E j.g.l.Z.s.aXgX=XXX*X*XE.E.:X:X=XXXZ.Z.m.G.U.U.",
"L.E.R.L.J.b.J.L.K.L.R.L.J.m.L.%X$X&X=XeXkX&Xk.b.z.j.j.l 0 0 4 q m B < c k I S ! g.g.l.J.A.U.gXQ.U.m.U.D.D.S.U.D.XX*XY.U.m.m.m.m.",
"Z.N.n.J.L.K.C.C.L.K.Z.L.L.L.C.K.&X=X.X&X%XpXK.M.k.N.V.f.Q l l n z.j.T T K z.z.h.l. X@X#XR.zX,Xn.U.E.E.M.m.U.D.m.Z.E.=X$XY.U.Z.U.",
"Z.S.C.C.K.L.L.A.$X$X$X$X=X$XL.C.C.R.K.L.I.;XjX*X.XL.L.B.l.p.B.B.l.C.A.i.p.i.L. XkXjX@XXXXX=XZ.A.BXVXvX*Xm.m.G.m.Z.m.U.K.N.K.Z.*X",
"C.D.D.C.D..XU.Z.Z.A.D.U.A.A.Z.m.G.U.U.G.m.Y.;XzXyX=XK.M.C.K.m.J.A.A.U.XXXX=X>XsX$XyXjX>X$XY.A.Z.T.R.W.F.n.Y.Q.P.U.U.L.G.m.J.L.L.",
"Y.Y.*X=X*XXXA.A.U.Z.C.Z.Z.Z.Z.Z.Q.*X*X:XaX;XU.Y.:XzX;XJ.Q.dX%Xm.C.C.U.XXyXsX;XL.P.R.R.#XcXAXmXXXP.W.%XtXhXnXMXCXK.m.J.K.K.R.&X;X",
"XXY.R.*X=XXXXX%XXXK.Z.Z.M.m.K.m.T.eXeXqXgXgXeX-X-X:XdXfXyXfXzXzXgXgX,X*XE.XXT.G.P.J.J.K.#X&X@XJ.MXMXCXBXnXkXtXwXT.P.R.#X#X&X&X=X",
"Y.M.M.Z.K.Y.U.U.L.Z.U.U.A.m.M.m.M.T.T.T.qXrXrXdXhXfX&X-XeX#XK.U.,X=X*X*X*X#X*X;XK.K.R.@X$X@X&XtXpXiXhXkXhXwXQ.wXwX-XQ.R.#X=X&XK.",
"#XR.K.m.K.-XyXeXm.m.Y.&XR.K.K.K.W.eXrX:XQ.H.H.H.wXiXR.I.R.U.b.Z.Z.G.I.&XyX;X=X&X%X$X#X.X~.~.P.P.P.F.P.%XdXdXwXiX-XT.G.K.%XiX=XK.",
"yXyX;XR.J.R.Y.K.J.U.@X=X=X*X=XiX=XiXeX-X-XqXqXT.P.wXpXhX;X#X#X#X*X&X&X&X*XXXI.K.U.Y.U.XXqX%XP.G.J.H.P.Q.qXQ.H.!.P.H.T.T.T.R.P.K.",
"K.R.;XwXtX>X=X&X&X#XI.I.I.J.b.L.L..XG.K.T.G.T.*X%XdX*X#XwXtX&XL.L.K.J.J.L.Y.L.N.b.D.D.Z.J.W.*X-X;X=X&X!.T.U.T.qXdXrXeX-XU.m.G.L.",
"K.G.J.T.W.J.m.T.L.L.J.I.$X.XC.K..X&XL.J.P.M.G.U.H.F.G.#X@X&XtXI.C.J.I.J.S.S.S.Z.S.D.c.S.C.J.m.U.G.J.T.P.G.H.T.-X-XqXeX:X*X-X;X-X"
};
