/* XPM */
static char *_97e5864a9fb4214d90f578f953f957957pNB4hlmaQI9zgT[] = {
/* columns rows colors chars-per-pixel */
"64 64 125 2 ",
"   c #3B503D",
".  c #45553C",
"X  c #22384D",
"o  c #253D53",
"O  c #2A3F54",
"+  c #2E404C",
"@  c #334745",
"#  c #374D40",
"$  c #3B4E42",
"%  c #31444A",
"&  c #34494A",
"*  c #3A4E4C",
"=  c #3E5344",
"-  c #3C514D",
";  c #274254",
":  c #2D4356",
">  c #26425B",
",  c #2D455B",
"<  c #2F485E",
"1  c #314656",
"2  c #354B55",
"3  c #3A4E53",
"4  c #31465B",
"5  c #344A5D",
"6  c #394C5D",
"7  c #3D5253",
"8  c #3F5854",
"9  c #3C535D",
"0  c #2D4760",
"q  c #2E4962",
"w  c #314661",
"e  c #344C62",
"r  c #394E63",
"t  c #344E69",
"y  c #375066",
"u  c #3B5165",
"i  c #36516A",
"p  c #3B546A",
"a  c #3E586E",
"s  c #365470",
"d  c #3C5670",
"f  c #3D5A72",
"g  c #3F5F7C",
"h  c #3F617D",
"j  c #435443",
"k  c #485742",
"l  c #455842",
"z  c #4A5A45",
"x  c #42544A",
"c  c #44584C",
"v  c #485A4C",
"b  c #425552",
"n  c #445A55",
"m  c #485C53",
"M  c #40545D",
"N  c #445A5C",
"B  c #4A5D5D",
"V  c #405466",
"C  c #435A62",
"Z  c #495D62",
"A  c #41566B",
"S  c #435A6D",
"D  c #485D6E",
"F  c #445C73",
"G  c #495E73",
"H  c #445E79",
"J  c #4D6360",
"K  c #4D646C",
"L  c #526561",
"P  c #54686C",
"I  c #466076",
"U  c #4B6275",
"Y  c #45627B",
"T  c #4B647B",
"R  c #4F687E",
"E  c #506575",
"W  c #556B72",
"Q  c #586D72",
"!  c #51667B",
"~  c #536A7E",
"^  c #596F7B",
"/  c #587070",
"(  c #5B727D",
")  c #617679",
"_  c #456481",
"`  c #4B6681",
"'  c #466884",
"]  c #4D6A83",
"[  c #4E6D89",
"{  c #536C83",
"}  c #596F85",
"|  c #536E89",
" . c #567086",
".. c #5A7186",
"X. c #5E7885",
"o. c #55718B",
"O. c #5A738B",
"+. c #5F7A8F",
"@. c #567591",
"#. c #5A7691",
"$. c #5B7992",
"%. c #61778C",
"&. c #60798F",
"*. c #647C93",
"=. c #68829B",
"-. c #7E94A9",
";. c #7F98AE",
":. c #7F9AB5",
">. c #889EA9",
",. c #859DB3",
"<. c #8A9FB4",
"1. c #8BA4AB",
"2. c #8AA4BA",
"3. c #91A7BC",
"4. c #91AABE",
"5. c #92ABC2",
"6. c #92ADC8",
"7. c #96B0C6",
"8. c #9AB3C7",
"9. c #97B2CD",
"0. c #9DB3C8",
"q. c #A0B9CF",
"w. c #ADC5CF",
"e. c #ACC1D6",
"r. c #ACC5DD",
/* pixels */
". . j . . . . . . . . . . . j . . . . . . . . . j j . j . . . . . . . . . . . . . . . . .   . . . . . . . . . . . . . . . . . . ",
". . . . . . . . . . . . . . . . . . . . . . . . j . . . . . . . . . . . . . . . . . . . . . . . . . . . . . . . . . . . . . . . ",
". . . . . . . . . . . . . . . . . . . . . . . . . . . . . . . . . . . . . . . . . . . . . . . . . . . . . . . . . . . . . . . . ",
". . . . . . . . . . . . . . . . . . . . . . . . . . . . . . . . . . . . k . . . . . . . . . . . . . . . . . . . . . . . . . . . ",
". . . . . . . . . . . . . . . . . . . . . . k . . . . . . . k . . . . . . . k . . . . . . . . . . . . . . . . . . . . . . . . . ",
". . . . . . . . . . . . . . . . . . . . j j . . . . . . . . . j . . . . k . j j j . . . . . . . . . . . . . . . . . . . . . . . ",
". . . . . . . . . . . . . . . . . . . . . . . . . . . . . . j . . . . j j x j j j j j . . . . .   . . . . . . . . . . . . . . . ",
". . . . . . . . . . . . . . . . . . . j j j j j . . . . k . j k     x x x x x x x x x j l . = l l .   l . l . . . . . . . . . . ",
". . . l l . . l . . k . j . . j = l   = # m b x x x = c = = c = x b * 7 x O * b b B L L 8 - c # b $ - x x x x x . . = = c = = l ",
"$ x x j x x = = j . j j j v x x   m 8 m 8 P Q ) 7 n n J J 8 - 7 6 1.e.>.} E G O O M M M 3 7 B / J 7 7 * * * b n     & @ - 8 - b ",
"7 b 7 - - n B n b x b * & * * 3 n / P E ^ O.^ { U C : 9 ( ( Q ( X.X.U U ,.q.<.V V O M V C 9 u K X.~ K 9 1 6 6 2 & & N / P C 7 Z ",
"K K K 9 2 & 2 2 1 M V 6 2 3 6 7 1 6 y u Y U u w e y u D E I a a a y < : r r r w O M ! } W R W u , < y < 1 u e o < < < < 5 9 5 6 ",
"5 5 u D p 2 5 2 U U ! U U K r : r 4 4 : < < < < T I F y < 5 5 e < 5 y y e : O A V 6 r O 5 ~ R <  .[ #.o.{ ..T p G d < t 5 5 : u ",
"y 5 y I T U T T y 5 I T T T F y H r e < y y F p y e y 5 < r e , y 5 w 4 w p w 4 V O w V ! { e q t q q 0 t Y { | O.` , e < y 5 5 ",
"T y 5 e , < y e 5 , e p e e 5 < ` H H y R } ..{ } { R a e w < e < 5 e e 5 r w 6 6 O r w r w w | $.[ ' f e q w e e 5.r.2.p : : e ",
"p < q e y F {  .{ y < < , e e e { O.{ e e < e 5 < e A H O.{ t w U R ~ r 4 r r 4 w 6 V O r ` a q q i [ O.Y p < q w t O y < 5 p { ",
"e 5 < e r e 5 5 5 e 5 5 5 5 r U G ` ! G e r w r y 4 ` { { O.] O.F T U F U } ..| { O.{ u 4 r e e e q p ` O.o.{ ..o.o.o.| | @.] t ",
"I p e < : < r e ! F r e 6 5 1 5 r r r r O w w w 5 y ] a 0 u e w y e w w t t t e t w q , 4 e : 4 O.o.T p < , q e e t e t t q t [ ",
"R a F R ! ~ U 5 4 4 4 e r 6 5 6 5 4 w r u r r e e q i I s q s H F F A p q , w t | | ..o...R p r 5 y e e 5 5 5 < 5 r 4 : w w t H ",
"p < y F G U G e e A G G S A r r r e p T { { ] R Y T Y R ` H H t e a H H d q w w q w e q e p A F I p : : u u 5 9 5 6 r 5 A ~ ~ r ",
", q e e p G U ! : 4 e r r 6 5 O w 4 r G ` T T Y O.] F ] O.| O.{ , e e y F H ] ` R U H e < e e y y < < i I a < , e 4 4 5 4 e e e ",
"e e e e r A r 4 r e e 5 : 1 5 6 e 4 w r r 4 e q q > q o.$.d e 4 p y e e r H H T Y H ` ` Y Y F F I T I y < e y y 5 e r e r e r F ",
"e q e e u F F r 4 4 r r 5 r S E r 5 r r 4 5 5 q e y e < w r r e 4 u G U G T T H e w e w , e e e q I R U U U I K D ! U S G F A A ",
"e e U G 5 w r 4 r 4 r D U U E U 6 4 5 5 5 e e 5 e < e e e 5 4 5 r e 5 e r e e e , u H y < e y 5 e e 5 5 5 < 5 y 5 < w r r r u : ",
"I ~ F e : r r 5 r : w G ! G r : 1 M O V U ..O.: e e 5 5 5 r r 4 1 p ! U r 1 w e w r e p { G e e < 9 y 2 < 5 5 y e e e q y 5 < e ",
"y < , y r { ..{ ! A r r 4 4 6 r M O 6 E S : r e y I X.O.T D D G 6 4 5 r 5 p { } } } ! { &...{ ..U I a u y y q > e e < , q e e q ",
"I *.{ e 4 r 5 e ~ { { ! V 6 5 6 r D A O y ] } }  .{ Y p e r u u G 4 5 r 4 w V 4 4 e e e w < e H y y h U R R Y f q T @.@.o.o.[ ' ",
"p T e > e 5 O u 1 5 r r 4 1 4 5 O O r w , y e q < e e e 5 5 : 1 A o O e w r A e w r F F y e e e < < e e y y a H o.o.[ [ o.[ T ' ",
"5 e y e 5 e y 5 e 5 4 4 5 5 5 r 6 A 4.8.F o e e q < 5 q e r u e ,.+.{ F w w F S r w e e < e < < W I p 2 : , e y e w p ] { p < y ",
", p R { } p 5 : w 5 5 5 r 5 4 4 r O 9 < X a U F I p 5 4 u S U U ] F d p w : w t e e e e < < y y y 5 < q e a H Y F T H t q 5 q : ",
"y , <  .<.! o u 1 r r 4 4 6 V D 4 6 5 5 u e : u u S ! ! D 6 5 9 q e d H H p e w : a T } o.{ { { ] T H f H H _ ` q s t q g | T u ",
", e e y ..U u 4 r { } G e 4 4 r 6 1 5 6 4 1 u 5 e 5 5 6 5 2 5 5  .o.{ | o.{ } | O.] p < e e q e q i T O.#.| | | | | | | d O e | ",
"] ( i ; y p R o.O.T u , t O r O 2 6 6 6 6 1 6 5 y 1 9 2 2 5 5 e e q w w e e e Y e : y 5 4 e O V 4 5 w 4 w e H O.@.| ` _ _ Y ` t ",
"y I y < y a p e < p { O.O.r r r 6 4 1 6 6 6 D U 1 : y 2 < u 5 < 4 e r e e e < e y e G G r 6 M 4 r 4 5 r r w w r w s H | #.o.| ` ",
"< i y < e y e : e 4 w 1 w e 4 4 4 6 r G G r r 5 u 5 p p y , p o.$.O.] H I T  .{ ! r r r r F ! G D 6 5 r w e A H | ` d s a y e y ",
"a < , < e 5 e e w e A 5 1 r 5 r r 4 4 r r 6 w 4 5 1 y W  .I F R w , 4 p y < y e e w A F r 5 r 4 6 1 5 r O w A V r t O 0 y q < q ",
"T i q a { } { { 4 y H A r w 1 r e w r F H F p r a a p 5 r e e e t e p ] f 5 y < 4 V V r r O O 5 5 u G D A S S w e U R T Y u < 5 ",
"$. .] T Y R H ! F y e G U { H { } U F t e e < , ; y y , w p ! O.| { H p y y R  ...! 4 o w r r r 5 6 6 6 5 A G e e I I I I U U U ",
"I I T i e q e ] Y U F ] ` Y p e t p Y { } | T Y T R I { %.H r 4 q d e : < e I S 4 r r V V 4 r 5 5 5 5 5 r r r O e r 5 2 r e u 2 ",
"y y < 5 e e w | O.| t w q H Y y , u R U Y R Y Y R T e , e e r w e { { O.O.T S : r 5 O 5 4 4 r 4 6 2 5 5 6 6 5 M 5 4 5 6 5 : 6 2 ",
"e < r E { G ! w t w 4 q e e e q o d o d q e t q y q < < 5 e 5 e R e w e e e r 5 r O 5 r 5 ^ } ~ ^ 6 O 4 6 6 6 6 4 6 5 2 2 2 6 1 ",
"G 9 4 1 4 4 ! G ! F p e q q q e p , e e o t 0 p q y y e 5 5 r e < w u t , 4 r r 1 4 6 r 1 r r r 5 1 6 V 6 1 1 r 6 4 6 5 6 6 3 6 ",
"6 2 6 4 M V E V 5 5 r 6 5 5 e e H F ~ F { { d Y T R U a 5 e e 4 p T ` F p 4 4 e 5 r 5 5 4 6 O 6 u 5 O M A A w 1 1 r S u r 4 5 r ",
"1 6 6 6 O O V O r A U { } { { { ..&.} I | T =.` [  . .R U U ! U H t , e ] O.O.O...~ w 5 A ! V 4 : r r 4 5 4 4 r r 4 4 r S G A O ",
"V O V w M O r w 1 w r r u y 5 e < < < y q d :.f q q < t e e w 4 e U O.O.Y < o q e r < 4 4 r 5 5 r { &.} ! A w r e < 5 a { O.} U ",
"w w r w r r G ` w w w 5 : 5 5 2 9 < < < 0 0 g > i q < e e e r y u t q 0 q y i t 0 t y H p e 5 r r e 4 4 u T O...} O. .U r w w w ",
"} ` H w w w r w r r e e 5 e p I < u q < a T Y O.Y s t e q q w e q e e e s ` | ] #.[ 0 t F ! p 4 5 5 r r 5 5 2 < 5 e < < 5 r r r ",
"` ` ` _ @.#.{ t ` H H u q e f R T I I  .a [ Y h R ] [ { o...| { O.{ | o.] ` ` _ 6.9.O.w , e 5 w < 1 r e < 2 y 2 < 5 y 5 5 5 w 5 ",
"w w A _ _ ' [ _ ' @.[ { $.] y , 5 : y S y F R F H S F Y U U H R F Y T F t q e t e p 2.] T Y T T W 5 e 5 < 2 < u y 2 5 p 1 u 1 u ",
"r w w t i f _ _ g Y _ ` a q y q u 4 e r 5 e r e p y y e r e e e p e e e r t e q e a $.a ] Y T ' f ] 7.2.i < i > a a < > 5 O.X.~ ",
"} { | | ] [ o.o.t < y { $.o.T y 5 4 5 5 4 4 5 r 5 r r 4 4 5 5 4 : e p F F F i e q t e q i , t q i 0 Y o.f t t q f 2.r.4.O.Y y 5 ",
"r w w e e F ] | | ] e < e 5 e e u D A 2 r r 6 : 4 5 4 5 5 5 5 5 e S U ] R H U ` H Y Y o.f i T Y s [ $.' [ o.[ o.]  .Y e e y e < ",
"6 4 O w O w e t 4 u w 4 5 5 5 4 5 6 5 1 S E D u 6 5 2 6 6 1 6 r e e p S S y q : $.| | { q q q q h h ' h ' @.[ q q i i y e > y Y ",
"O 6 V V r e w : e 4 4 5 u D E r < 9 5 1 6 r r V A 9 5 6 6 6 6 A G H I { ] I d a < , q q s ] ' @.@.' [ @.' [ @.O.[ i > e T T H e ",
"M M O O w r w r 5 5 6 M 4 3 u O 5 5 r 5 4 : 4 p r 5 5 5 4 4 6 u r e e 4 < < i Y T T ] H ' ' Y Y h #._ q s ' ' f ] ] O.| ` } 2.q.",
"M O M 6 r r r 4 4 6 6 4 6 5 6 6 e 5 5 5 r r r 4 5 5 6 5 4 6 5 4 e e e a p e < y q e [  .@.Y =.[ @.' i > s T T R I e w e e : a < ",
"6 6 5 r F R U U G r 6 4 4 u 4 6 e 4 U T U Y w 4 w r ~ } ! r 4 e 5 < p 2.y q o. . .T i y t < > t e < , e e e e e < e y 5 < y y e ",
"5 y 4 : r y e F { r G { E G S R H y e , y R } &.~ r 5 r r 5 4 y e e o F p } { { y q a Y ' T T T I A e 5 4 : 4 e p F T T I I I I ",
"4 5 5 Y :.6.6.q.3.U 5 w 1 e e e e r : 5 y e 5 1 r 5 5 5 r r 5 : 4 y e : F =.{ +.T a y y < < q < 5 5 4 6 y p V V p y 5 < y y y < ",
"r r < : u y : e 5 X 1 r e p e : 0.<.F 4 r 4 e 1 5 5 r 5 5 G ! ~ { ^ O.y e e o < p < , < < y y < 5 6 V U { ^ E A u 5 5 y a T R Y ",
"G A p r e e e 5 r r V 4 1 r F ` I ~ 5 4 e : e 5 w 4 e 5 < y 5 , a , 5 , 5 5 y y < 5 5 a ~ } ^ { 5 5 4 6 V V 4 4 1 4 6 r 9 5 5 < ",
"y e r G U ! ! F r 5 4 4 r r 4 e 5 I G ! { I ~ U A 4 e e e 5 q y , < y y e , 5 < 5 e 5 , w 5 4 6 5 5 5 5 O O 5 r 5 r V V y 5 5 5 ",
"r A ! U S e 5 5 1 5 V G U A r e y y < y F U I e , e F Y a y < < , a U U y 5 < 5 1 5 r 6 6 4 4 4 6 6 6 6 6 r 6 6 6 6 O 2 6 4 6 6 ",
"4 6 6 5 u 5 4 6 r 4 6 6 5 r r 4 < e e e < p I Y T T R F i h T T T U U R a ~ U U u 4 5 5 1 6 6 6 5 4 4 5 V V M 6 4 1 6 6 3 6 3 6 "
};
