/* XPM */
static char *fec069f919e24f4deafe30cf09b558e6LiexHO5f2cS5ADe1[] = {
/* columns rows colors chars-per-pixel */
"64 64 183 2 ",
"   c #31423A",
".  c #3B4E3D",
"X  c #3F5236",
"o  c #3F533B",
"O  c #404E35",
"+  c #415137",
"@  c #45553B",
"#  c #48563D",
"$  c #45583D",
"%  c #49593E",
"&  c #1A3349",
"*  c #253D4F",
"=  c #293E4D",
"-  c #263E54",
";  c #293F52",
":  c #2B4345",
">  c #2B434C",
",  c #2D494A",
"<  c #364C46",
"1  c #3B4D43",
"2  c #33464A",
"3  c #364A4D",
"4  c #3A4E4B",
"5  c #3E5244",
"6  c #36504F",
"7  c #3D534B",
"8  c #264156",
"9  c #2C4355",
"0  c #26425A",
"q  c #2C455C",
"w  c #2E495E",
"e  c #314655",
"r  c #354A54",
"t  c #384D54",
"y  c #31475B",
"u  c #344A5D",
"i  c #394D5D",
"p  c #3D5355",
"a  c #35525C",
"s  c #3B525C",
"d  c #3E5A5D",
"f  c #274662",
"g  c #2C4661",
"h  c #2E4A63",
"j  c #2E4D69",
"k  c #324762",
"l  c #334C63",
"z  c #394E63",
"x  c #324E6A",
"c  c #3A4F6C",
"v  c #2F516D",
"b  c #365065",
"n  c #3B5264",
"m  c #35516A",
"M  c #3B546B",
"N  c #3F586E",
"B  c #365471",
"V  c #395671",
"C  c #3D5A73",
"Z  c #3E5D79",
"A  c #435442",
"S  c #485742",
"D  c #465941",
"F  c #4A5A42",
"G  c #42554B",
"H  c #46594C",
"J  c #4A5C4C",
"K  c #425651",
"L  c #455B54",
"P  c #485C52",
"I  c #43565B",
"U  c #455A5C",
"Y  c #4B5F5C",
"T  c #4C625F",
"R  c #546A5D",
"E  c #415465",
"W  c #455C62",
"Q  c #495D62",
"!  c #41566A",
"~  c #435A6E",
"^  c #485F6F",
"/  c #445D74",
"(  c #485E73",
")  c #435E79",
"_  c #4D6363",
"`  c #45636E",
"'  c #4C626A",
"]  c #546A64",
"[  c #596C66",
"{  c #52666C",
"}  c #51686E",
"|  c #546C6C",
" . c #546B6D",
".. c #596D6E",
"X. c #5C7064",
"o. c #456173",
"O. c #466176",
"+. c #4C6371",
"@. c #4F6572",
"#. c #4B6376",
"$. c #486577",
"%. c #4F6674",
"&. c #4B6275",
"*. c #476178",
"=. c #47627D",
"-. c #45627B",
";. c #496378",
":. c #49657B",
">. c #4B657C",
",. c #4B647B",
"<. c #4E687E",
"1. c #506673",
"2. c #546B71",
"3. c #556E72",
"4. c #546B75",
"5. c #596D76",
"6. c #50667C",
"7. c #526D79",
"8. c #546F78",
"9. c #516A7F",
"0. c #526C7D",
"q. c #536A7D",
"w. c #586F7D",
"e. c #577077",
"r. c #56727E",
"t. c #5B7278",
"y. c #5A717F",
"u. c #607576",
"i. c #446482",
"p. c #4A6681",
"a. c #476984",
"s. c #4D6A84",
"d. c #4E6D8A",
"f. c #516681",
"g. c #536D84",
"h. c #516F8B",
"j. c #526E8A",
"k. c #4E718D",
"l. c #557187",
"z. c #5A7186",
"x. c #54718B",
"c. c #5A748C",
"v. c #5E798C",
"b. c #4E7191",
"n. c #557491",
"m. c #597691",
"M. c #5D7A93",
"N. c #607787",
"B. c #61798F",
"V. c #617B92",
"C. c #7997B1",
"Z. c #7F99B1",
"A. c #84979B",
"S. c #869DAF",
"D. c #829DB4",
"F. c #899FB4",
"G. c #87A2B7",
"H. c #8EA8B7",
"J. c #86A1BB",
"K. c #8CA4BB",
"L. c #90AAB9",
"P. c #92AABD",
"I. c #8BA6C3",
"U. c #8FABC1",
"Y. c #8BA9C3",
"T. c #93ADC4",
"R. c #99AFC6",
"E. c #93AEC9",
"W. c #91AFCB",
"Q. c #96B0C7",
"!. c #98B1C5",
"~. c #98B2C3",
"^. c #92B0C9",
"/. c #97B3C9",
"(. c #97B3CB",
"). c #93B1CD",
"_. c #94B1CA",
"`. c #9BB5CC",
"'. c #95B2D0",
"]. c #9DB7D0",
"[. c #9EBAD2",
"{. c #A8BECB",
"}. c #A6C4DE",
/* pixels */
"@ @ @ @ @ @ @ @ @ @ @ @ @ @ @ @ @ @ @ @ @ @ @ @ @ @ @ @ @ @ @ # @ @ + $ $ + $ $ O A @ O @ @ @ @ @ @ @ O @ @ @ A @ A @ @ @ @ @ + ",
"@ @ @ @ @ @ @ @ @ @ @ @ @ @ X @ @ @ @ @ @ @ @ @ @ # @ @ @ @ @ @ @ @ @ @ + $ $ + # # # # @ @ A @ @ @ # # @ @ @ @ A @ A A @ @ + # ",
"@ @ @ @ @ @ # @ @ @ @ @ @ # % @ @ @ @ @ # + # @ @ @ @ @ @ @ @ @ @ @ @ @ @ @ @ @ A A # # @ # # @ @ A O A @ @ # + @ @ @ @ o @ # @ ",
"@ @ @ @ @ @ @ @ @ @ @ @ @ % X @ @ @ @ @ # # + # @ @ @ @ @ @ @ @ @ @ @ @ @ @ @ @ O # # @ @ # # @ @ @ @ @ # + @ @ @ @ @ @ @ @ @ @ ",
"@ @ @ @ @ @ @ @ X # # X @ @ @ X @ @ @ @ @ @ @ @ @ @ @ @ @ @ @ @ @ @ @ @ @ @ + @ @ @ # # @ @ # + # O # @ # O # # @ @ @ @ @ @ @ @ ",
"@ @ @ @ @ @ @ @ % % X # @ @ # % @ @ @ @ @ @ @ @ @ @ @ # @ @ @ @ @ @ @ @ @ @ # + @ @ # O @ @ @ # # @ # O # # O # @ @ @ # @ # @ @ ",
"@ @ @ @ @ @ @ # # @ X # @ @ @ @ + @ # + @ @ @ @ @ + $ + @ + @ @ $ + + $ + @ # # @ @ @ + @ @ @ @ @ # O # + @ @ @ @ # A A A A @ A ",
"@ @ @ @ @ @ @ @ @ @ # # X @ @ @ # + # # # @ @ @ @ @ # # @ # @ # + $ $ + $ @ @ # @ # # # @ @ A S A @ # @ @ A A A A 7 5 G 7 7 7 7 ",
"@ @ # % @ @ X # @ @ # X # # # X @ @ @ @ @ @ @ @ # A @ @ # # @ @ + + $ @ @ A @ A @ # # + + A S 1 o D 5 A 7 5 7 7 4 p p U 3.3.d , ",
"@ @ @ X @ # % # % X # X # X X % @ @ @ @ @ @ @ # @ @ @ @ # @ A @ $ $ $ $ S @ A @ # + # # A @ 7 G X.R T 5 L ] | _ 1.r.7.7.r.r.` a ",
"X # # # @ @ @ X # @ @ @ X @ % # @ # @ @ @ @ @ @ O A @ A A A A @ + @ @ @ @ # @ + @ + # # A G G [ L 7 7 3 p | t.e.1.n a b ~ $.o.b ",
"X # X # # X @ @ @ @ @ @ % @ @ @ @ @ @ @ @ @ @ @ O # A # A # A @ @ + @ @ @ @ @ @ @ @ @ + A P < L 6 L 7 p 6 3 r a v.7.g.<.N w m o.",
"# # X % % # @ @ # % @ # # @ @ @ @ @ @ @ O # O # A # A # S @ A @ @ $ @ @ + # @ @ @ S 5 5 5 T , : t ' U } | s s s e y ! ( b y l M ",
"X % @ # X % @ @ @ X @ % @ @ @ @ O # @ @ # # S S A # A # A @ A A A 5 5 A o @ # A 5 P H L 3 d a a > n s ` ' a s n i ; k E / 6.( k ",
"% X @ @ # X # X @ @ # X X # # + # # @ @ @ # O A S A O A A A S D H H 7 A A o 5 7 K Y p e.a 9 q u M 0 w u u a r i i i E ; k z z z ",
"# @ @ @ # X # @ @ @ % X # # X # O @ @ @ @ @ # S O O A O A S G K { ' Y L H 7 7 4 t r n L.!.Q./.^.^.=.:.$.` <.u y u i ; y E k k ( ",
"@ @ # # X @ @ @ @ @ @ @ # @ X % # @ X % # @ + # @ # + A G 1 7 3 t y t r I U t ' 1.+.&.( #.=.:.g.x.).^.(.U.M 0 b u q u n l y l z ",
"@ @ X # % # # X # % @ @ @ @ # % @ @ @ # @ @ + # @ S S A G { | 9 y n %.w.w.1.s i y u l z z l z l h B s.c.l.w b ~ %.$.#./ ( q.6./ ",
"@ X # # @ # X % % X X # + # # X @ X # # @ @ # # + A A 4 t 4.w.u u n ^ %.( n i 9 z i y e q u l l x 0 M h k / ( 1.u a z u n 6.6.~ ",
"@ @ # X @ % X # X # # # # X X % @ @ # X @ @ @ # A 1 4 U I u z w $.o.b n u 9 E E e e i z n z u y :./ :.l l ! u y u u u u z z M c ",
"@ # # # @ @ @ X @ @ @ X # @ @ @ @ @ @ @ + X $ $ A K Q 8.$.k g m b N q w k u ! E z i E E E i u u l k z / &.! ; E i e y u u y y c ",
"@ % X X @ @ # # @ @ @ @ @ @ @ @ @ @ @ $ @ @ $ $ K | 8.z.v.j.x.x.p.c.s.$.6.6.( E E i e i i n ~ 6.u u q ! n u y u e i y y k u u l ",
"@ @ # # @ @ X % % # @ @ @ @ @ @ @ @ $ $ $ 5 o 7 T | W b k h j f b w h h k c k y y u u y y k b l l m y y ; z u e u z i z ^ ( ( &.",
"# X X @ @ @ @ # X @ @ @ @ @ @ @ # # D o 5 D 7 7 p a n o.O.:.x.x.l.h l l k k y z y z u y M s.l.j.g.6./ &.6.1.y z y i y y z z u l ",
"# X % # # # X X % @ @ X @ @ @ @ # # A G 1 K _ Q s a u b m h h j j s.x.c.x.j.g.c z k q M :.M q h l h h k l l u u y i y i u u u i ",
"X # % X X # # # # @ # # # + @ @ + + @ H G 3 t > s 9 n $.j.h.n.x.s.s.-.-.Z V c - l l k l N >.c.c.l.z.<.M q y l n k i z y y y u u ",
"@ @ # @ X # @ @ @ # X % @ # # + @ @ G ] ..5.N.q.r.b u b x Z n.n.k.n.n.M.n.j.n.n.j.g.l.l.$.C l q q h g q M 6.z.f.z.z.6.! u z z q ",
"X @ @ @ @ @ @ @ @ % X @ # + $ $ S + A G I e i u b 0 w b k k x g B i.k.s.i.) p.p.i.M l k m N =.s.l b l z :.z.6.M k z ! ! O.:./ M ",
"% # # X # # # @ @ @ @ @ X # + # + @ A K t e u z q b ~ <.g.g.f.j.h j v h h x h h f ) s.s.c.j.C ; l u u y u l z q b u w b b x h q ",
"@ @ # X % X % X @ @ @ @ X # $ + A A G K I z ( 6.6.>.N l l l c p.x.s.l.l.j.x.x.m.h.M.f.V x k g l u u u u u u k n q m <.m.c.$.m h ",
"@ @ @ # X @ @ @ X X % @ # X % # @ A 1 4 3 t ^ &.u u u u k y k l x w b b w h q v h x C i.) c g l i e r u i z u k b w w q h C a.l.",
"@ @ X # % # @ @ # # # @ # @ # $ A G 4 3 t r i i u u u a u u l u l k h 9 b :.$.o.j.j.n.j.d.n.m.g.l i u u u z z l z.p.B h m :.k.x.",
"+ # @ # $ + + @ # # + + @ 1 . 1 1 K 4 3 I 2 E y n r u a z b / >.#.l l M 9 l q u 6.6.) c h h x h s.x.c.l.j.j.l.x.h x h h v v h h ",
"# @ @ @ @ $ $ $ + @ # # S A A 1 K 2 Q r = E = u 9 q l w 0 l m h l b k ! <.w.u z ; u ~ f.c.j.x.j.V h f m :.a.:.a.x.s.x.m.x.s.x.k.",
"+ # @ @ @ @ $ + @ # # # @ A A p > E * n y y l x <.b q f m O.a.-./ ~ #.( ; q y i ! k q q k m =.m.:.z.M.s.m q m <.-.i.-.h f Z p.v ",
"# + $ $ X @ @ @ @ @ # @ + A G K s H.z z q x c.g.x.g.c.M.:.V m g [.T.R.F.! z &.&.! M l l l k M ) s./ z 0 w u x x h m :.i.B j h h ",
"@ @ # @ @ + @ @ @ # + # + A G U > v.:.z.m.c.g x h V C.}.J.x.a.v.w k u / q q l l M ) ,.=.p.) ) =.<.( z z l k M s.l.c.x.s.k.d.s.m.",
"+ # @ @ + @ @ @ @ @ # + # G L Q E u q x 0 c k m.M.p.C c q c M 0 l m 0 m q x =.=.=.p.) c x x h k k u q 0 N g.:.b l <.>./ g.m.g.$.",
"@ # @ @ @ @ @ @ # O + # A D K I e g.B.f.z g M 0 y M k & ! P.K.n N c.$.Z h m s.M.d.n.j.s.j.f.B h w O.:.M :.V.g.b 0 b b l h 0 m g.",
"@ + @ @ @ @ @ @ O # # + A G 4 r i l y z v.z.f.z c q u M u i z e N G.V.s.M.p.m Z i.) c B g.m.g.=.O.:.:./ n h w k n w w w z l l l ",
"@ @ @ @ o o $ # # # + # G G _ { 1.i y u z z q l 0 q z u z y i y u u l n O.O.=.<.=.:.:.<.( ( ( c k l k l l k q l x o.0.:.O.:.:./ ",
"@ @ $ o $ @ @ @ @ # # D A 7 s r i u z u z ~ M z c c ~ z z ; z n b u q q l b u h l h q k k z ! y b / <.#.O.<.s.<.>.b q l z w q b ",
"@ @ @ @ @ @ @ A S # + @ 5 < t 9 y q z b b w 0 k ) ) V 0 z z c ; u u l u k M M x q q l m u ; k u q n ( M z C &./ ~ n h k N O.M 0 ",
"@ @ @ @ o @ @ @ o # # D 5 7 s u c q w w h h m h.m.n.j.i.s.) =.M w h b b q h b l M g q / g.f.( k n y y y 9 u M z k / :.g.Z.[.D.=.",
"@ @ $ X @ @ @ @ + # @ $ G Y 8.g.l.s.l.s.k.n.a.i.b.b.b.n.d.B $.<.g.<.g.l.s.g.l.g.g.l.z.x.=.~ f.B.+.i y i i n ~ ! >.&.( / <.g.:.M ",
"@ + $ @ @ o @ @ # @ + @ o K 4.z.:.B j B :.n.k.k.b.b.b.d.n.d.x.<.:.V m m b h h w g h m q.c.,.V ; ! i i i y i n z z y l z q ; l q.",
"@ @ X $ @ @ @ @ O @ @ D 5 < s l k.Z -.k.n.a.v v b.b.i.i.x.k.h.j x l w w l b h k k l w l c l z l y i i y y y y y u y i ^ +.! u y ",
"@ @ $ $ X $ @ @ % % o o 7 Y 4.l.g.s.s.-.-.-.-.a.i.i.i.x.k.h j w l O.:.:.:.:.#.>.z l y l k y k y y u u i i i y i y y y z u r y y ",
"@ @ X $ @ @ # # # S A K ..{ i u y z y k u l x s.x.k.x.x.h.<.C b <.q b j x h x b z ; y i u l y l l w u u y s u e e E 9 i 9 n u u ",
"@ @ X @ @ @ O # @ @ A 3 I y ; y i t u i e M l l :.p.:.-./ o.<.l.<.v.c.$.c.l.z.l.f.E i e e u z :.:.:.<.N u y z z i = ( S.^ ; u #.",
"@ # $ @ # O O # # S G K t e i E i e z u u / ( :.w l x l b h u q w a 8 b <.O.:.o.E ; i i u u y k h w b M &.g.~ y n y ; ! ! <.<.=.",
"@ $ @ @ # # # @ O O G K K i i y z i i u 9 u k l k h q h u h w b l q b b q 0 N w i u i u u c x k >.:.$.b y z z i - ! z q l k w :.",
"@ @ @ @ A # # @ $ D J _ I z i y l y u n >.q.O.O.<.<.:.M k w b O.:.u b w b u 9 u e u #.6.g.g.&.! b l l l M / c y ! / ( ,.l.c.g.=.",
"@ @ @ @ @ @ @ @ X o 5 7 r u k l q k z k 6.l.g.l./ :.) M m k q x l k q l P.!.N , n y u q q M / ) g.l.z.:.c z y z g.f.z.l q l B - ",
"@ @ # # A @ @ @ $ D 5 7 ' #.&.g.m.j.<.x b u h u l M m x / :.=.$.:.^.P.b w a > n a 9 b b l g 0 h l q l ! f.f.z q c y M q N w l c ",
"@ @ + @ @ @ @ @ $ o 5 7 4.z.g.j.s.x x f m w w k x :.j.g.x.m.k.g.w u b u a q a w h M >.l.l.z.g.s.x k h q l z y c k y z.g.g.k k h ",
"# + @ + @ @ @ @ $ o T 6 a 8 m ^.'.W.W.Y.E.[.Q.T.T.].F./ 0 p.C.p.b $.$.o.#.#.<.O.:.=.=.=.:.=.Z m l k y q y l z q k z u y z ,.z.z.",
"# @ @ @ @ A @ O o J 7 6 > Z Y.v h j i.l.g.C w h k g Z D.[./.C.M q l m l M O./ $.:.=.=.-.$.i.>.$./ ,.f.<.&.%./ n i z l u l ! ( / ",
"+ + @ @ @ A A A D 5 6 ' g.V p.i.g.) M 8 9 x z k l l g M q - M h b N <.b - l x s.-.i.) m f g h j l M ~ / / M z 9 y y u i u u l z ",
"@ @ # @ @ A # A 7 5 t.} z.c.x h E./.D.:.8 z ~ #.k l l q l M 8 w h M <.:.p.j./ ) :.p.:.$.:.s.s.$.:./ N M w 9 q z l l z z u u u u ",
"@ # @ @ # # A A 1 P A.{.K.,.) p.O.M z y u s u u z u z q k l l v.f.p.c k m ) / B b h k M >.l.$.j h w l N m N / =.:.:.#.~ z z z u ",
"# @ @ @ A @ A A A H 2 r / c #./ >.o.%./ n u u #.( / ( c.z.q.<.O.f.g.) ) p.) C q k l q q w x m m M i.c.c.g.g.$.M q u x l l ~ #.#.",
"@ @ @ @ O # A A J   I t > q z z l q w l N $.:.:.z.c.z.) h w c q k k k c d.m.=.M w u z z l M =.l.Z -.a.d.s.k.c.l.l.g.<.O.N z z u ",
"A @ @ @ # @ # A A 1 I t i a u q b w l u l z w k k 0 M q x / u k k c j.j.m.x.l w z u u W 6.s.s.i.a.Z -.d.-.v h h x h w b k h u u "
};
